%TF.GenerationSoftware,KiCad,Pcbnew,9.0.0*%
%TF.CreationDate,2026-04-13T14:23:43+03:00*%
%TF.ProjectId,ControllerV6,436f6e74-726f-46c6-9c65-7256362e6b69,rev?*%
%TF.SameCoordinates,Original*%
%TF.FileFunction,Soldermask,Top*%
%TF.FilePolarity,Negative*%
%FSLAX46Y46*%
G04 Gerber Fmt 4.6, Leading zero omitted, Abs format (unit mm)*
G04 Created by KiCad (PCBNEW 9.0.0) date 2026-04-13 14:23:43*
%MOMM*%
%LPD*%
G01*
G04 APERTURE LIST*
G04 Aperture macros list*
%AMRoundRect*
0 Rectangle with rounded corners*
0 $1 Rounding radius*
0 $2 $3 $4 $5 $6 $7 $8 $9 X,Y pos of 4 corners*
0 Add a 4 corners polygon primitive as box body*
4,1,4,$2,$3,$4,$5,$6,$7,$8,$9,$2,$3,0*
0 Add four circle primitives for the rounded corners*
1,1,$1+$1,$2,$3*
1,1,$1+$1,$4,$5*
1,1,$1+$1,$6,$7*
1,1,$1+$1,$8,$9*
0 Add four rect primitives between the rounded corners*
20,1,$1+$1,$2,$3,$4,$5,0*
20,1,$1+$1,$4,$5,$6,$7,0*
20,1,$1+$1,$6,$7,$8,$9,0*
20,1,$1+$1,$8,$9,$2,$3,0*%
G04 Aperture macros list end*
%ADD10C,0.675000*%
%ADD11RoundRect,0.250000X-0.600000X-0.725000X0.600000X-0.725000X0.600000X0.725000X-0.600000X0.725000X0*%
%ADD12O,1.700000X1.950000*%
%ADD13RoundRect,0.250000X-0.600000X-0.750000X0.600000X-0.750000X0.600000X0.750000X-0.600000X0.750000X0*%
%ADD14O,1.700000X2.000000*%
%ADD15R,4.000000X2.500000*%
%ADD16RoundRect,0.243750X-0.456250X0.243750X-0.456250X-0.243750X0.456250X-0.243750X0.456250X0.243750X0*%
%ADD17R,3.000000X3.000000*%
%ADD18C,3.000000*%
%TA.AperFunction,Profile*%
%ADD19C,0.100000*%
%TD*%
%TA.AperFunction,Profile*%
%ADD20C,0.050000*%
%TD*%
G04 APERTURE END LIST*
%TO.C,BT1*%
D10*
X113737500Y-89250000D02*
G75*
G02*
X113062500Y-89250000I-337500J0D01*
G01*
X113062500Y-89250000D02*
G75*
G02*
X113737500Y-89250000I337500J0D01*
G01*
X113737500Y-89250000D02*
G75*
G02*
X113062500Y-89250000I-337500J0D01*
G01*
X113062500Y-89250000D02*
G75*
G02*
X113737500Y-89250000I337500J0D01*
G01*
X121237500Y-89250000D02*
G75*
G02*
X120562500Y-89250000I-337500J0D01*
G01*
X120562500Y-89250000D02*
G75*
G02*
X121237500Y-89250000I337500J0D01*
G01*
%TD*%
D11*
%TO.C,XT26*%
X193500000Y-64500000D03*
D12*
X196000000Y-64500000D03*
X198500000Y-64500000D03*
X201000000Y-64500000D03*
X203500000Y-64500000D03*
X206000000Y-64500000D03*
X208500000Y-64500000D03*
%TD*%
D11*
%TO.C,XT18*%
X125833333Y-138000000D03*
D12*
X128333333Y-138000000D03*
X130833333Y-138000000D03*
%TD*%
D13*
%TO.C,XT27*%
X133000000Y-52000000D03*
D14*
X135500000Y-52000000D03*
%TD*%
D11*
%TO.C,XT22*%
X176250000Y-52000000D03*
D12*
X178750000Y-52000000D03*
X181250000Y-52000000D03*
X183750000Y-52000000D03*
X186250000Y-52000000D03*
X188750000Y-52000000D03*
%TD*%
D15*
%TO.C,BT1*%
X127000000Y-89250000D03*
X107000000Y-89250000D03*
%TD*%
D16*
%TO.C,D2*%
X137000000Y-70375000D03*
X137000000Y-72250000D03*
%TD*%
D11*
%TO.C,XT14*%
X162500000Y-127250000D03*
D12*
X165000000Y-127250000D03*
X167500000Y-127250000D03*
%TD*%
D13*
%TO.C,XT23*%
X152125000Y-52000000D03*
D14*
X154625000Y-52000000D03*
%TD*%
D11*
%TO.C,XT25*%
X201000000Y-52000000D03*
D12*
X203500000Y-52000000D03*
X206000000Y-52000000D03*
X208500000Y-52000000D03*
%TD*%
D11*
%TO.C,XT34*%
X181500000Y-95000000D03*
D12*
X184000000Y-95000000D03*
X186500000Y-95000000D03*
X189000000Y-95000000D03*
%TD*%
D11*
%TO.C,XT28*%
X181500000Y-127250000D03*
D12*
X184000000Y-127250000D03*
X186500000Y-127250000D03*
X189000000Y-127250000D03*
%TD*%
D13*
%TO.C,XT8*%
X107500000Y-62750000D03*
D14*
X110000000Y-62750000D03*
%TD*%
D11*
%TO.C,XT12*%
X125833333Y-127250000D03*
D12*
X128333333Y-127250000D03*
X130833333Y-127250000D03*
%TD*%
D11*
%TO.C,XT33*%
X201000000Y-127250000D03*
D12*
X203500000Y-127250000D03*
X206000000Y-127250000D03*
X208500000Y-127250000D03*
%TD*%
D13*
%TO.C,XT16*%
X107500000Y-52000000D03*
D14*
X110000000Y-52000000D03*
%TD*%
D11*
%TO.C,XT2*%
X125833333Y-116500000D03*
D12*
X128333333Y-116500000D03*
X130833333Y-116500000D03*
%TD*%
D11*
%TO.C,XT4*%
X162500000Y-116500000D03*
D12*
X165000000Y-116500000D03*
X167500000Y-116500000D03*
%TD*%
D16*
%TO.C,D1*%
X132000000Y-70375000D03*
X132000000Y-72250000D03*
%TD*%
D11*
%TO.C,XT1*%
X107500000Y-116500000D03*
D12*
X110000000Y-116500000D03*
X112500000Y-116500000D03*
%TD*%
D13*
%TO.C,XT17*%
X91250000Y-51975000D03*
D14*
X93750000Y-51975000D03*
%TD*%
D17*
%TO.C,C22*%
X106500000Y-98382323D03*
D18*
X106500000Y-103382323D03*
%TD*%
D11*
%TO.C,XT3*%
X144166667Y-116500000D03*
D12*
X146666667Y-116500000D03*
X149166667Y-116500000D03*
%TD*%
D16*
%TO.C,D3*%
X141750000Y-70375000D03*
X141750000Y-72250000D03*
%TD*%
D11*
%TO.C,XT31*%
X201000000Y-95000000D03*
D12*
X203500000Y-95000000D03*
X206000000Y-95000000D03*
X208500000Y-95000000D03*
%TD*%
D17*
%TO.C,C7*%
X96250000Y-129500000D03*
D18*
X91250000Y-129500000D03*
%TD*%
D11*
%TO.C,XT15*%
X144166667Y-138000000D03*
D12*
X146666667Y-138000000D03*
X149166667Y-138000000D03*
%TD*%
D11*
%TO.C,XT11*%
X107500000Y-127250000D03*
D12*
X110000000Y-127250000D03*
X112500000Y-127250000D03*
%TD*%
D11*
%TO.C,XT21*%
X146250000Y-96475000D03*
D12*
X148750000Y-96475000D03*
X151250000Y-96475000D03*
X153750000Y-96475000D03*
%TD*%
D11*
%TO.C,XT13*%
X144166667Y-127250000D03*
D12*
X146666667Y-127250000D03*
X149166667Y-127250000D03*
%TD*%
D13*
%TO.C,XT5*%
X107500000Y-73500000D03*
D14*
X110000000Y-73500000D03*
%TD*%
D13*
%TO.C,XT6*%
X91250000Y-73475000D03*
D14*
X93750000Y-73475000D03*
%TD*%
D11*
%TO.C,XT9*%
X107500000Y-138000000D03*
D12*
X110000000Y-138000000D03*
X112500000Y-138000000D03*
%TD*%
D11*
%TO.C,XT32*%
X201000000Y-84250000D03*
D12*
X203500000Y-84250000D03*
X206000000Y-84250000D03*
X208500000Y-84250000D03*
%TD*%
D13*
%TO.C,XT7*%
X91250000Y-62725000D03*
D14*
X93750000Y-62725000D03*
%TD*%
D11*
%TO.C,XT30*%
X201000000Y-105750000D03*
D12*
X203500000Y-105750000D03*
X206000000Y-105750000D03*
X208500000Y-105750000D03*
%TD*%
D11*
%TO.C,XT35*%
X181500000Y-105750000D03*
D12*
X184000000Y-105750000D03*
X186500000Y-105750000D03*
X189000000Y-105750000D03*
%TD*%
D13*
%TO.C,XT19*%
X91250000Y-100750000D03*
D14*
X93750000Y-100750000D03*
%TD*%
D13*
%TO.C,XT24*%
X91250000Y-85000000D03*
D14*
X93750000Y-85000000D03*
%TD*%
D11*
%TO.C,XT10*%
X162500000Y-138000000D03*
D12*
X165000000Y-138000000D03*
X167500000Y-138000000D03*
%TD*%
D11*
%TO.C,XT29*%
X201000000Y-116500000D03*
D12*
X203500000Y-116500000D03*
X206000000Y-116500000D03*
X208500000Y-116500000D03*
%TD*%
D11*
%TO.C,XT36*%
X181500000Y-116500000D03*
D12*
X184000000Y-116500000D03*
X186500000Y-116500000D03*
X189000000Y-116500000D03*
%TD*%
D11*
%TO.C,XT37*%
X181500000Y-84250000D03*
D12*
X184000000Y-84250000D03*
X186500000Y-84250000D03*
X189000000Y-84250000D03*
%TD*%
D13*
%TO.C,XT20*%
X91250000Y-116500000D03*
D14*
X93750000Y-116500000D03*
%TD*%
D19*
X221600000Y-50000000D02*
G75*
G02*
X218400000Y-50000000I-1600000J0D01*
G01*
X218400000Y-50000000D02*
G75*
G02*
X221600000Y-50000000I1600000J0D01*
G01*
X81600000Y-50000000D02*
G75*
G02*
X78400000Y-50000000I-1600000J0D01*
G01*
X78400000Y-50000000D02*
G75*
G02*
X81600000Y-50000000I1600000J0D01*
G01*
X221600000Y-140000000D02*
G75*
G02*
X218400000Y-140000000I-1600000J0D01*
G01*
X218400000Y-140000000D02*
G75*
G02*
X221600000Y-140000000I1600000J0D01*
G01*
X81600000Y-140000000D02*
G75*
G02*
X78400000Y-140000000I-1600000J0D01*
G01*
X78400000Y-140000000D02*
G75*
G02*
X81600000Y-140000000I1600000J0D01*
G01*
X75000000Y-45000000D02*
X225000000Y-45000000D01*
X225000000Y-145000000D01*
X75000000Y-145000000D01*
X75000000Y-45000000D01*
D20*
%TO.C,BT1*%
X114050000Y-89250000D02*
G75*
G02*
X112750000Y-89250000I-650000J0D01*
G01*
X112750000Y-89250000D02*
G75*
G02*
X114050000Y-89250000I650000J0D01*
G01*
X121550000Y-89250000D02*
G75*
G02*
X120250000Y-89250000I-650000J0D01*
G01*
X120250000Y-89250000D02*
G75*
G02*
X121550000Y-89250000I650000J0D01*
G01*
%TD*%
M02*
