%TF.GenerationSoftware,KiCad,Pcbnew,9.0.0*%
%TF.CreationDate,2026-04-13T14:23:42+03:00*%
%TF.ProjectId,ControllerV6,436f6e74-726f-46c6-9c65-7256362e6b69,rev?*%
%TF.SameCoordinates,Original*%
%TF.FileFunction,Copper,L1,Top*%
%TF.FilePolarity,Positive*%
%FSLAX46Y46*%
G04 Gerber Fmt 4.6, Leading zero omitted, Abs format (unit mm)*
G04 Created by KiCad (PCBNEW 9.0.0) date 2026-04-13 14:23:42*
%MOMM*%
%LPD*%
G01*
G04 APERTURE LIST*
G04 Aperture macros list*
%AMRoundRect*
0 Rectangle with rounded corners*
0 $1 Rounding radius*
0 $2 $3 $4 $5 $6 $7 $8 $9 X,Y pos of 4 corners*
0 Add a 4 corners polygon primitive as box body*
4,1,4,$2,$3,$4,$5,$6,$7,$8,$9,$2,$3,0*
0 Add four circle primitives for the rounded corners*
1,1,$1+$1,$2,$3*
1,1,$1+$1,$4,$5*
1,1,$1+$1,$6,$7*
1,1,$1+$1,$8,$9*
0 Add four rect primitives between the rounded corners*
20,1,$1+$1,$2,$3,$4,$5,0*
20,1,$1+$1,$4,$5,$6,$7,0*
20,1,$1+$1,$6,$7,$8,$9,0*
20,1,$1+$1,$8,$9,$2,$3,0*%
G04 Aperture macros list end*
%TA.AperFunction,Conductor*%
%ADD10C,0.200000*%
%TD*%
%TA.AperFunction,ComponentPad*%
%ADD11RoundRect,0.250000X-0.600000X-0.725000X0.600000X-0.725000X0.600000X0.725000X-0.600000X0.725000X0*%
%TD*%
%TA.AperFunction,ComponentPad*%
%ADD12O,1.700000X1.950000*%
%TD*%
%TA.AperFunction,ComponentPad*%
%ADD13RoundRect,0.250000X-0.600000X-0.750000X0.600000X-0.750000X0.600000X0.750000X-0.600000X0.750000X0*%
%TD*%
%TA.AperFunction,ComponentPad*%
%ADD14O,1.700000X2.000000*%
%TD*%
%TA.AperFunction,SMDPad,CuDef*%
%ADD15R,4.000000X2.500000*%
%TD*%
%TA.AperFunction,SMDPad,CuDef*%
%ADD16RoundRect,0.243750X-0.456250X0.243750X-0.456250X-0.243750X0.456250X-0.243750X0.456250X0.243750X0*%
%TD*%
%TA.AperFunction,ComponentPad*%
%ADD17R,3.000000X3.000000*%
%TD*%
%TA.AperFunction,ComponentPad*%
%ADD18C,3.000000*%
%TD*%
%TA.AperFunction,ViaPad*%
%ADD19C,0.800000*%
%TD*%
%TA.AperFunction,Conductor*%
%ADD20C,0.500000*%
%TD*%
%TA.AperFunction,Conductor*%
%ADD21C,0.300000*%
%TD*%
%TA.AperFunction,Conductor*%
%ADD22C,1.000000*%
%TD*%
%TA.AperFunction,Profile*%
%ADD23C,0.100000*%
%TD*%
%TA.AperFunction,Profile*%
%ADD24C,0.050000*%
%TD*%
G04 APERTURE END LIST*
D10*
%TO.N,3.3V_1*%
X135000000Y-97500000D02*
X135000000Y-105250000D01*
X134250000Y-106000000D01*
X113250000Y-106000000D01*
X112500000Y-105250000D01*
X112500000Y-95750000D01*
X113250000Y-95000000D01*
X132500000Y-95000000D01*
X135000000Y-97500000D01*
%TA.AperFunction,Conductor*%
G36*
X135000000Y-97500000D02*
G01*
X135000000Y-105250000D01*
X134250000Y-106000000D01*
X113250000Y-106000000D01*
X112500000Y-105250000D01*
X112500000Y-95750000D01*
X113250000Y-95000000D01*
X132500000Y-95000000D01*
X135000000Y-97500000D01*
G37*
%TD.AperFunction*%
%TD*%
D11*
%TO.P,XT26,1,Pin_1*%
%TO.N,Lora_Gpio*%
X193500000Y-64500000D03*
D12*
%TO.P,XT26,2,Pin_2*%
%TO.N,Lora_M1*%
X196000000Y-64500000D03*
%TO.P,XT26,3,Pin_3*%
%TO.N,Lora_M0*%
X198500000Y-64500000D03*
%TO.P,XT26,4,Pin_4*%
%TO.N,Lora_TX*%
X201000000Y-64500000D03*
%TO.P,XT26,5,Pin_5*%
%TO.N,Lora_RX*%
X203500000Y-64500000D03*
%TO.P,XT26,6,Pin_6*%
%TO.N,GNDREF*%
X206000000Y-64500000D03*
%TO.P,XT26,7,Pin_7*%
%TO.N,5V*%
X208500000Y-64500000D03*
%TD*%
D11*
%TO.P,XT18,1,Pin_1*%
%TO.N,Lifter DOWN*%
X125833333Y-138000000D03*
D12*
%TO.P,XT18,2,Pin_2*%
%TO.N,GNDREF*%
X128333333Y-138000000D03*
%TO.P,XT18,3,Pin_3*%
%TO.N,5V*%
X130833333Y-138000000D03*
%TD*%
D13*
%TO.P,XT27,1,Pin_1*%
%TO.N,Net-(XT27-Pin_1)*%
X133000000Y-52000000D03*
D14*
%TO.P,XT27,2,Pin_2*%
%TO.N,Net-(U3-GND)*%
X135500000Y-52000000D03*
%TD*%
D11*
%TO.P,XT22,1,Pin_1*%
%TO.N,Net-(XT22-Pin_1)*%
X176250000Y-52000000D03*
D12*
%TO.P,XT22,2,Pin_2*%
%TO.N,Net-(XT22-Pin_2)*%
X178750000Y-52000000D03*
%TO.P,XT22,3,Pin_3*%
%TO.N,Esp32 TX*%
X181250000Y-52000000D03*
%TO.P,XT22,4,Pin_4*%
%TO.N,Esp32 RX*%
X183750000Y-52000000D03*
%TO.P,XT22,5,Pin_5*%
%TO.N,GNDREF*%
X186250000Y-52000000D03*
%TO.P,XT22,6,Pin_6*%
%TO.N,5V*%
X188750000Y-52000000D03*
%TD*%
D15*
%TO.P,BT1,1,+*%
%TO.N,Vbat*%
X127000000Y-89250000D03*
%TO.P,BT1,2,-*%
%TO.N,GND*%
X107000000Y-89250000D03*
%TD*%
D16*
%TO.P,D2,1,K*%
%TO.N,Net-(D2-K)*%
X137000000Y-70375000D03*
%TO.P,D2,2,A*%
%TO.N,Led*%
X137000000Y-72250000D03*
%TD*%
D11*
%TO.P,XT14,1,Pin_1*%
%TO.N,Net-(XT14-Pin_1)*%
X162500000Y-127250000D03*
D12*
%TO.P,XT14,2,Pin_2*%
%TO.N,GNDREF*%
X165000000Y-127250000D03*
%TO.P,XT14,3,Pin_3*%
%TO.N,5V*%
X167500000Y-127250000D03*
%TD*%
D13*
%TO.P,XT23,1,Pin_1*%
%TO.N,Net-(D7-A)*%
X152125000Y-52000000D03*
D14*
%TO.P,XT23,2,Pin_2*%
%TO.N,Net-(D7-B)*%
X154625000Y-52000000D03*
%TD*%
D11*
%TO.P,XT25,1,Pin_1*%
%TO.N,Net-(XT22-Pin_2)*%
X201000000Y-52000000D03*
D12*
%TO.P,XT25,2,Pin_2*%
%TO.N,Net-(XT22-Pin_1)*%
X203500000Y-52000000D03*
%TO.P,XT25,3,Pin_3*%
%TO.N,GNDREF*%
X206000000Y-52000000D03*
%TO.P,XT25,4,Pin_4*%
%TO.N,5V*%
X208500000Y-52000000D03*
%TD*%
D11*
%TO.P,XT34,1,Pin_1*%
%TO.N,5V*%
X181500000Y-95000000D03*
D12*
%TO.P,XT34,2,Pin_2*%
%TO.N,GNDREF*%
X184000000Y-95000000D03*
%TO.P,XT34,3,Pin_3*%
%TO.N,SCL*%
X186500000Y-95000000D03*
%TO.P,XT34,4,Pin_4*%
%TO.N,SDA*%
X189000000Y-95000000D03*
%TD*%
D11*
%TO.P,XT28,1,Pin_1*%
%TO.N,5V*%
X181500000Y-127250000D03*
D12*
%TO.P,XT28,2,Pin_2*%
%TO.N,GNDREF*%
X184000000Y-127250000D03*
%TO.P,XT28,3,Pin_3*%
%TO.N,SCL*%
X186500000Y-127250000D03*
%TO.P,XT28,4,Pin_4*%
%TO.N,SDA*%
X189000000Y-127250000D03*
%TD*%
D13*
%TO.P,XT8,1,Pin_1*%
%TO.N,5V*%
X107500000Y-62750000D03*
D14*
%TO.P,XT8,2,Pin_2*%
%TO.N,Net-(XT8-Pin_2)*%
X110000000Y-62750000D03*
%TD*%
D11*
%TO.P,XT12,1,Pin_1*%
%TO.N,Net-(XT12-Pin_1)*%
X125833333Y-127250000D03*
D12*
%TO.P,XT12,2,Pin_2*%
%TO.N,GNDREF*%
X128333333Y-127250000D03*
%TO.P,XT12,3,Pin_3*%
%TO.N,5V*%
X130833333Y-127250000D03*
%TD*%
D11*
%TO.P,XT33,1,Pin_1*%
%TO.N,5V*%
X201000000Y-127250000D03*
D12*
%TO.P,XT33,2,Pin_2*%
%TO.N,GNDREF*%
X203500000Y-127250000D03*
%TO.P,XT33,3,Pin_3*%
%TO.N,SCL*%
X206000000Y-127250000D03*
%TO.P,XT33,4,Pin_4*%
%TO.N,SDA*%
X208500000Y-127250000D03*
%TD*%
D13*
%TO.P,XT16,1,Pin_1*%
%TO.N,5V*%
X107500000Y-52000000D03*
D14*
%TO.P,XT16,2,Pin_2*%
%TO.N,Net-(VT2-C)*%
X110000000Y-52000000D03*
%TD*%
D11*
%TO.P,XT2,1,Pin_1*%
%TO.N,BumpF2_In*%
X125833333Y-116500000D03*
D12*
%TO.P,XT2,2,Pin_2*%
%TO.N,Net-(XT2-Pin_2)*%
X128333333Y-116500000D03*
%TO.P,XT2,3,Pin_3*%
%TO.N,5V*%
X130833333Y-116500000D03*
%TD*%
D11*
%TO.P,XT4,1,Pin_1*%
%TO.N,BumpR2_In*%
X162500000Y-116500000D03*
D12*
%TO.P,XT4,2,Pin_2*%
%TO.N,Net-(XT4-Pin_2)*%
X165000000Y-116500000D03*
%TO.P,XT4,3,Pin_3*%
%TO.N,5V*%
X167500000Y-116500000D03*
%TD*%
D16*
%TO.P,D1,1,K*%
%TO.N,Net-(D1-K)*%
X132000000Y-70375000D03*
%TO.P,D1,2,A*%
%TO.N,3.3V_1*%
X132000000Y-72250000D03*
%TD*%
D11*
%TO.P,XT1,1,Pin_1*%
%TO.N,BumpF1_In*%
X107500000Y-116500000D03*
D12*
%TO.P,XT1,2,Pin_2*%
%TO.N,Net-(XT1-Pin_2)*%
X110000000Y-116500000D03*
%TO.P,XT1,3,Pin_3*%
%TO.N,5V*%
X112500000Y-116500000D03*
%TD*%
D13*
%TO.P,XT17,1,Pin_1*%
%TO.N,5V*%
X91250000Y-51975000D03*
D14*
%TO.P,XT17,2,Pin_2*%
%TO.N,Net-(VT2-C)*%
X93750000Y-51975000D03*
%TD*%
D17*
%TO.P,C22,1*%
%TO.N,5V_1*%
X106500000Y-98382323D03*
D18*
%TO.P,C22,2*%
%TO.N,GND*%
X106500000Y-103382323D03*
%TD*%
D11*
%TO.P,XT3,1,Pin_1*%
%TO.N,BumpR1_In*%
X144166667Y-116500000D03*
D12*
%TO.P,XT3,2,Pin_2*%
%TO.N,Net-(XT3-Pin_2)*%
X146666667Y-116500000D03*
%TO.P,XT3,3,Pin_3*%
%TO.N,5V*%
X149166667Y-116500000D03*
%TD*%
D16*
%TO.P,D3,1,K*%
%TO.N,Net-(D3-K)*%
X141750000Y-70375000D03*
%TO.P,D3,2,A*%
%TO.N,5V*%
X141750000Y-72250000D03*
%TD*%
D11*
%TO.P,XT31,1,Pin_1*%
%TO.N,5V*%
X201000000Y-95000000D03*
D12*
%TO.P,XT31,2,Pin_2*%
%TO.N,GNDREF*%
X203500000Y-95000000D03*
%TO.P,XT31,3,Pin_3*%
%TO.N,SCL*%
X206000000Y-95000000D03*
%TO.P,XT31,4,Pin_4*%
%TO.N,SDA*%
X208500000Y-95000000D03*
%TD*%
D17*
%TO.P,C7,1*%
%TO.N,5V*%
X96250000Y-129500000D03*
D18*
%TO.P,C7,2*%
%TO.N,GNDREF*%
X91250000Y-129500000D03*
%TD*%
D11*
%TO.P,XT15,1,Pin_1*%
%TO.N,Lifter UP*%
X144166667Y-138000000D03*
D12*
%TO.P,XT15,2,Pin_2*%
%TO.N,GNDREF*%
X146666667Y-138000000D03*
%TO.P,XT15,3,Pin_3*%
%TO.N,5V*%
X149166667Y-138000000D03*
%TD*%
D11*
%TO.P,XT11,1,Pin_1*%
%TO.N,Net-(XT11-Pin_1)*%
X107500000Y-127250000D03*
D12*
%TO.P,XT11,2,Pin_2*%
%TO.N,GNDREF*%
X110000000Y-127250000D03*
%TO.P,XT11,3,Pin_3*%
%TO.N,5V*%
X112500000Y-127250000D03*
%TD*%
D11*
%TO.P,XT21,1,Pin_1*%
%TO.N,3.3V_1*%
X146250000Y-96475000D03*
D12*
%TO.P,XT21,2,Pin_2*%
%TO.N,SWDIO*%
X148750000Y-96475000D03*
%TO.P,XT21,3,Pin_3*%
%TO.N,SWCLK*%
X151250000Y-96475000D03*
%TO.P,XT21,4,Pin_4*%
%TO.N,GND*%
X153750000Y-96475000D03*
%TD*%
D11*
%TO.P,XT13,1,Pin_1*%
%TO.N,Net-(XT13-Pin_1)*%
X144166667Y-127250000D03*
D12*
%TO.P,XT13,2,Pin_2*%
%TO.N,GNDREF*%
X146666667Y-127250000D03*
%TO.P,XT13,3,Pin_3*%
%TO.N,5V*%
X149166667Y-127250000D03*
%TD*%
D13*
%TO.P,XT5,1,Pin_1*%
%TO.N,5V*%
X107500000Y-73500000D03*
D14*
%TO.P,XT5,2,Pin_2*%
%TO.N,Net-(VT1-C)*%
X110000000Y-73500000D03*
%TD*%
D13*
%TO.P,XT6,1,Pin_1*%
%TO.N,5V*%
X91250000Y-73475000D03*
D14*
%TO.P,XT6,2,Pin_2*%
%TO.N,Net-(VT1-C)*%
X93750000Y-73475000D03*
%TD*%
D11*
%TO.P,XT9,1,Pin_1*%
%TO.N,Net-(XT9-Pin_1)*%
X107500000Y-138000000D03*
D12*
%TO.P,XT9,2,Pin_2*%
%TO.N,GNDREF*%
X110000000Y-138000000D03*
%TO.P,XT9,3,Pin_3*%
%TO.N,5V*%
X112500000Y-138000000D03*
%TD*%
D11*
%TO.P,XT32,1,Pin_1*%
%TO.N,5V*%
X201000000Y-84250000D03*
D12*
%TO.P,XT32,2,Pin_2*%
%TO.N,GNDREF*%
X203500000Y-84250000D03*
%TO.P,XT32,3,Pin_3*%
%TO.N,SCL*%
X206000000Y-84250000D03*
%TO.P,XT32,4,Pin_4*%
%TO.N,SDA*%
X208500000Y-84250000D03*
%TD*%
D13*
%TO.P,XT7,1,Pin_1*%
%TO.N,5V*%
X91250000Y-62725000D03*
D14*
%TO.P,XT7,2,Pin_2*%
%TO.N,Net-(XT7-Pin_2)*%
X93750000Y-62725000D03*
%TD*%
D11*
%TO.P,XT30,1,Pin_1*%
%TO.N,5V*%
X201000000Y-105750000D03*
D12*
%TO.P,XT30,2,Pin_2*%
%TO.N,GNDREF*%
X203500000Y-105750000D03*
%TO.P,XT30,3,Pin_3*%
%TO.N,SCL*%
X206000000Y-105750000D03*
%TO.P,XT30,4,Pin_4*%
%TO.N,SDA*%
X208500000Y-105750000D03*
%TD*%
D11*
%TO.P,XT35,1,Pin_1*%
%TO.N,5V*%
X181500000Y-105750000D03*
D12*
%TO.P,XT35,2,Pin_2*%
%TO.N,GNDREF*%
X184000000Y-105750000D03*
%TO.P,XT35,3,Pin_3*%
%TO.N,SCL*%
X186500000Y-105750000D03*
%TO.P,XT35,4,Pin_4*%
%TO.N,SDA*%
X189000000Y-105750000D03*
%TD*%
D13*
%TO.P,XT19,1,Pin_1*%
%TO.N,GND*%
X91250000Y-100750000D03*
D14*
%TO.P,XT19,2,Pin_2*%
%TO.N,5V_1*%
X93750000Y-100750000D03*
%TD*%
D13*
%TO.P,XT24,1,Pin_1*%
%TO.N,Can_L*%
X91250000Y-85000000D03*
D14*
%TO.P,XT24,2,Pin_2*%
%TO.N,Can_H*%
X93750000Y-85000000D03*
%TD*%
D11*
%TO.P,XT10,1,Pin_1*%
%TO.N,Net-(XT10-Pin_1)*%
X162500000Y-138000000D03*
D12*
%TO.P,XT10,2,Pin_2*%
%TO.N,GNDREF*%
X165000000Y-138000000D03*
%TO.P,XT10,3,Pin_3*%
%TO.N,5V*%
X167500000Y-138000000D03*
%TD*%
D11*
%TO.P,XT29,1,Pin_1*%
%TO.N,5V*%
X201000000Y-116500000D03*
D12*
%TO.P,XT29,2,Pin_2*%
%TO.N,GNDREF*%
X203500000Y-116500000D03*
%TO.P,XT29,3,Pin_3*%
%TO.N,SCL*%
X206000000Y-116500000D03*
%TO.P,XT29,4,Pin_4*%
%TO.N,SDA*%
X208500000Y-116500000D03*
%TD*%
D11*
%TO.P,XT36,1,Pin_1*%
%TO.N,5V*%
X181500000Y-116500000D03*
D12*
%TO.P,XT36,2,Pin_2*%
%TO.N,GNDREF*%
X184000000Y-116500000D03*
%TO.P,XT36,3,Pin_3*%
%TO.N,SCL*%
X186500000Y-116500000D03*
%TO.P,XT36,4,Pin_4*%
%TO.N,SDA*%
X189000000Y-116500000D03*
%TD*%
D11*
%TO.P,XT37,1,Pin_1*%
%TO.N,5V*%
X181500000Y-84250000D03*
D12*
%TO.P,XT37,2,Pin_2*%
%TO.N,GNDREF*%
X184000000Y-84250000D03*
%TO.P,XT37,3,Pin_3*%
%TO.N,SCL*%
X186500000Y-84250000D03*
%TO.P,XT37,4,Pin_4*%
%TO.N,SDA*%
X189000000Y-84250000D03*
%TD*%
D13*
%TO.P,XT20,1,Pin_1*%
%TO.N,GNDREF*%
X91250000Y-116500000D03*
D14*
%TO.P,XT20,2,Pin_2*%
%TO.N,5V*%
X93750000Y-116500000D03*
%TD*%
D19*
%TO.N,Lora_Gpio*%
X185000000Y-64500000D03*
X123730000Y-71230000D03*
%TO.N,Lora_M1*%
X174750000Y-67670000D03*
%TO.N,GNDREF*%
X118250000Y-65000000D03*
X118250000Y-73770000D03*
%TO.N,5V*%
X173750000Y-95000000D03*
X100750000Y-80250000D03*
X172500000Y-62000000D03*
X135500000Y-111250000D03*
X153000000Y-111250000D03*
X157750000Y-58250000D03*
X172500000Y-74250000D03*
%TO.N,GND*%
X146975000Y-76775000D03*
X116750000Y-82000000D03*
X161750000Y-98710000D03*
X128250000Y-74750000D03*
X155750000Y-73250000D03*
X107000000Y-86000000D03*
X126800000Y-82000000D03*
X153750000Y-102250000D03*
X134500000Y-74750000D03*
%TO.N,3.3V_1*%
X146500000Y-71250000D03*
X155750000Y-90250000D03*
X125000000Y-97000000D03*
X122500000Y-99000000D03*
X125000000Y-96000000D03*
X122500000Y-100000000D03*
X163500000Y-72750000D03*
X121250000Y-97000000D03*
X121250000Y-96000000D03*
X122500000Y-97000000D03*
X123750000Y-96000000D03*
X122500000Y-98000000D03*
X123750000Y-98000000D03*
X158500000Y-66500000D03*
X125250000Y-80000000D03*
X121250000Y-98000000D03*
X134500000Y-102250000D03*
X149000000Y-90250000D03*
X122500000Y-96000000D03*
X152750000Y-107750000D03*
X136000000Y-90750000D03*
X123750000Y-97000000D03*
X121250000Y-99000000D03*
X140250000Y-76250000D03*
X121250000Y-100000000D03*
%TO.N,Net-(D1-K)*%
X134500000Y-70400000D03*
%TO.N,Net-(D2-K)*%
X139000000Y-70400000D03*
%TO.N,Boot0_*%
X139250000Y-88750000D03*
X154250000Y-72250000D03*
%TO.N,Esp32 RX*%
X179625000Y-60125000D03*
%TO.N,Esp32 TX_*%
X164250000Y-70210000D03*
X162000000Y-83500000D03*
%TO.N,Esp32 RX_*%
X164250000Y-65130000D03*
X159750000Y-85750000D03*
%TO.N,DI RS485*%
X150500000Y-71750000D03*
X137287500Y-81825000D03*
%TO.N,RO RS485*%
X136500000Y-79750000D03*
X155250000Y-67750000D03*
%TO.N,Can TX_*%
X114000000Y-84250000D03*
X134500000Y-95000000D03*
%TO.N,Can RX_*%
X114000000Y-82750000D03*
X138000000Y-95000000D03*
%TO.N,Pallet3_*%
X144095000Y-100000000D03*
X140250000Y-88750000D03*
%TO.N,Net-(D3-K)*%
X141750000Y-63000000D03*
%TO.N,Lifter UP_*%
X142825000Y-100000000D03*
X137325000Y-88825000D03*
%TO.N,SDA_*%
X143250000Y-83000000D03*
X163500000Y-93635000D03*
%TO.N,SCL_*%
X163500000Y-92365000D03*
X143250000Y-81750000D03*
%TO.N,Reset_*%
X137325000Y-86325000D03*
X151500000Y-73500000D03*
%TO.N,Lora_M0*%
X174750000Y-68940000D03*
%TO.N,Lora_RX*%
X174750000Y-66400000D03*
%TO.N,Led*%
X134500000Y-76500000D03*
%TO.N,SWCLK*%
X146500000Y-93250000D03*
%TO.N,Vbat*%
X133750000Y-89280331D03*
%TO.N,Net-(U3-GND)*%
X129450000Y-57750000D03*
X124500000Y-57750000D03*
%TD*%
D20*
%TO.N,Lora_Gpio*%
X178500000Y-64500000D02*
X185000000Y-64500000D01*
X170750000Y-56750000D02*
X178500000Y-64500000D01*
X135250000Y-56750000D02*
X170750000Y-56750000D01*
X123730000Y-68270000D02*
X135250000Y-56750000D01*
X123730000Y-71230000D02*
X123730000Y-68270000D01*
%TO.N,Esp32 RX*%
X183750000Y-56000000D02*
X183750000Y-52000000D01*
X179625000Y-60125000D02*
X183750000Y-56000000D01*
%TO.N,GND*%
X128250000Y-74750000D02*
X134500000Y-74750000D01*
%TO.N,Lora_M1*%
X196000000Y-66250000D02*
X196000000Y-64500000D01*
X194580000Y-67670000D02*
X196000000Y-66250000D01*
X174750000Y-67670000D02*
X194580000Y-67670000D01*
%TO.N,Lora_M0*%
X198500000Y-67250000D02*
X198500000Y-64500000D01*
X196810000Y-68940000D02*
X198500000Y-67250000D01*
X174750000Y-68940000D02*
X196810000Y-68940000D01*
%TO.N,3.3V_1*%
X158500000Y-67750000D02*
X158500000Y-66500000D01*
X163500000Y-72750000D02*
X158500000Y-67750000D01*
D21*
%TO.N,Esp32 TX_*%
X164500000Y-81000000D02*
X162000000Y-83500000D01*
X164500000Y-71210000D02*
X164500000Y-81000000D01*
X164250000Y-70960000D02*
X164500000Y-71210000D01*
X164250000Y-70210000D02*
X164250000Y-70960000D01*
%TO.N,Esp32 RX_*%
X165500000Y-83000000D02*
X162750000Y-85750000D01*
X162750000Y-85750000D02*
X159750000Y-85750000D01*
X165500000Y-66380000D02*
X165500000Y-83000000D01*
X164250000Y-65130000D02*
X165500000Y-66380000D01*
D20*
%TO.N,Lora_RX*%
X203500000Y-62750000D02*
X203500000Y-64500000D01*
X191500000Y-60500000D02*
X201250000Y-60500000D01*
X174750000Y-66400000D02*
X185600000Y-66400000D01*
X185600000Y-66400000D02*
X191500000Y-60500000D01*
X201250000Y-60500000D02*
X203500000Y-62750000D01*
D22*
%TO.N,GNDREF*%
X184000000Y-127250000D02*
X184000000Y-84250000D01*
X128333333Y-138000000D02*
X128333333Y-127250000D01*
D20*
X118250000Y-73770000D02*
X118250000Y-65000000D01*
D22*
X165000000Y-127250000D02*
X165000000Y-138000000D01*
X146666667Y-138000000D02*
X146666667Y-127250000D01*
X110000000Y-127250000D02*
X110000000Y-138000000D01*
X203500000Y-84250000D02*
X203500000Y-127250000D01*
X206000000Y-64500000D02*
X206000000Y-52000000D01*
%TO.N,5V*%
X130833333Y-142416667D02*
X130750000Y-142500000D01*
X130833333Y-116500000D02*
X130833333Y-142416667D01*
X149166667Y-116500000D02*
X149166667Y-142416667D01*
X93750000Y-111250000D02*
X88250000Y-105750000D01*
X172500000Y-93750000D02*
X172500000Y-74250000D01*
X149250000Y-142500000D02*
X130750000Y-142500000D01*
X208500000Y-71000000D02*
X201000000Y-78500000D01*
X208500000Y-64500000D02*
X208500000Y-71000000D01*
X172500000Y-74250000D02*
X172500000Y-62000000D01*
X201000000Y-84250000D02*
X201000000Y-140500000D01*
X167500000Y-142500000D02*
X149250000Y-142500000D01*
X167500000Y-116500000D02*
X167500000Y-142500000D01*
X181500000Y-142500000D02*
X167500000Y-142500000D01*
X181500000Y-142500000D02*
X181500000Y-84250000D01*
X149166667Y-142416667D02*
X149250000Y-142500000D01*
X96250000Y-140500000D02*
X96250000Y-129500000D01*
X107500000Y-73500000D02*
X107500000Y-55250000D01*
X112500000Y-116500000D02*
X112500000Y-142500000D01*
X201000000Y-140500000D02*
X199000000Y-142500000D01*
X91250000Y-73475000D02*
X91250000Y-55250000D01*
X93750000Y-116500000D02*
X93750000Y-111250000D01*
X199000000Y-142500000D02*
X181500000Y-142500000D01*
X149166667Y-111333333D02*
X149166667Y-116500000D01*
D20*
X143750000Y-72250000D02*
X157750000Y-58250000D01*
D22*
X107500000Y-73500000D02*
X100750000Y-80250000D01*
X96250000Y-119000000D02*
X93750000Y-116500000D01*
X173750000Y-95000000D02*
X172500000Y-93750000D01*
X201000000Y-78500000D02*
X201000000Y-84250000D01*
X91250000Y-55250000D02*
X91250000Y-51975000D01*
X91250000Y-55250000D02*
X107500000Y-55250000D01*
X88250000Y-76475000D02*
X91250000Y-73475000D01*
X107500000Y-55250000D02*
X107500000Y-52000000D01*
X153000000Y-111250000D02*
X135500000Y-111250000D01*
X98250000Y-142500000D02*
X96250000Y-140500000D01*
X96250000Y-129500000D02*
X96250000Y-119000000D01*
X130750000Y-142500000D02*
X98250000Y-142500000D01*
D20*
X141750000Y-72250000D02*
X143750000Y-72250000D01*
D22*
X88250000Y-105750000D02*
X88250000Y-76475000D01*
X181500000Y-95000000D02*
X173750000Y-95000000D01*
D20*
%TO.N,GND*%
X154750000Y-73250000D02*
X152000000Y-76000000D01*
X107000000Y-86000000D02*
X107000000Y-89250000D01*
X153750000Y-102250000D02*
X153750000Y-96475000D01*
X161750000Y-98710000D02*
X161710000Y-98750000D01*
X152000000Y-76000000D02*
X147750000Y-76000000D01*
X161710000Y-98750000D02*
X153750000Y-98750000D01*
X116750000Y-82000000D02*
X126800000Y-82000000D01*
X147750000Y-76000000D02*
X146975000Y-76775000D01*
X155750000Y-73250000D02*
X154750000Y-73250000D01*
%TO.N,3.3V_1*%
X149000000Y-90250000D02*
X147500000Y-90250000D01*
D22*
X152000000Y-105250000D02*
X150250000Y-105250000D01*
X125000000Y-105000000D02*
X125250000Y-105250000D01*
X121250000Y-101250000D02*
X125000000Y-105000000D01*
X134750000Y-105250000D02*
X150250000Y-105250000D01*
X125250000Y-105250000D02*
X134750000Y-105250000D01*
D20*
X150250000Y-102250000D02*
X150250000Y-104000000D01*
X137750000Y-76250000D02*
X140250000Y-76250000D01*
X158500000Y-66500000D02*
X151250000Y-66500000D01*
X125250000Y-80000000D02*
X125250000Y-74750000D01*
D22*
X152750000Y-106000000D02*
X152000000Y-105250000D01*
D20*
X134500000Y-105000000D02*
X134750000Y-105250000D01*
X136000000Y-90750000D02*
X135500000Y-90250000D01*
X127750000Y-72250000D02*
X132000000Y-72250000D01*
X140250000Y-76250000D02*
X141500000Y-76250000D01*
D22*
X152750000Y-107750000D02*
X152750000Y-106000000D01*
D20*
X150250000Y-104000000D02*
X150250000Y-105250000D01*
X146250000Y-94750000D02*
X146250000Y-98250000D01*
X125250000Y-74750000D02*
X127750000Y-72250000D01*
X155750000Y-90250000D02*
X149000000Y-90250000D01*
X134500000Y-102250000D02*
X134500000Y-105000000D01*
X145500000Y-92250000D02*
X145500000Y-94000000D01*
X125250000Y-80000000D02*
X135500000Y-80000000D01*
X135500000Y-90250000D02*
X135500000Y-80000000D01*
D22*
X121250000Y-99000000D02*
X121250000Y-100000000D01*
X121250000Y-100000000D02*
X121250000Y-101250000D01*
D20*
X151250000Y-66500000D02*
X146500000Y-71250000D01*
X141500000Y-76250000D02*
X146500000Y-71250000D01*
X145500000Y-94000000D02*
X146250000Y-94750000D01*
X146250000Y-98250000D02*
X150250000Y-102250000D01*
X135500000Y-78500000D02*
X137750000Y-76250000D01*
D22*
X121250000Y-98000000D02*
X121250000Y-99000000D01*
D20*
X135500000Y-80000000D02*
X135500000Y-78500000D01*
X147500000Y-90250000D02*
X145500000Y-92250000D01*
%TO.N,Net-(D1-K)*%
X132000000Y-70375000D02*
X134475000Y-70375000D01*
X134475000Y-70375000D02*
X134500000Y-70400000D01*
%TO.N,Net-(D2-K)*%
X137000000Y-70375000D02*
X137025000Y-70400000D01*
X137025000Y-70400000D02*
X139000000Y-70400000D01*
D21*
%TO.N,Boot0_*%
X147250000Y-75000000D02*
X139750000Y-82500000D01*
X139750000Y-82500000D02*
X139750000Y-86000000D01*
X154250000Y-72250000D02*
X154000000Y-72250000D01*
X154000000Y-72250000D02*
X151250000Y-75000000D01*
X151250000Y-75000000D02*
X147250000Y-75000000D01*
X139250000Y-86500000D02*
X139250000Y-88750000D01*
X139750000Y-86000000D02*
X139250000Y-86500000D01*
%TO.N,DI RS485*%
X138425000Y-81825000D02*
X148500000Y-71750000D01*
X137287500Y-81825000D02*
X138425000Y-81825000D01*
X148500000Y-71750000D02*
X150500000Y-71750000D01*
%TO.N,RO RS485*%
X136500000Y-79750000D02*
X139500000Y-79750000D01*
X151500000Y-67750000D02*
X155250000Y-67750000D01*
X139500000Y-79750000D02*
X151500000Y-67750000D01*
%TO.N,Can TX_*%
X133500000Y-94000000D02*
X121250000Y-94000000D01*
X134500000Y-95000000D02*
X133500000Y-94000000D01*
X114000000Y-86750000D02*
X114000000Y-84250000D01*
X121250000Y-94000000D02*
X114000000Y-86750000D01*
%TO.N,Can RX_*%
X114750000Y-82750000D02*
X114000000Y-82750000D01*
X138000000Y-95000000D02*
X136000000Y-93000000D01*
X115500000Y-83500000D02*
X114750000Y-82750000D01*
X115500000Y-86750000D02*
X115500000Y-83500000D01*
X121750000Y-93000000D02*
X115500000Y-86750000D01*
X136000000Y-93000000D02*
X121750000Y-93000000D01*
%TO.N,Pallet3_*%
X140250000Y-90500000D02*
X140250000Y-88750000D01*
X144000000Y-100000000D02*
X141000000Y-97000000D01*
X141000000Y-91250000D02*
X140250000Y-90500000D01*
X141000000Y-97000000D02*
X141000000Y-91250000D01*
D20*
%TO.N,Net-(D3-K)*%
X141750000Y-63000000D02*
X141750000Y-70375000D01*
D21*
%TO.N,Lifter UP_*%
X137500000Y-88825000D02*
X137325000Y-88825000D01*
X142750000Y-100044412D02*
X142750000Y-100000000D01*
X140250000Y-91750000D02*
X137325000Y-88825000D01*
X140250000Y-97500000D02*
X140250000Y-91750000D01*
X142750000Y-100000000D02*
X140250000Y-97500000D01*
%TO.N,SDA_*%
X152250000Y-83000000D02*
X162885000Y-93635000D01*
X162885000Y-93635000D02*
X163500000Y-93635000D01*
X143250000Y-83000000D02*
X152250000Y-83000000D01*
%TO.N,SCL_*%
X163365000Y-92365000D02*
X163500000Y-92365000D01*
X143250000Y-81750000D02*
X152750000Y-81750000D01*
X152750000Y-81750000D02*
X163365000Y-92365000D01*
D22*
%TO.N,SDA*%
X189000000Y-84250000D02*
X189000000Y-127250000D01*
X208500000Y-84250000D02*
X208500000Y-127250000D01*
%TO.N,SCL*%
X186500000Y-84250000D02*
X186500000Y-127250000D01*
X206000000Y-84250000D02*
X206000000Y-127250000D01*
D21*
%TO.N,Reset_*%
X151000000Y-74000000D02*
X147250000Y-74000000D01*
X151500000Y-73500000D02*
X151000000Y-74000000D01*
X138175000Y-86325000D02*
X137325000Y-86325000D01*
X139000000Y-85500000D02*
X138175000Y-86325000D01*
X147250000Y-74000000D02*
X139000000Y-82250000D01*
X139000000Y-82250000D02*
X139000000Y-85500000D01*
%TO.N,Led*%
X134500000Y-76500000D02*
X137000000Y-74000000D01*
X137000000Y-74000000D02*
X137000000Y-72250000D01*
%TO.N,SWCLK*%
X149000000Y-93250000D02*
X151250000Y-95500000D01*
X146500000Y-93250000D02*
X149000000Y-93250000D01*
X151250000Y-95500000D02*
X151250000Y-96475000D01*
D20*
%TO.N,Vbat*%
X133500000Y-89250000D02*
X127000000Y-89250000D01*
D21*
X133750000Y-89280331D02*
X133530331Y-89280331D01*
X133530331Y-89280331D02*
X133500000Y-89250000D01*
D20*
%TO.N,Net-(U3-GND)*%
X129450000Y-57750000D02*
X124500000Y-57750000D01*
%TD*%
D23*
X221600000Y-50000000D02*
G75*
G02*
X218400000Y-50000000I-1600000J0D01*
G01*
X218400000Y-50000000D02*
G75*
G02*
X221600000Y-50000000I1600000J0D01*
G01*
X81600000Y-50000000D02*
G75*
G02*
X78400000Y-50000000I-1600000J0D01*
G01*
X78400000Y-50000000D02*
G75*
G02*
X81600000Y-50000000I1600000J0D01*
G01*
X221600000Y-140000000D02*
G75*
G02*
X218400000Y-140000000I-1600000J0D01*
G01*
X218400000Y-140000000D02*
G75*
G02*
X221600000Y-140000000I1600000J0D01*
G01*
X81600000Y-140000000D02*
G75*
G02*
X78400000Y-140000000I-1600000J0D01*
G01*
X78400000Y-140000000D02*
G75*
G02*
X81600000Y-140000000I1600000J0D01*
G01*
X75000000Y-45000000D02*
X225000000Y-45000000D01*
X225000000Y-145000000D01*
X75000000Y-145000000D01*
X75000000Y-45000000D01*
D24*
%TO.C,BT1*%
X114050000Y-89250000D02*
G75*
G02*
X112750000Y-89250000I-650000J0D01*
G01*
X112750000Y-89250000D02*
G75*
G02*
X114050000Y-89250000I650000J0D01*
G01*
X121550000Y-89250000D02*
G75*
G02*
X120250000Y-89250000I-650000J0D01*
G01*
X120250000Y-89250000D02*
G75*
G02*
X121550000Y-89250000I650000J0D01*
G01*
%TD*%
M02*
