M48
; DRILL file {KiCad 9.0.0} date 2026-04-13T14:23:41+0300
; FORMAT={-:-/ absolute / inch / decimal}
; #@! TF.CreationDate,2026-04-13T14:23:41+03:00
; #@! TF.GenerationSoftware,Kicad,Pcbnew,9.0.0
; #@! TF.FileFunction,Plated,1,2,PTH
FMAT,2
INCH
; #@! TA.AperFunction,Plated,PTH,ViaDrill
T1C0.0157
; #@! TA.AperFunction,Plated,PTH,ComponentDrill
T2C0.0374
; #@! TA.AperFunction,Plated,PTH,ComponentDrill
T3C0.0394
%
G90
G05
T1
X3.9665Y-3.1594
X4.2126Y-3.3858
X4.4882Y-3.2579
X4.4882Y-3.3169
X4.5965Y-3.2283
X4.6555Y-2.5591
X4.6555Y-2.9043
X4.7736Y-3.7795
X4.7736Y-3.8189
X4.7736Y-3.8583
X4.7736Y-3.8976
X4.7736Y-3.937
X4.8228Y-3.7795
X4.8228Y-3.8189
X4.8228Y-3.8583
X4.8228Y-3.8976
X4.8228Y-3.937
X4.8713Y-2.8043
X4.872Y-3.7795
X4.872Y-3.8189
X4.872Y-3.8583
X4.9016Y-2.2736
X4.9213Y-3.7795
X4.9213Y-3.8189
X4.9311Y-3.1496
X4.9921Y-3.2283
X5.0492Y-2.9429
X5.0965Y-2.2736
X5.2657Y-3.515
X5.2953Y-2.7717
X5.2953Y-2.9429
X5.2953Y-3.0118
X5.2953Y-3.7402
X5.2953Y-4.0256
X5.3346Y-4.3799
X5.3543Y-3.5728
X5.374Y-3.1398
X5.405Y-3.2215
X5.4065Y-3.3986
X5.4065Y-3.497
X5.4331Y-3.7402
X5.4724Y-2.7717
X5.4823Y-3.4941
X5.5217Y-3.002
X5.5217Y-3.4941
X5.5807Y-2.4803
X5.623Y-3.937
X5.6398Y-3.2185
X5.6398Y-3.2677
X5.673Y-3.937
X5.7677Y-2.8051
X5.7677Y-3.6713
X5.7864Y-3.0226
X5.8661Y-3.5531
X5.9252Y-2.8248
X5.9646Y-2.8937
X6.0138Y-4.2421
X6.0236Y-4.3799
X6.0531Y-4.0256
X6.0728Y-2.8445
X6.1122Y-2.6673
X6.1319Y-2.8839
X6.1319Y-3.5531
X6.2106Y-2.2933
X6.2402Y-2.6181
X6.2894Y-3.376
X6.3681Y-3.8862
X6.378Y-3.2874
X6.437Y-2.8642
X6.437Y-3.6364
X6.437Y-3.6864
X6.4665Y-2.5642
X6.4665Y-2.7642
X6.7913Y-2.4409
X6.7913Y-2.9232
X6.8406Y-3.7402
X6.8799Y-2.6142
X6.8799Y-2.6642
X6.8799Y-2.7142
X7.0719Y-2.3671
X7.2835Y-2.5394
T2
X4.2323Y-4.5866
X4.2323Y-5.0098
X4.2323Y-5.4331
X4.3307Y-4.5866
X4.3307Y-5.0098
X4.3307Y-5.4331
X4.4291Y-4.5866
X4.4291Y-5.0098
X4.4291Y-5.4331
X4.9541Y-4.5866
X4.9541Y-5.0098
X4.9541Y-5.4331
X5.0525Y-4.5866
X5.0525Y-5.0098
X5.0525Y-5.4331
X5.1509Y-4.5866
X5.1509Y-5.0098
X5.1509Y-5.4331
X5.6759Y-4.5866
X5.6759Y-5.0098
X5.6759Y-5.4331
X5.7579Y-3.7982
X5.7743Y-4.5866
X5.7743Y-5.0098
X5.7743Y-5.4331
X5.8563Y-3.7982
X5.8727Y-4.5866
X5.8727Y-5.0098
X5.8727Y-5.4331
X5.9547Y-3.7982
X6.0531Y-3.7982
X6.3976Y-4.5866
X6.3976Y-5.0098
X6.3976Y-5.4331
X6.4961Y-4.5866
X6.4961Y-5.0098
X6.4961Y-5.4331
X6.5945Y-4.5866
X6.5945Y-5.0098
X6.5945Y-5.4331
X6.939Y-2.0472
X7.0374Y-2.0472
X7.1358Y-2.0472
X7.1457Y-3.3169
X7.1457Y-3.7402
X7.1457Y-4.1634
X7.1457Y-4.5866
X7.1457Y-5.0098
X7.2343Y-2.0472
X7.2441Y-3.3169
X7.2441Y-3.7402
X7.2441Y-4.1634
X7.2441Y-4.5866
X7.2441Y-5.0098
X7.3327Y-2.0472
X7.3425Y-3.3169
X7.3425Y-3.7402
X7.3425Y-4.1634
X7.3425Y-4.5866
X7.3425Y-5.0098
X7.4311Y-2.0472
X7.4409Y-3.3169
X7.4409Y-3.7402
X7.4409Y-4.1634
X7.4409Y-4.5866
X7.4409Y-5.0098
X7.6181Y-2.5394
X7.7165Y-2.5394
X7.815Y-2.5394
X7.9134Y-2.0472
X7.9134Y-2.5394
X7.9134Y-3.3169
X7.9134Y-3.7402
X7.9134Y-4.1634
X7.9134Y-4.5866
X7.9134Y-5.0098
X8.0118Y-2.0472
X8.0118Y-2.5394
X8.0118Y-3.3169
X8.0118Y-3.7402
X8.0118Y-4.1634
X8.0118Y-4.5866
X8.0118Y-5.0098
X8.1102Y-2.0472
X8.1102Y-2.5394
X8.1102Y-3.3169
X8.1102Y-3.7402
X8.1102Y-4.1634
X8.1102Y-4.5866
X8.1102Y-5.0098
X8.2087Y-2.0472
X8.2087Y-2.5394
X8.2087Y-3.3169
X8.2087Y-3.7402
X8.2087Y-4.1634
X8.2087Y-4.5866
X8.2087Y-5.0098
T3
X3.5925Y-2.0463
X3.5925Y-2.4695
X3.5925Y-2.8927
X3.5925Y-3.3465
X3.5925Y-3.9665
X3.5925Y-4.5866
X3.5925Y-5.0984
X3.6909Y-2.0463
X3.6909Y-2.4695
X3.6909Y-2.8927
X3.6909Y-3.3465
X3.6909Y-3.9665
X3.6909Y-4.5866
X3.7894Y-5.0984
X4.1929Y-3.8733
X4.1929Y-4.0702
X4.2323Y-2.0472
X4.2323Y-2.4705
X4.2323Y-2.8937
X4.3307Y-2.0472
X4.3307Y-2.4705
X4.3307Y-2.8937
X5.2362Y-2.0472
X5.3346Y-2.0472
X5.9892Y-2.0472
X6.0876Y-2.0472
M30
