%TF.GenerationSoftware,KiCad,Pcbnew,9.0.0*%
%TF.CreationDate,2026-04-13T14:23:43+03:00*%
%TF.ProjectId,ControllerV6,436f6e74-726f-46c6-9c65-7256362e6b69,rev?*%
%TF.SameCoordinates,Original*%
%TF.FileFunction,Legend,Bot*%
%TF.FilePolarity,Positive*%
%FSLAX46Y46*%
G04 Gerber Fmt 4.6, Leading zero omitted, Abs format (unit mm)*
G04 Created by KiCad (PCBNEW 9.0.0) date 2026-04-13 14:23:43*
%MOMM*%
%LPD*%
G01*
G04 APERTURE LIST*
%ADD10C,0.150000*%
%ADD11C,0.120000*%
%TA.AperFunction,Profile*%
%ADD12C,0.100000*%
%TD*%
%TA.AperFunction,Profile*%
%ADD13C,0.050000*%
%TD*%
G04 APERTURE END LIST*
D10*
X185642857Y-93704819D02*
X185976190Y-93228628D01*
X186214285Y-93704819D02*
X186214285Y-92704819D01*
X186214285Y-92704819D02*
X185833333Y-92704819D01*
X185833333Y-92704819D02*
X185738095Y-92752438D01*
X185738095Y-92752438D02*
X185690476Y-92800057D01*
X185690476Y-92800057D02*
X185642857Y-92895295D01*
X185642857Y-92895295D02*
X185642857Y-93038152D01*
X185642857Y-93038152D02*
X185690476Y-93133390D01*
X185690476Y-93133390D02*
X185738095Y-93181009D01*
X185738095Y-93181009D02*
X185833333Y-93228628D01*
X185833333Y-93228628D02*
X186214285Y-93228628D01*
X184738095Y-92704819D02*
X185214285Y-92704819D01*
X185214285Y-92704819D02*
X185261904Y-93181009D01*
X185261904Y-93181009D02*
X185214285Y-93133390D01*
X185214285Y-93133390D02*
X185119047Y-93085771D01*
X185119047Y-93085771D02*
X184880952Y-93085771D01*
X184880952Y-93085771D02*
X184785714Y-93133390D01*
X184785714Y-93133390D02*
X184738095Y-93181009D01*
X184738095Y-93181009D02*
X184690476Y-93276247D01*
X184690476Y-93276247D02*
X184690476Y-93514342D01*
X184690476Y-93514342D02*
X184738095Y-93609580D01*
X184738095Y-93609580D02*
X184785714Y-93657200D01*
X184785714Y-93657200D02*
X184880952Y-93704819D01*
X184880952Y-93704819D02*
X185119047Y-93704819D01*
X185119047Y-93704819D02*
X185214285Y-93657200D01*
X185214285Y-93657200D02*
X185261904Y-93609580D01*
X184071428Y-92704819D02*
X183976190Y-92704819D01*
X183976190Y-92704819D02*
X183880952Y-92752438D01*
X183880952Y-92752438D02*
X183833333Y-92800057D01*
X183833333Y-92800057D02*
X183785714Y-92895295D01*
X183785714Y-92895295D02*
X183738095Y-93085771D01*
X183738095Y-93085771D02*
X183738095Y-93323866D01*
X183738095Y-93323866D02*
X183785714Y-93514342D01*
X183785714Y-93514342D02*
X183833333Y-93609580D01*
X183833333Y-93609580D02*
X183880952Y-93657200D01*
X183880952Y-93657200D02*
X183976190Y-93704819D01*
X183976190Y-93704819D02*
X184071428Y-93704819D01*
X184071428Y-93704819D02*
X184166666Y-93657200D01*
X184166666Y-93657200D02*
X184214285Y-93609580D01*
X184214285Y-93609580D02*
X184261904Y-93514342D01*
X184261904Y-93514342D02*
X184309523Y-93323866D01*
X184309523Y-93323866D02*
X184309523Y-93085771D01*
X184309523Y-93085771D02*
X184261904Y-92895295D01*
X184261904Y-92895295D02*
X184214285Y-92800057D01*
X184214285Y-92800057D02*
X184166666Y-92752438D01*
X184166666Y-92752438D02*
X184071428Y-92704819D01*
X130666666Y-120454819D02*
X130999999Y-119978628D01*
X131238094Y-120454819D02*
X131238094Y-119454819D01*
X131238094Y-119454819D02*
X130857142Y-119454819D01*
X130857142Y-119454819D02*
X130761904Y-119502438D01*
X130761904Y-119502438D02*
X130714285Y-119550057D01*
X130714285Y-119550057D02*
X130666666Y-119645295D01*
X130666666Y-119645295D02*
X130666666Y-119788152D01*
X130666666Y-119788152D02*
X130714285Y-119883390D01*
X130714285Y-119883390D02*
X130761904Y-119931009D01*
X130761904Y-119931009D02*
X130857142Y-119978628D01*
X130857142Y-119978628D02*
X131238094Y-119978628D01*
X130285713Y-119550057D02*
X130238094Y-119502438D01*
X130238094Y-119502438D02*
X130142856Y-119454819D01*
X130142856Y-119454819D02*
X129904761Y-119454819D01*
X129904761Y-119454819D02*
X129809523Y-119502438D01*
X129809523Y-119502438D02*
X129761904Y-119550057D01*
X129761904Y-119550057D02*
X129714285Y-119645295D01*
X129714285Y-119645295D02*
X129714285Y-119740533D01*
X129714285Y-119740533D02*
X129761904Y-119883390D01*
X129761904Y-119883390D02*
X130333332Y-120454819D01*
X130333332Y-120454819D02*
X129714285Y-120454819D01*
X142261904Y-92429819D02*
X142261904Y-93239342D01*
X142261904Y-93239342D02*
X142214285Y-93334580D01*
X142214285Y-93334580D02*
X142166666Y-93382200D01*
X142166666Y-93382200D02*
X142071428Y-93429819D01*
X142071428Y-93429819D02*
X141880952Y-93429819D01*
X141880952Y-93429819D02*
X141785714Y-93382200D01*
X141785714Y-93382200D02*
X141738095Y-93334580D01*
X141738095Y-93334580D02*
X141690476Y-93239342D01*
X141690476Y-93239342D02*
X141690476Y-92429819D01*
X141261904Y-92525057D02*
X141214285Y-92477438D01*
X141214285Y-92477438D02*
X141119047Y-92429819D01*
X141119047Y-92429819D02*
X140880952Y-92429819D01*
X140880952Y-92429819D02*
X140785714Y-92477438D01*
X140785714Y-92477438D02*
X140738095Y-92525057D01*
X140738095Y-92525057D02*
X140690476Y-92620295D01*
X140690476Y-92620295D02*
X140690476Y-92715533D01*
X140690476Y-92715533D02*
X140738095Y-92858390D01*
X140738095Y-92858390D02*
X141309523Y-93429819D01*
X141309523Y-93429819D02*
X140690476Y-93429819D01*
X124142857Y-55054819D02*
X124476190Y-54578628D01*
X124714285Y-55054819D02*
X124714285Y-54054819D01*
X124714285Y-54054819D02*
X124333333Y-54054819D01*
X124333333Y-54054819D02*
X124238095Y-54102438D01*
X124238095Y-54102438D02*
X124190476Y-54150057D01*
X124190476Y-54150057D02*
X124142857Y-54245295D01*
X124142857Y-54245295D02*
X124142857Y-54388152D01*
X124142857Y-54388152D02*
X124190476Y-54483390D01*
X124190476Y-54483390D02*
X124238095Y-54531009D01*
X124238095Y-54531009D02*
X124333333Y-54578628D01*
X124333333Y-54578628D02*
X124714285Y-54578628D01*
X123285714Y-54388152D02*
X123285714Y-55054819D01*
X123523809Y-54007200D02*
X123761904Y-54721485D01*
X123761904Y-54721485D02*
X123142857Y-54721485D01*
X122333333Y-54388152D02*
X122333333Y-55054819D01*
X122571428Y-54007200D02*
X122809523Y-54721485D01*
X122809523Y-54721485D02*
X122190476Y-54721485D01*
X127976190Y-81978628D02*
X127976190Y-82454819D01*
X128309523Y-81454819D02*
X127976190Y-81978628D01*
X127976190Y-81978628D02*
X127642857Y-81454819D01*
X126785714Y-82454819D02*
X127357142Y-82454819D01*
X127071428Y-82454819D02*
X127071428Y-81454819D01*
X127071428Y-81454819D02*
X127166666Y-81597676D01*
X127166666Y-81597676D02*
X127261904Y-81692914D01*
X127261904Y-81692914D02*
X127357142Y-81740533D01*
X148916666Y-120454819D02*
X149249999Y-119978628D01*
X149488094Y-120454819D02*
X149488094Y-119454819D01*
X149488094Y-119454819D02*
X149107142Y-119454819D01*
X149107142Y-119454819D02*
X149011904Y-119502438D01*
X149011904Y-119502438D02*
X148964285Y-119550057D01*
X148964285Y-119550057D02*
X148916666Y-119645295D01*
X148916666Y-119645295D02*
X148916666Y-119788152D01*
X148916666Y-119788152D02*
X148964285Y-119883390D01*
X148964285Y-119883390D02*
X149011904Y-119931009D01*
X149011904Y-119931009D02*
X149107142Y-119978628D01*
X149107142Y-119978628D02*
X149488094Y-119978628D01*
X148583332Y-119454819D02*
X147964285Y-119454819D01*
X147964285Y-119454819D02*
X148297618Y-119835771D01*
X148297618Y-119835771D02*
X148154761Y-119835771D01*
X148154761Y-119835771D02*
X148059523Y-119883390D01*
X148059523Y-119883390D02*
X148011904Y-119931009D01*
X148011904Y-119931009D02*
X147964285Y-120026247D01*
X147964285Y-120026247D02*
X147964285Y-120264342D01*
X147964285Y-120264342D02*
X148011904Y-120359580D01*
X148011904Y-120359580D02*
X148059523Y-120407200D01*
X148059523Y-120407200D02*
X148154761Y-120454819D01*
X148154761Y-120454819D02*
X148440475Y-120454819D01*
X148440475Y-120454819D02*
X148535713Y-120407200D01*
X148535713Y-120407200D02*
X148583332Y-120359580D01*
X137642857Y-106809580D02*
X137690476Y-106857200D01*
X137690476Y-106857200D02*
X137833333Y-106904819D01*
X137833333Y-106904819D02*
X137928571Y-106904819D01*
X137928571Y-106904819D02*
X138071428Y-106857200D01*
X138071428Y-106857200D02*
X138166666Y-106761961D01*
X138166666Y-106761961D02*
X138214285Y-106666723D01*
X138214285Y-106666723D02*
X138261904Y-106476247D01*
X138261904Y-106476247D02*
X138261904Y-106333390D01*
X138261904Y-106333390D02*
X138214285Y-106142914D01*
X138214285Y-106142914D02*
X138166666Y-106047676D01*
X138166666Y-106047676D02*
X138071428Y-105952438D01*
X138071428Y-105952438D02*
X137928571Y-105904819D01*
X137928571Y-105904819D02*
X137833333Y-105904819D01*
X137833333Y-105904819D02*
X137690476Y-105952438D01*
X137690476Y-105952438D02*
X137642857Y-106000057D01*
X137261904Y-106000057D02*
X137214285Y-105952438D01*
X137214285Y-105952438D02*
X137119047Y-105904819D01*
X137119047Y-105904819D02*
X136880952Y-105904819D01*
X136880952Y-105904819D02*
X136785714Y-105952438D01*
X136785714Y-105952438D02*
X136738095Y-106000057D01*
X136738095Y-106000057D02*
X136690476Y-106095295D01*
X136690476Y-106095295D02*
X136690476Y-106190533D01*
X136690476Y-106190533D02*
X136738095Y-106333390D01*
X136738095Y-106333390D02*
X137309523Y-106904819D01*
X137309523Y-106904819D02*
X136690476Y-106904819D01*
X135833333Y-106238152D02*
X135833333Y-106904819D01*
X136071428Y-105857200D02*
X136309523Y-106571485D01*
X136309523Y-106571485D02*
X135690476Y-106571485D01*
X158166666Y-88859580D02*
X158214285Y-88907200D01*
X158214285Y-88907200D02*
X158357142Y-88954819D01*
X158357142Y-88954819D02*
X158452380Y-88954819D01*
X158452380Y-88954819D02*
X158595237Y-88907200D01*
X158595237Y-88907200D02*
X158690475Y-88811961D01*
X158690475Y-88811961D02*
X158738094Y-88716723D01*
X158738094Y-88716723D02*
X158785713Y-88526247D01*
X158785713Y-88526247D02*
X158785713Y-88383390D01*
X158785713Y-88383390D02*
X158738094Y-88192914D01*
X158738094Y-88192914D02*
X158690475Y-88097676D01*
X158690475Y-88097676D02*
X158595237Y-88002438D01*
X158595237Y-88002438D02*
X158452380Y-87954819D01*
X158452380Y-87954819D02*
X158357142Y-87954819D01*
X158357142Y-87954819D02*
X158214285Y-88002438D01*
X158214285Y-88002438D02*
X158166666Y-88050057D01*
X157309523Y-88288152D02*
X157309523Y-88954819D01*
X157547618Y-87907200D02*
X157785713Y-88621485D01*
X157785713Y-88621485D02*
X157166666Y-88621485D01*
X107666666Y-107859580D02*
X107714285Y-107907200D01*
X107714285Y-107907200D02*
X107857142Y-107954819D01*
X107857142Y-107954819D02*
X107952380Y-107954819D01*
X107952380Y-107954819D02*
X108095237Y-107907200D01*
X108095237Y-107907200D02*
X108190475Y-107811961D01*
X108190475Y-107811961D02*
X108238094Y-107716723D01*
X108238094Y-107716723D02*
X108285713Y-107526247D01*
X108285713Y-107526247D02*
X108285713Y-107383390D01*
X108285713Y-107383390D02*
X108238094Y-107192914D01*
X108238094Y-107192914D02*
X108190475Y-107097676D01*
X108190475Y-107097676D02*
X108095237Y-107002438D01*
X108095237Y-107002438D02*
X107952380Y-106954819D01*
X107952380Y-106954819D02*
X107857142Y-106954819D01*
X107857142Y-106954819D02*
X107714285Y-107002438D01*
X107714285Y-107002438D02*
X107666666Y-107050057D01*
X107190475Y-107954819D02*
X106999999Y-107954819D01*
X106999999Y-107954819D02*
X106904761Y-107907200D01*
X106904761Y-107907200D02*
X106857142Y-107859580D01*
X106857142Y-107859580D02*
X106761904Y-107716723D01*
X106761904Y-107716723D02*
X106714285Y-107526247D01*
X106714285Y-107526247D02*
X106714285Y-107145295D01*
X106714285Y-107145295D02*
X106761904Y-107050057D01*
X106761904Y-107050057D02*
X106809523Y-107002438D01*
X106809523Y-107002438D02*
X106904761Y-106954819D01*
X106904761Y-106954819D02*
X107095237Y-106954819D01*
X107095237Y-106954819D02*
X107190475Y-107002438D01*
X107190475Y-107002438D02*
X107238094Y-107050057D01*
X107238094Y-107050057D02*
X107285713Y-107145295D01*
X107285713Y-107145295D02*
X107285713Y-107383390D01*
X107285713Y-107383390D02*
X107238094Y-107478628D01*
X107238094Y-107478628D02*
X107190475Y-107526247D01*
X107190475Y-107526247D02*
X107095237Y-107573866D01*
X107095237Y-107573866D02*
X106904761Y-107573866D01*
X106904761Y-107573866D02*
X106809523Y-107526247D01*
X106809523Y-107526247D02*
X106761904Y-107478628D01*
X106761904Y-107478628D02*
X106714285Y-107383390D01*
X137392857Y-60954819D02*
X137726190Y-60478628D01*
X137964285Y-60954819D02*
X137964285Y-59954819D01*
X137964285Y-59954819D02*
X137583333Y-59954819D01*
X137583333Y-59954819D02*
X137488095Y-60002438D01*
X137488095Y-60002438D02*
X137440476Y-60050057D01*
X137440476Y-60050057D02*
X137392857Y-60145295D01*
X137392857Y-60145295D02*
X137392857Y-60288152D01*
X137392857Y-60288152D02*
X137440476Y-60383390D01*
X137440476Y-60383390D02*
X137488095Y-60431009D01*
X137488095Y-60431009D02*
X137583333Y-60478628D01*
X137583333Y-60478628D02*
X137964285Y-60478628D01*
X136535714Y-60288152D02*
X136535714Y-60954819D01*
X136773809Y-59907200D02*
X137011904Y-60621485D01*
X137011904Y-60621485D02*
X136392857Y-60621485D01*
X136107142Y-59954819D02*
X135488095Y-59954819D01*
X135488095Y-59954819D02*
X135821428Y-60335771D01*
X135821428Y-60335771D02*
X135678571Y-60335771D01*
X135678571Y-60335771D02*
X135583333Y-60383390D01*
X135583333Y-60383390D02*
X135535714Y-60431009D01*
X135535714Y-60431009D02*
X135488095Y-60526247D01*
X135488095Y-60526247D02*
X135488095Y-60764342D01*
X135488095Y-60764342D02*
X135535714Y-60859580D01*
X135535714Y-60859580D02*
X135583333Y-60907200D01*
X135583333Y-60907200D02*
X135678571Y-60954819D01*
X135678571Y-60954819D02*
X135964285Y-60954819D01*
X135964285Y-60954819D02*
X136059523Y-60907200D01*
X136059523Y-60907200D02*
X136107142Y-60859580D01*
X98892857Y-67104819D02*
X99226190Y-66628628D01*
X99464285Y-67104819D02*
X99464285Y-66104819D01*
X99464285Y-66104819D02*
X99083333Y-66104819D01*
X99083333Y-66104819D02*
X98988095Y-66152438D01*
X98988095Y-66152438D02*
X98940476Y-66200057D01*
X98940476Y-66200057D02*
X98892857Y-66295295D01*
X98892857Y-66295295D02*
X98892857Y-66438152D01*
X98892857Y-66438152D02*
X98940476Y-66533390D01*
X98940476Y-66533390D02*
X98988095Y-66581009D01*
X98988095Y-66581009D02*
X99083333Y-66628628D01*
X99083333Y-66628628D02*
X99464285Y-66628628D01*
X98559523Y-66104819D02*
X97940476Y-66104819D01*
X97940476Y-66104819D02*
X98273809Y-66485771D01*
X98273809Y-66485771D02*
X98130952Y-66485771D01*
X98130952Y-66485771D02*
X98035714Y-66533390D01*
X98035714Y-66533390D02*
X97988095Y-66581009D01*
X97988095Y-66581009D02*
X97940476Y-66676247D01*
X97940476Y-66676247D02*
X97940476Y-66914342D01*
X97940476Y-66914342D02*
X97988095Y-67009580D01*
X97988095Y-67009580D02*
X98035714Y-67057200D01*
X98035714Y-67057200D02*
X98130952Y-67104819D01*
X98130952Y-67104819D02*
X98416666Y-67104819D01*
X98416666Y-67104819D02*
X98511904Y-67057200D01*
X98511904Y-67057200D02*
X98559523Y-67009580D01*
X97321428Y-66104819D02*
X97226190Y-66104819D01*
X97226190Y-66104819D02*
X97130952Y-66152438D01*
X97130952Y-66152438D02*
X97083333Y-66200057D01*
X97083333Y-66200057D02*
X97035714Y-66295295D01*
X97035714Y-66295295D02*
X96988095Y-66485771D01*
X96988095Y-66485771D02*
X96988095Y-66723866D01*
X96988095Y-66723866D02*
X97035714Y-66914342D01*
X97035714Y-66914342D02*
X97083333Y-67009580D01*
X97083333Y-67009580D02*
X97130952Y-67057200D01*
X97130952Y-67057200D02*
X97226190Y-67104819D01*
X97226190Y-67104819D02*
X97321428Y-67104819D01*
X97321428Y-67104819D02*
X97416666Y-67057200D01*
X97416666Y-67057200D02*
X97464285Y-67009580D01*
X97464285Y-67009580D02*
X97511904Y-66914342D01*
X97511904Y-66914342D02*
X97559523Y-66723866D01*
X97559523Y-66723866D02*
X97559523Y-66485771D01*
X97559523Y-66485771D02*
X97511904Y-66295295D01*
X97511904Y-66295295D02*
X97464285Y-66200057D01*
X97464285Y-66200057D02*
X97416666Y-66152438D01*
X97416666Y-66152438D02*
X97321428Y-66104819D01*
X170464285Y-74809819D02*
X170464285Y-73809819D01*
X170464285Y-73809819D02*
X170226190Y-73809819D01*
X170226190Y-73809819D02*
X170083333Y-73857438D01*
X170083333Y-73857438D02*
X169988095Y-73952676D01*
X169988095Y-73952676D02*
X169940476Y-74047914D01*
X169940476Y-74047914D02*
X169892857Y-74238390D01*
X169892857Y-74238390D02*
X169892857Y-74381247D01*
X169892857Y-74381247D02*
X169940476Y-74571723D01*
X169940476Y-74571723D02*
X169988095Y-74666961D01*
X169988095Y-74666961D02*
X170083333Y-74762200D01*
X170083333Y-74762200D02*
X170226190Y-74809819D01*
X170226190Y-74809819D02*
X170464285Y-74809819D01*
X168940476Y-74809819D02*
X169511904Y-74809819D01*
X169226190Y-74809819D02*
X169226190Y-73809819D01*
X169226190Y-73809819D02*
X169321428Y-73952676D01*
X169321428Y-73952676D02*
X169416666Y-74047914D01*
X169416666Y-74047914D02*
X169511904Y-74095533D01*
X167988095Y-74809819D02*
X168559523Y-74809819D01*
X168273809Y-74809819D02*
X168273809Y-73809819D01*
X168273809Y-73809819D02*
X168369047Y-73952676D01*
X168369047Y-73952676D02*
X168464285Y-74047914D01*
X168464285Y-74047914D02*
X168559523Y-74095533D01*
X162642857Y-93954819D02*
X162976190Y-93478628D01*
X163214285Y-93954819D02*
X163214285Y-92954819D01*
X163214285Y-92954819D02*
X162833333Y-92954819D01*
X162833333Y-92954819D02*
X162738095Y-93002438D01*
X162738095Y-93002438D02*
X162690476Y-93050057D01*
X162690476Y-93050057D02*
X162642857Y-93145295D01*
X162642857Y-93145295D02*
X162642857Y-93288152D01*
X162642857Y-93288152D02*
X162690476Y-93383390D01*
X162690476Y-93383390D02*
X162738095Y-93431009D01*
X162738095Y-93431009D02*
X162833333Y-93478628D01*
X162833333Y-93478628D02*
X163214285Y-93478628D01*
X161738095Y-92954819D02*
X162214285Y-92954819D01*
X162214285Y-92954819D02*
X162261904Y-93431009D01*
X162261904Y-93431009D02*
X162214285Y-93383390D01*
X162214285Y-93383390D02*
X162119047Y-93335771D01*
X162119047Y-93335771D02*
X161880952Y-93335771D01*
X161880952Y-93335771D02*
X161785714Y-93383390D01*
X161785714Y-93383390D02*
X161738095Y-93431009D01*
X161738095Y-93431009D02*
X161690476Y-93526247D01*
X161690476Y-93526247D02*
X161690476Y-93764342D01*
X161690476Y-93764342D02*
X161738095Y-93859580D01*
X161738095Y-93859580D02*
X161785714Y-93907200D01*
X161785714Y-93907200D02*
X161880952Y-93954819D01*
X161880952Y-93954819D02*
X162119047Y-93954819D01*
X162119047Y-93954819D02*
X162214285Y-93907200D01*
X162214285Y-93907200D02*
X162261904Y-93859580D01*
X161357142Y-92954819D02*
X160738095Y-92954819D01*
X160738095Y-92954819D02*
X161071428Y-93335771D01*
X161071428Y-93335771D02*
X160928571Y-93335771D01*
X160928571Y-93335771D02*
X160833333Y-93383390D01*
X160833333Y-93383390D02*
X160785714Y-93431009D01*
X160785714Y-93431009D02*
X160738095Y-93526247D01*
X160738095Y-93526247D02*
X160738095Y-93764342D01*
X160738095Y-93764342D02*
X160785714Y-93859580D01*
X160785714Y-93859580D02*
X160833333Y-93907200D01*
X160833333Y-93907200D02*
X160928571Y-93954819D01*
X160928571Y-93954819D02*
X161214285Y-93954819D01*
X161214285Y-93954819D02*
X161309523Y-93907200D01*
X161309523Y-93907200D02*
X161357142Y-93859580D01*
X141392857Y-133179580D02*
X141440476Y-133227200D01*
X141440476Y-133227200D02*
X141583333Y-133274819D01*
X141583333Y-133274819D02*
X141678571Y-133274819D01*
X141678571Y-133274819D02*
X141821428Y-133227200D01*
X141821428Y-133227200D02*
X141916666Y-133131961D01*
X141916666Y-133131961D02*
X141964285Y-133036723D01*
X141964285Y-133036723D02*
X142011904Y-132846247D01*
X142011904Y-132846247D02*
X142011904Y-132703390D01*
X142011904Y-132703390D02*
X141964285Y-132512914D01*
X141964285Y-132512914D02*
X141916666Y-132417676D01*
X141916666Y-132417676D02*
X141821428Y-132322438D01*
X141821428Y-132322438D02*
X141678571Y-132274819D01*
X141678571Y-132274819D02*
X141583333Y-132274819D01*
X141583333Y-132274819D02*
X141440476Y-132322438D01*
X141440476Y-132322438D02*
X141392857Y-132370057D01*
X140440476Y-133274819D02*
X141011904Y-133274819D01*
X140726190Y-133274819D02*
X140726190Y-132274819D01*
X140726190Y-132274819D02*
X140821428Y-132417676D01*
X140821428Y-132417676D02*
X140916666Y-132512914D01*
X140916666Y-132512914D02*
X141011904Y-132560533D01*
X139535714Y-132274819D02*
X140011904Y-132274819D01*
X140011904Y-132274819D02*
X140059523Y-132751009D01*
X140059523Y-132751009D02*
X140011904Y-132703390D01*
X140011904Y-132703390D02*
X139916666Y-132655771D01*
X139916666Y-132655771D02*
X139678571Y-132655771D01*
X139678571Y-132655771D02*
X139583333Y-132703390D01*
X139583333Y-132703390D02*
X139535714Y-132751009D01*
X139535714Y-132751009D02*
X139488095Y-132846247D01*
X139488095Y-132846247D02*
X139488095Y-133084342D01*
X139488095Y-133084342D02*
X139535714Y-133179580D01*
X139535714Y-133179580D02*
X139583333Y-133227200D01*
X139583333Y-133227200D02*
X139678571Y-133274819D01*
X139678571Y-133274819D02*
X139916666Y-133274819D01*
X139916666Y-133274819D02*
X140011904Y-133227200D01*
X140011904Y-133227200D02*
X140059523Y-133179580D01*
X159392857Y-129454819D02*
X159726190Y-128978628D01*
X159964285Y-129454819D02*
X159964285Y-128454819D01*
X159964285Y-128454819D02*
X159583333Y-128454819D01*
X159583333Y-128454819D02*
X159488095Y-128502438D01*
X159488095Y-128502438D02*
X159440476Y-128550057D01*
X159440476Y-128550057D02*
X159392857Y-128645295D01*
X159392857Y-128645295D02*
X159392857Y-128788152D01*
X159392857Y-128788152D02*
X159440476Y-128883390D01*
X159440476Y-128883390D02*
X159488095Y-128931009D01*
X159488095Y-128931009D02*
X159583333Y-128978628D01*
X159583333Y-128978628D02*
X159964285Y-128978628D01*
X159011904Y-128550057D02*
X158964285Y-128502438D01*
X158964285Y-128502438D02*
X158869047Y-128454819D01*
X158869047Y-128454819D02*
X158630952Y-128454819D01*
X158630952Y-128454819D02*
X158535714Y-128502438D01*
X158535714Y-128502438D02*
X158488095Y-128550057D01*
X158488095Y-128550057D02*
X158440476Y-128645295D01*
X158440476Y-128645295D02*
X158440476Y-128740533D01*
X158440476Y-128740533D02*
X158488095Y-128883390D01*
X158488095Y-128883390D02*
X159059523Y-129454819D01*
X159059523Y-129454819D02*
X158440476Y-129454819D01*
X157535714Y-128454819D02*
X158011904Y-128454819D01*
X158011904Y-128454819D02*
X158059523Y-128931009D01*
X158059523Y-128931009D02*
X158011904Y-128883390D01*
X158011904Y-128883390D02*
X157916666Y-128835771D01*
X157916666Y-128835771D02*
X157678571Y-128835771D01*
X157678571Y-128835771D02*
X157583333Y-128883390D01*
X157583333Y-128883390D02*
X157535714Y-128931009D01*
X157535714Y-128931009D02*
X157488095Y-129026247D01*
X157488095Y-129026247D02*
X157488095Y-129264342D01*
X157488095Y-129264342D02*
X157535714Y-129359580D01*
X157535714Y-129359580D02*
X157583333Y-129407200D01*
X157583333Y-129407200D02*
X157678571Y-129454819D01*
X157678571Y-129454819D02*
X157916666Y-129454819D01*
X157916666Y-129454819D02*
X158011904Y-129407200D01*
X158011904Y-129407200D02*
X158059523Y-129359580D01*
X170464285Y-89704819D02*
X170464285Y-88704819D01*
X170464285Y-88704819D02*
X170226190Y-88704819D01*
X170226190Y-88704819D02*
X170083333Y-88752438D01*
X170083333Y-88752438D02*
X169988095Y-88847676D01*
X169988095Y-88847676D02*
X169940476Y-88942914D01*
X169940476Y-88942914D02*
X169892857Y-89133390D01*
X169892857Y-89133390D02*
X169892857Y-89276247D01*
X169892857Y-89276247D02*
X169940476Y-89466723D01*
X169940476Y-89466723D02*
X169988095Y-89561961D01*
X169988095Y-89561961D02*
X170083333Y-89657200D01*
X170083333Y-89657200D02*
X170226190Y-89704819D01*
X170226190Y-89704819D02*
X170464285Y-89704819D01*
X168940476Y-89704819D02*
X169511904Y-89704819D01*
X169226190Y-89704819D02*
X169226190Y-88704819D01*
X169226190Y-88704819D02*
X169321428Y-88847676D01*
X169321428Y-88847676D02*
X169416666Y-88942914D01*
X169416666Y-88942914D02*
X169511904Y-88990533D01*
X168321428Y-88704819D02*
X168226190Y-88704819D01*
X168226190Y-88704819D02*
X168130952Y-88752438D01*
X168130952Y-88752438D02*
X168083333Y-88800057D01*
X168083333Y-88800057D02*
X168035714Y-88895295D01*
X168035714Y-88895295D02*
X167988095Y-89085771D01*
X167988095Y-89085771D02*
X167988095Y-89323866D01*
X167988095Y-89323866D02*
X168035714Y-89514342D01*
X168035714Y-89514342D02*
X168083333Y-89609580D01*
X168083333Y-89609580D02*
X168130952Y-89657200D01*
X168130952Y-89657200D02*
X168226190Y-89704819D01*
X168226190Y-89704819D02*
X168321428Y-89704819D01*
X168321428Y-89704819D02*
X168416666Y-89657200D01*
X168416666Y-89657200D02*
X168464285Y-89609580D01*
X168464285Y-89609580D02*
X168511904Y-89514342D01*
X168511904Y-89514342D02*
X168559523Y-89323866D01*
X168559523Y-89323866D02*
X168559523Y-89085771D01*
X168559523Y-89085771D02*
X168511904Y-88895295D01*
X168511904Y-88895295D02*
X168464285Y-88800057D01*
X168464285Y-88800057D02*
X168416666Y-88752438D01*
X168416666Y-88752438D02*
X168321428Y-88704819D01*
X103642857Y-78604819D02*
X103976190Y-78128628D01*
X104214285Y-78604819D02*
X104214285Y-77604819D01*
X104214285Y-77604819D02*
X103833333Y-77604819D01*
X103833333Y-77604819D02*
X103738095Y-77652438D01*
X103738095Y-77652438D02*
X103690476Y-77700057D01*
X103690476Y-77700057D02*
X103642857Y-77795295D01*
X103642857Y-77795295D02*
X103642857Y-77938152D01*
X103642857Y-77938152D02*
X103690476Y-78033390D01*
X103690476Y-78033390D02*
X103738095Y-78081009D01*
X103738095Y-78081009D02*
X103833333Y-78128628D01*
X103833333Y-78128628D02*
X104214285Y-78128628D01*
X103261904Y-77700057D02*
X103214285Y-77652438D01*
X103214285Y-77652438D02*
X103119047Y-77604819D01*
X103119047Y-77604819D02*
X102880952Y-77604819D01*
X102880952Y-77604819D02*
X102785714Y-77652438D01*
X102785714Y-77652438D02*
X102738095Y-77700057D01*
X102738095Y-77700057D02*
X102690476Y-77795295D01*
X102690476Y-77795295D02*
X102690476Y-77890533D01*
X102690476Y-77890533D02*
X102738095Y-78033390D01*
X102738095Y-78033390D02*
X103309523Y-78604819D01*
X103309523Y-78604819D02*
X102690476Y-78604819D01*
X101833333Y-77604819D02*
X102023809Y-77604819D01*
X102023809Y-77604819D02*
X102119047Y-77652438D01*
X102119047Y-77652438D02*
X102166666Y-77700057D01*
X102166666Y-77700057D02*
X102261904Y-77842914D01*
X102261904Y-77842914D02*
X102309523Y-78033390D01*
X102309523Y-78033390D02*
X102309523Y-78414342D01*
X102309523Y-78414342D02*
X102261904Y-78509580D01*
X102261904Y-78509580D02*
X102214285Y-78557200D01*
X102214285Y-78557200D02*
X102119047Y-78604819D01*
X102119047Y-78604819D02*
X101928571Y-78604819D01*
X101928571Y-78604819D02*
X101833333Y-78557200D01*
X101833333Y-78557200D02*
X101785714Y-78509580D01*
X101785714Y-78509580D02*
X101738095Y-78414342D01*
X101738095Y-78414342D02*
X101738095Y-78176247D01*
X101738095Y-78176247D02*
X101785714Y-78081009D01*
X101785714Y-78081009D02*
X101833333Y-78033390D01*
X101833333Y-78033390D02*
X101928571Y-77985771D01*
X101928571Y-77985771D02*
X102119047Y-77985771D01*
X102119047Y-77985771D02*
X102214285Y-78033390D01*
X102214285Y-78033390D02*
X102261904Y-78081009D01*
X102261904Y-78081009D02*
X102309523Y-78176247D01*
X117604166Y-89859580D02*
X117651785Y-89907200D01*
X117651785Y-89907200D02*
X117794642Y-89954819D01*
X117794642Y-89954819D02*
X117889880Y-89954819D01*
X117889880Y-89954819D02*
X118032737Y-89907200D01*
X118032737Y-89907200D02*
X118127975Y-89811961D01*
X118127975Y-89811961D02*
X118175594Y-89716723D01*
X118175594Y-89716723D02*
X118223213Y-89526247D01*
X118223213Y-89526247D02*
X118223213Y-89383390D01*
X118223213Y-89383390D02*
X118175594Y-89192914D01*
X118175594Y-89192914D02*
X118127975Y-89097676D01*
X118127975Y-89097676D02*
X118032737Y-89002438D01*
X118032737Y-89002438D02*
X117889880Y-88954819D01*
X117889880Y-88954819D02*
X117794642Y-88954819D01*
X117794642Y-88954819D02*
X117651785Y-89002438D01*
X117651785Y-89002438D02*
X117604166Y-89050057D01*
X117223213Y-89050057D02*
X117175594Y-89002438D01*
X117175594Y-89002438D02*
X117080356Y-88954819D01*
X117080356Y-88954819D02*
X116842261Y-88954819D01*
X116842261Y-88954819D02*
X116747023Y-89002438D01*
X116747023Y-89002438D02*
X116699404Y-89050057D01*
X116699404Y-89050057D02*
X116651785Y-89145295D01*
X116651785Y-89145295D02*
X116651785Y-89240533D01*
X116651785Y-89240533D02*
X116699404Y-89383390D01*
X116699404Y-89383390D02*
X117270832Y-89954819D01*
X117270832Y-89954819D02*
X116651785Y-89954819D01*
X131392857Y-76859580D02*
X131440476Y-76907200D01*
X131440476Y-76907200D02*
X131583333Y-76954819D01*
X131583333Y-76954819D02*
X131678571Y-76954819D01*
X131678571Y-76954819D02*
X131821428Y-76907200D01*
X131821428Y-76907200D02*
X131916666Y-76811961D01*
X131916666Y-76811961D02*
X131964285Y-76716723D01*
X131964285Y-76716723D02*
X132011904Y-76526247D01*
X132011904Y-76526247D02*
X132011904Y-76383390D01*
X132011904Y-76383390D02*
X131964285Y-76192914D01*
X131964285Y-76192914D02*
X131916666Y-76097676D01*
X131916666Y-76097676D02*
X131821428Y-76002438D01*
X131821428Y-76002438D02*
X131678571Y-75954819D01*
X131678571Y-75954819D02*
X131583333Y-75954819D01*
X131583333Y-75954819D02*
X131440476Y-76002438D01*
X131440476Y-76002438D02*
X131392857Y-76050057D01*
X131059523Y-75954819D02*
X130440476Y-75954819D01*
X130440476Y-75954819D02*
X130773809Y-76335771D01*
X130773809Y-76335771D02*
X130630952Y-76335771D01*
X130630952Y-76335771D02*
X130535714Y-76383390D01*
X130535714Y-76383390D02*
X130488095Y-76431009D01*
X130488095Y-76431009D02*
X130440476Y-76526247D01*
X130440476Y-76526247D02*
X130440476Y-76764342D01*
X130440476Y-76764342D02*
X130488095Y-76859580D01*
X130488095Y-76859580D02*
X130535714Y-76907200D01*
X130535714Y-76907200D02*
X130630952Y-76954819D01*
X130630952Y-76954819D02*
X130916666Y-76954819D01*
X130916666Y-76954819D02*
X131011904Y-76907200D01*
X131011904Y-76907200D02*
X131059523Y-76859580D01*
X129535714Y-75954819D02*
X130011904Y-75954819D01*
X130011904Y-75954819D02*
X130059523Y-76431009D01*
X130059523Y-76431009D02*
X130011904Y-76383390D01*
X130011904Y-76383390D02*
X129916666Y-76335771D01*
X129916666Y-76335771D02*
X129678571Y-76335771D01*
X129678571Y-76335771D02*
X129583333Y-76383390D01*
X129583333Y-76383390D02*
X129535714Y-76431009D01*
X129535714Y-76431009D02*
X129488095Y-76526247D01*
X129488095Y-76526247D02*
X129488095Y-76764342D01*
X129488095Y-76764342D02*
X129535714Y-76859580D01*
X129535714Y-76859580D02*
X129583333Y-76907200D01*
X129583333Y-76907200D02*
X129678571Y-76954819D01*
X129678571Y-76954819D02*
X129916666Y-76954819D01*
X129916666Y-76954819D02*
X130011904Y-76907200D01*
X130011904Y-76907200D02*
X130059523Y-76859580D01*
X142392857Y-72454819D02*
X142726190Y-71978628D01*
X142964285Y-72454819D02*
X142964285Y-71454819D01*
X142964285Y-71454819D02*
X142583333Y-71454819D01*
X142583333Y-71454819D02*
X142488095Y-71502438D01*
X142488095Y-71502438D02*
X142440476Y-71550057D01*
X142440476Y-71550057D02*
X142392857Y-71645295D01*
X142392857Y-71645295D02*
X142392857Y-71788152D01*
X142392857Y-71788152D02*
X142440476Y-71883390D01*
X142440476Y-71883390D02*
X142488095Y-71931009D01*
X142488095Y-71931009D02*
X142583333Y-71978628D01*
X142583333Y-71978628D02*
X142964285Y-71978628D01*
X142059523Y-71454819D02*
X141440476Y-71454819D01*
X141440476Y-71454819D02*
X141773809Y-71835771D01*
X141773809Y-71835771D02*
X141630952Y-71835771D01*
X141630952Y-71835771D02*
X141535714Y-71883390D01*
X141535714Y-71883390D02*
X141488095Y-71931009D01*
X141488095Y-71931009D02*
X141440476Y-72026247D01*
X141440476Y-72026247D02*
X141440476Y-72264342D01*
X141440476Y-72264342D02*
X141488095Y-72359580D01*
X141488095Y-72359580D02*
X141535714Y-72407200D01*
X141535714Y-72407200D02*
X141630952Y-72454819D01*
X141630952Y-72454819D02*
X141916666Y-72454819D01*
X141916666Y-72454819D02*
X142011904Y-72407200D01*
X142011904Y-72407200D02*
X142059523Y-72359580D01*
X140964285Y-72454819D02*
X140773809Y-72454819D01*
X140773809Y-72454819D02*
X140678571Y-72407200D01*
X140678571Y-72407200D02*
X140630952Y-72359580D01*
X140630952Y-72359580D02*
X140535714Y-72216723D01*
X140535714Y-72216723D02*
X140488095Y-72026247D01*
X140488095Y-72026247D02*
X140488095Y-71645295D01*
X140488095Y-71645295D02*
X140535714Y-71550057D01*
X140535714Y-71550057D02*
X140583333Y-71502438D01*
X140583333Y-71502438D02*
X140678571Y-71454819D01*
X140678571Y-71454819D02*
X140869047Y-71454819D01*
X140869047Y-71454819D02*
X140964285Y-71502438D01*
X140964285Y-71502438D02*
X141011904Y-71550057D01*
X141011904Y-71550057D02*
X141059523Y-71645295D01*
X141059523Y-71645295D02*
X141059523Y-71883390D01*
X141059523Y-71883390D02*
X141011904Y-71978628D01*
X141011904Y-71978628D02*
X140964285Y-72026247D01*
X140964285Y-72026247D02*
X140869047Y-72073866D01*
X140869047Y-72073866D02*
X140678571Y-72073866D01*
X140678571Y-72073866D02*
X140583333Y-72026247D01*
X140583333Y-72026247D02*
X140535714Y-71978628D01*
X140535714Y-71978628D02*
X140488095Y-71883390D01*
X202892857Y-87559580D02*
X202940476Y-87607200D01*
X202940476Y-87607200D02*
X203083333Y-87654819D01*
X203083333Y-87654819D02*
X203178571Y-87654819D01*
X203178571Y-87654819D02*
X203321428Y-87607200D01*
X203321428Y-87607200D02*
X203416666Y-87511961D01*
X203416666Y-87511961D02*
X203464285Y-87416723D01*
X203464285Y-87416723D02*
X203511904Y-87226247D01*
X203511904Y-87226247D02*
X203511904Y-87083390D01*
X203511904Y-87083390D02*
X203464285Y-86892914D01*
X203464285Y-86892914D02*
X203416666Y-86797676D01*
X203416666Y-86797676D02*
X203321428Y-86702438D01*
X203321428Y-86702438D02*
X203178571Y-86654819D01*
X203178571Y-86654819D02*
X203083333Y-86654819D01*
X203083333Y-86654819D02*
X202940476Y-86702438D01*
X202940476Y-86702438D02*
X202892857Y-86750057D01*
X202511904Y-86750057D02*
X202464285Y-86702438D01*
X202464285Y-86702438D02*
X202369047Y-86654819D01*
X202369047Y-86654819D02*
X202130952Y-86654819D01*
X202130952Y-86654819D02*
X202035714Y-86702438D01*
X202035714Y-86702438D02*
X201988095Y-86750057D01*
X201988095Y-86750057D02*
X201940476Y-86845295D01*
X201940476Y-86845295D02*
X201940476Y-86940533D01*
X201940476Y-86940533D02*
X201988095Y-87083390D01*
X201988095Y-87083390D02*
X202559523Y-87654819D01*
X202559523Y-87654819D02*
X201940476Y-87654819D01*
X201083333Y-86654819D02*
X201273809Y-86654819D01*
X201273809Y-86654819D02*
X201369047Y-86702438D01*
X201369047Y-86702438D02*
X201416666Y-86750057D01*
X201416666Y-86750057D02*
X201511904Y-86892914D01*
X201511904Y-86892914D02*
X201559523Y-87083390D01*
X201559523Y-87083390D02*
X201559523Y-87464342D01*
X201559523Y-87464342D02*
X201511904Y-87559580D01*
X201511904Y-87559580D02*
X201464285Y-87607200D01*
X201464285Y-87607200D02*
X201369047Y-87654819D01*
X201369047Y-87654819D02*
X201178571Y-87654819D01*
X201178571Y-87654819D02*
X201083333Y-87607200D01*
X201083333Y-87607200D02*
X201035714Y-87559580D01*
X201035714Y-87559580D02*
X200988095Y-87464342D01*
X200988095Y-87464342D02*
X200988095Y-87226247D01*
X200988095Y-87226247D02*
X201035714Y-87131009D01*
X201035714Y-87131009D02*
X201083333Y-87083390D01*
X201083333Y-87083390D02*
X201178571Y-87035771D01*
X201178571Y-87035771D02*
X201369047Y-87035771D01*
X201369047Y-87035771D02*
X201464285Y-87083390D01*
X201464285Y-87083390D02*
X201511904Y-87131009D01*
X201511904Y-87131009D02*
X201559523Y-87226247D01*
X141392857Y-129704819D02*
X141726190Y-129228628D01*
X141964285Y-129704819D02*
X141964285Y-128704819D01*
X141964285Y-128704819D02*
X141583333Y-128704819D01*
X141583333Y-128704819D02*
X141488095Y-128752438D01*
X141488095Y-128752438D02*
X141440476Y-128800057D01*
X141440476Y-128800057D02*
X141392857Y-128895295D01*
X141392857Y-128895295D02*
X141392857Y-129038152D01*
X141392857Y-129038152D02*
X141440476Y-129133390D01*
X141440476Y-129133390D02*
X141488095Y-129181009D01*
X141488095Y-129181009D02*
X141583333Y-129228628D01*
X141583333Y-129228628D02*
X141964285Y-129228628D01*
X141011904Y-128800057D02*
X140964285Y-128752438D01*
X140964285Y-128752438D02*
X140869047Y-128704819D01*
X140869047Y-128704819D02*
X140630952Y-128704819D01*
X140630952Y-128704819D02*
X140535714Y-128752438D01*
X140535714Y-128752438D02*
X140488095Y-128800057D01*
X140488095Y-128800057D02*
X140440476Y-128895295D01*
X140440476Y-128895295D02*
X140440476Y-128990533D01*
X140440476Y-128990533D02*
X140488095Y-129133390D01*
X140488095Y-129133390D02*
X141059523Y-129704819D01*
X141059523Y-129704819D02*
X140440476Y-129704819D01*
X139583333Y-129038152D02*
X139583333Y-129704819D01*
X139821428Y-128657200D02*
X140059523Y-129371485D01*
X140059523Y-129371485D02*
X139440476Y-129371485D01*
X154142857Y-54554819D02*
X154476190Y-54078628D01*
X154714285Y-54554819D02*
X154714285Y-53554819D01*
X154714285Y-53554819D02*
X154333333Y-53554819D01*
X154333333Y-53554819D02*
X154238095Y-53602438D01*
X154238095Y-53602438D02*
X154190476Y-53650057D01*
X154190476Y-53650057D02*
X154142857Y-53745295D01*
X154142857Y-53745295D02*
X154142857Y-53888152D01*
X154142857Y-53888152D02*
X154190476Y-53983390D01*
X154190476Y-53983390D02*
X154238095Y-54031009D01*
X154238095Y-54031009D02*
X154333333Y-54078628D01*
X154333333Y-54078628D02*
X154714285Y-54078628D01*
X153285714Y-53888152D02*
X153285714Y-54554819D01*
X153523809Y-53507200D02*
X153761904Y-54221485D01*
X153761904Y-54221485D02*
X153142857Y-54221485D01*
X152809523Y-53650057D02*
X152761904Y-53602438D01*
X152761904Y-53602438D02*
X152666666Y-53554819D01*
X152666666Y-53554819D02*
X152428571Y-53554819D01*
X152428571Y-53554819D02*
X152333333Y-53602438D01*
X152333333Y-53602438D02*
X152285714Y-53650057D01*
X152285714Y-53650057D02*
X152238095Y-53745295D01*
X152238095Y-53745295D02*
X152238095Y-53840533D01*
X152238095Y-53840533D02*
X152285714Y-53983390D01*
X152285714Y-53983390D02*
X152857142Y-54554819D01*
X152857142Y-54554819D02*
X152238095Y-54554819D01*
X120892857Y-136704819D02*
X121226190Y-136228628D01*
X121464285Y-136704819D02*
X121464285Y-135704819D01*
X121464285Y-135704819D02*
X121083333Y-135704819D01*
X121083333Y-135704819D02*
X120988095Y-135752438D01*
X120988095Y-135752438D02*
X120940476Y-135800057D01*
X120940476Y-135800057D02*
X120892857Y-135895295D01*
X120892857Y-135895295D02*
X120892857Y-136038152D01*
X120892857Y-136038152D02*
X120940476Y-136133390D01*
X120940476Y-136133390D02*
X120988095Y-136181009D01*
X120988095Y-136181009D02*
X121083333Y-136228628D01*
X121083333Y-136228628D02*
X121464285Y-136228628D01*
X120511904Y-135800057D02*
X120464285Y-135752438D01*
X120464285Y-135752438D02*
X120369047Y-135704819D01*
X120369047Y-135704819D02*
X120130952Y-135704819D01*
X120130952Y-135704819D02*
X120035714Y-135752438D01*
X120035714Y-135752438D02*
X119988095Y-135800057D01*
X119988095Y-135800057D02*
X119940476Y-135895295D01*
X119940476Y-135895295D02*
X119940476Y-135990533D01*
X119940476Y-135990533D02*
X119988095Y-136133390D01*
X119988095Y-136133390D02*
X120559523Y-136704819D01*
X120559523Y-136704819D02*
X119940476Y-136704819D01*
X119369047Y-136133390D02*
X119464285Y-136085771D01*
X119464285Y-136085771D02*
X119511904Y-136038152D01*
X119511904Y-136038152D02*
X119559523Y-135942914D01*
X119559523Y-135942914D02*
X119559523Y-135895295D01*
X119559523Y-135895295D02*
X119511904Y-135800057D01*
X119511904Y-135800057D02*
X119464285Y-135752438D01*
X119464285Y-135752438D02*
X119369047Y-135704819D01*
X119369047Y-135704819D02*
X119178571Y-135704819D01*
X119178571Y-135704819D02*
X119083333Y-135752438D01*
X119083333Y-135752438D02*
X119035714Y-135800057D01*
X119035714Y-135800057D02*
X118988095Y-135895295D01*
X118988095Y-135895295D02*
X118988095Y-135942914D01*
X118988095Y-135942914D02*
X119035714Y-136038152D01*
X119035714Y-136038152D02*
X119083333Y-136085771D01*
X119083333Y-136085771D02*
X119178571Y-136133390D01*
X119178571Y-136133390D02*
X119369047Y-136133390D01*
X119369047Y-136133390D02*
X119464285Y-136181009D01*
X119464285Y-136181009D02*
X119511904Y-136228628D01*
X119511904Y-136228628D02*
X119559523Y-136323866D01*
X119559523Y-136323866D02*
X119559523Y-136514342D01*
X119559523Y-136514342D02*
X119511904Y-136609580D01*
X119511904Y-136609580D02*
X119464285Y-136657200D01*
X119464285Y-136657200D02*
X119369047Y-136704819D01*
X119369047Y-136704819D02*
X119178571Y-136704819D01*
X119178571Y-136704819D02*
X119083333Y-136657200D01*
X119083333Y-136657200D02*
X119035714Y-136609580D01*
X119035714Y-136609580D02*
X118988095Y-136514342D01*
X118988095Y-136514342D02*
X118988095Y-136323866D01*
X118988095Y-136323866D02*
X119035714Y-136228628D01*
X119035714Y-136228628D02*
X119083333Y-136181009D01*
X119083333Y-136181009D02*
X119178571Y-136133390D01*
X107142857Y-133204819D02*
X107476190Y-132728628D01*
X107714285Y-133204819D02*
X107714285Y-132204819D01*
X107714285Y-132204819D02*
X107333333Y-132204819D01*
X107333333Y-132204819D02*
X107238095Y-132252438D01*
X107238095Y-132252438D02*
X107190476Y-132300057D01*
X107190476Y-132300057D02*
X107142857Y-132395295D01*
X107142857Y-132395295D02*
X107142857Y-132538152D01*
X107142857Y-132538152D02*
X107190476Y-132633390D01*
X107190476Y-132633390D02*
X107238095Y-132681009D01*
X107238095Y-132681009D02*
X107333333Y-132728628D01*
X107333333Y-132728628D02*
X107714285Y-132728628D01*
X106190476Y-133204819D02*
X106761904Y-133204819D01*
X106476190Y-133204819D02*
X106476190Y-132204819D01*
X106476190Y-132204819D02*
X106571428Y-132347676D01*
X106571428Y-132347676D02*
X106666666Y-132442914D01*
X106666666Y-132442914D02*
X106761904Y-132490533D01*
X105238095Y-133204819D02*
X105809523Y-133204819D01*
X105523809Y-133204819D02*
X105523809Y-132204819D01*
X105523809Y-132204819D02*
X105619047Y-132347676D01*
X105619047Y-132347676D02*
X105714285Y-132442914D01*
X105714285Y-132442914D02*
X105809523Y-132490533D01*
X138916666Y-70604819D02*
X139249999Y-70128628D01*
X139488094Y-70604819D02*
X139488094Y-69604819D01*
X139488094Y-69604819D02*
X139107142Y-69604819D01*
X139107142Y-69604819D02*
X139011904Y-69652438D01*
X139011904Y-69652438D02*
X138964285Y-69700057D01*
X138964285Y-69700057D02*
X138916666Y-69795295D01*
X138916666Y-69795295D02*
X138916666Y-69938152D01*
X138916666Y-69938152D02*
X138964285Y-70033390D01*
X138964285Y-70033390D02*
X139011904Y-70081009D01*
X139011904Y-70081009D02*
X139107142Y-70128628D01*
X139107142Y-70128628D02*
X139488094Y-70128628D01*
X138059523Y-69604819D02*
X138249999Y-69604819D01*
X138249999Y-69604819D02*
X138345237Y-69652438D01*
X138345237Y-69652438D02*
X138392856Y-69700057D01*
X138392856Y-69700057D02*
X138488094Y-69842914D01*
X138488094Y-69842914D02*
X138535713Y-70033390D01*
X138535713Y-70033390D02*
X138535713Y-70414342D01*
X138535713Y-70414342D02*
X138488094Y-70509580D01*
X138488094Y-70509580D02*
X138440475Y-70557200D01*
X138440475Y-70557200D02*
X138345237Y-70604819D01*
X138345237Y-70604819D02*
X138154761Y-70604819D01*
X138154761Y-70604819D02*
X138059523Y-70557200D01*
X138059523Y-70557200D02*
X138011904Y-70509580D01*
X138011904Y-70509580D02*
X137964285Y-70414342D01*
X137964285Y-70414342D02*
X137964285Y-70176247D01*
X137964285Y-70176247D02*
X138011904Y-70081009D01*
X138011904Y-70081009D02*
X138059523Y-70033390D01*
X138059523Y-70033390D02*
X138154761Y-69985771D01*
X138154761Y-69985771D02*
X138345237Y-69985771D01*
X138345237Y-69985771D02*
X138440475Y-70033390D01*
X138440475Y-70033390D02*
X138488094Y-70081009D01*
X138488094Y-70081009D02*
X138535713Y-70176247D01*
X117642857Y-124954819D02*
X117976190Y-124478628D01*
X118214285Y-124954819D02*
X118214285Y-123954819D01*
X118214285Y-123954819D02*
X117833333Y-123954819D01*
X117833333Y-123954819D02*
X117738095Y-124002438D01*
X117738095Y-124002438D02*
X117690476Y-124050057D01*
X117690476Y-124050057D02*
X117642857Y-124145295D01*
X117642857Y-124145295D02*
X117642857Y-124288152D01*
X117642857Y-124288152D02*
X117690476Y-124383390D01*
X117690476Y-124383390D02*
X117738095Y-124431009D01*
X117738095Y-124431009D02*
X117833333Y-124478628D01*
X117833333Y-124478628D02*
X118214285Y-124478628D01*
X117261904Y-124050057D02*
X117214285Y-124002438D01*
X117214285Y-124002438D02*
X117119047Y-123954819D01*
X117119047Y-123954819D02*
X116880952Y-123954819D01*
X116880952Y-123954819D02*
X116785714Y-124002438D01*
X116785714Y-124002438D02*
X116738095Y-124050057D01*
X116738095Y-124050057D02*
X116690476Y-124145295D01*
X116690476Y-124145295D02*
X116690476Y-124240533D01*
X116690476Y-124240533D02*
X116738095Y-124383390D01*
X116738095Y-124383390D02*
X117309523Y-124954819D01*
X117309523Y-124954819D02*
X116690476Y-124954819D01*
X116309523Y-124050057D02*
X116261904Y-124002438D01*
X116261904Y-124002438D02*
X116166666Y-123954819D01*
X116166666Y-123954819D02*
X115928571Y-123954819D01*
X115928571Y-123954819D02*
X115833333Y-124002438D01*
X115833333Y-124002438D02*
X115785714Y-124050057D01*
X115785714Y-124050057D02*
X115738095Y-124145295D01*
X115738095Y-124145295D02*
X115738095Y-124240533D01*
X115738095Y-124240533D02*
X115785714Y-124383390D01*
X115785714Y-124383390D02*
X116357142Y-124954819D01*
X116357142Y-124954819D02*
X115738095Y-124954819D01*
X117642857Y-122109580D02*
X117690476Y-122157200D01*
X117690476Y-122157200D02*
X117833333Y-122204819D01*
X117833333Y-122204819D02*
X117928571Y-122204819D01*
X117928571Y-122204819D02*
X118071428Y-122157200D01*
X118071428Y-122157200D02*
X118166666Y-122061961D01*
X118166666Y-122061961D02*
X118214285Y-121966723D01*
X118214285Y-121966723D02*
X118261904Y-121776247D01*
X118261904Y-121776247D02*
X118261904Y-121633390D01*
X118261904Y-121633390D02*
X118214285Y-121442914D01*
X118214285Y-121442914D02*
X118166666Y-121347676D01*
X118166666Y-121347676D02*
X118071428Y-121252438D01*
X118071428Y-121252438D02*
X117928571Y-121204819D01*
X117928571Y-121204819D02*
X117833333Y-121204819D01*
X117833333Y-121204819D02*
X117690476Y-121252438D01*
X117690476Y-121252438D02*
X117642857Y-121300057D01*
X116690476Y-122204819D02*
X117261904Y-122204819D01*
X116976190Y-122204819D02*
X116976190Y-121204819D01*
X116976190Y-121204819D02*
X117071428Y-121347676D01*
X117071428Y-121347676D02*
X117166666Y-121442914D01*
X117166666Y-121442914D02*
X117261904Y-121490533D01*
X116357142Y-121204819D02*
X115738095Y-121204819D01*
X115738095Y-121204819D02*
X116071428Y-121585771D01*
X116071428Y-121585771D02*
X115928571Y-121585771D01*
X115928571Y-121585771D02*
X115833333Y-121633390D01*
X115833333Y-121633390D02*
X115785714Y-121681009D01*
X115785714Y-121681009D02*
X115738095Y-121776247D01*
X115738095Y-121776247D02*
X115738095Y-122014342D01*
X115738095Y-122014342D02*
X115785714Y-122109580D01*
X115785714Y-122109580D02*
X115833333Y-122157200D01*
X115833333Y-122157200D02*
X115928571Y-122204819D01*
X115928571Y-122204819D02*
X116214285Y-122204819D01*
X116214285Y-122204819D02*
X116309523Y-122157200D01*
X116309523Y-122157200D02*
X116357142Y-122109580D01*
X153142857Y-136359580D02*
X153190476Y-136407200D01*
X153190476Y-136407200D02*
X153333333Y-136454819D01*
X153333333Y-136454819D02*
X153428571Y-136454819D01*
X153428571Y-136454819D02*
X153571428Y-136407200D01*
X153571428Y-136407200D02*
X153666666Y-136311961D01*
X153666666Y-136311961D02*
X153714285Y-136216723D01*
X153714285Y-136216723D02*
X153761904Y-136026247D01*
X153761904Y-136026247D02*
X153761904Y-135883390D01*
X153761904Y-135883390D02*
X153714285Y-135692914D01*
X153714285Y-135692914D02*
X153666666Y-135597676D01*
X153666666Y-135597676D02*
X153571428Y-135502438D01*
X153571428Y-135502438D02*
X153428571Y-135454819D01*
X153428571Y-135454819D02*
X153333333Y-135454819D01*
X153333333Y-135454819D02*
X153190476Y-135502438D01*
X153190476Y-135502438D02*
X153142857Y-135550057D01*
X152190476Y-136454819D02*
X152761904Y-136454819D01*
X152476190Y-136454819D02*
X152476190Y-135454819D01*
X152476190Y-135454819D02*
X152571428Y-135597676D01*
X152571428Y-135597676D02*
X152666666Y-135692914D01*
X152666666Y-135692914D02*
X152761904Y-135740533D01*
X151809523Y-135550057D02*
X151761904Y-135502438D01*
X151761904Y-135502438D02*
X151666666Y-135454819D01*
X151666666Y-135454819D02*
X151428571Y-135454819D01*
X151428571Y-135454819D02*
X151333333Y-135502438D01*
X151333333Y-135502438D02*
X151285714Y-135550057D01*
X151285714Y-135550057D02*
X151238095Y-135645295D01*
X151238095Y-135645295D02*
X151238095Y-135740533D01*
X151238095Y-135740533D02*
X151285714Y-135883390D01*
X151285714Y-135883390D02*
X151857142Y-136454819D01*
X151857142Y-136454819D02*
X151238095Y-136454819D01*
X156142857Y-136454819D02*
X156476190Y-135978628D01*
X156714285Y-136454819D02*
X156714285Y-135454819D01*
X156714285Y-135454819D02*
X156333333Y-135454819D01*
X156333333Y-135454819D02*
X156238095Y-135502438D01*
X156238095Y-135502438D02*
X156190476Y-135550057D01*
X156190476Y-135550057D02*
X156142857Y-135645295D01*
X156142857Y-135645295D02*
X156142857Y-135788152D01*
X156142857Y-135788152D02*
X156190476Y-135883390D01*
X156190476Y-135883390D02*
X156238095Y-135931009D01*
X156238095Y-135931009D02*
X156333333Y-135978628D01*
X156333333Y-135978628D02*
X156714285Y-135978628D01*
X155761904Y-135550057D02*
X155714285Y-135502438D01*
X155714285Y-135502438D02*
X155619047Y-135454819D01*
X155619047Y-135454819D02*
X155380952Y-135454819D01*
X155380952Y-135454819D02*
X155285714Y-135502438D01*
X155285714Y-135502438D02*
X155238095Y-135550057D01*
X155238095Y-135550057D02*
X155190476Y-135645295D01*
X155190476Y-135645295D02*
X155190476Y-135740533D01*
X155190476Y-135740533D02*
X155238095Y-135883390D01*
X155238095Y-135883390D02*
X155809523Y-136454819D01*
X155809523Y-136454819D02*
X155190476Y-136454819D01*
X154238095Y-136454819D02*
X154809523Y-136454819D01*
X154523809Y-136454819D02*
X154523809Y-135454819D01*
X154523809Y-135454819D02*
X154619047Y-135597676D01*
X154619047Y-135597676D02*
X154714285Y-135692914D01*
X154714285Y-135692914D02*
X154809523Y-135740533D01*
X132142857Y-131859580D02*
X132190476Y-131907200D01*
X132190476Y-131907200D02*
X132333333Y-131954819D01*
X132333333Y-131954819D02*
X132428571Y-131954819D01*
X132428571Y-131954819D02*
X132571428Y-131907200D01*
X132571428Y-131907200D02*
X132666666Y-131811961D01*
X132666666Y-131811961D02*
X132714285Y-131716723D01*
X132714285Y-131716723D02*
X132761904Y-131526247D01*
X132761904Y-131526247D02*
X132761904Y-131383390D01*
X132761904Y-131383390D02*
X132714285Y-131192914D01*
X132714285Y-131192914D02*
X132666666Y-131097676D01*
X132666666Y-131097676D02*
X132571428Y-131002438D01*
X132571428Y-131002438D02*
X132428571Y-130954819D01*
X132428571Y-130954819D02*
X132333333Y-130954819D01*
X132333333Y-130954819D02*
X132190476Y-131002438D01*
X132190476Y-131002438D02*
X132142857Y-131050057D01*
X131190476Y-131954819D02*
X131761904Y-131954819D01*
X131476190Y-131954819D02*
X131476190Y-130954819D01*
X131476190Y-130954819D02*
X131571428Y-131097676D01*
X131571428Y-131097676D02*
X131666666Y-131192914D01*
X131666666Y-131192914D02*
X131761904Y-131240533D01*
X130333333Y-131288152D02*
X130333333Y-131954819D01*
X130571428Y-130907200D02*
X130809523Y-131621485D01*
X130809523Y-131621485D02*
X130190476Y-131621485D01*
X149392857Y-72204819D02*
X149726190Y-71728628D01*
X149964285Y-72204819D02*
X149964285Y-71204819D01*
X149964285Y-71204819D02*
X149583333Y-71204819D01*
X149583333Y-71204819D02*
X149488095Y-71252438D01*
X149488095Y-71252438D02*
X149440476Y-71300057D01*
X149440476Y-71300057D02*
X149392857Y-71395295D01*
X149392857Y-71395295D02*
X149392857Y-71538152D01*
X149392857Y-71538152D02*
X149440476Y-71633390D01*
X149440476Y-71633390D02*
X149488095Y-71681009D01*
X149488095Y-71681009D02*
X149583333Y-71728628D01*
X149583333Y-71728628D02*
X149964285Y-71728628D01*
X149059523Y-71204819D02*
X148440476Y-71204819D01*
X148440476Y-71204819D02*
X148773809Y-71585771D01*
X148773809Y-71585771D02*
X148630952Y-71585771D01*
X148630952Y-71585771D02*
X148535714Y-71633390D01*
X148535714Y-71633390D02*
X148488095Y-71681009D01*
X148488095Y-71681009D02*
X148440476Y-71776247D01*
X148440476Y-71776247D02*
X148440476Y-72014342D01*
X148440476Y-72014342D02*
X148488095Y-72109580D01*
X148488095Y-72109580D02*
X148535714Y-72157200D01*
X148535714Y-72157200D02*
X148630952Y-72204819D01*
X148630952Y-72204819D02*
X148916666Y-72204819D01*
X148916666Y-72204819D02*
X149011904Y-72157200D01*
X149011904Y-72157200D02*
X149059523Y-72109580D01*
X147869047Y-71633390D02*
X147964285Y-71585771D01*
X147964285Y-71585771D02*
X148011904Y-71538152D01*
X148011904Y-71538152D02*
X148059523Y-71442914D01*
X148059523Y-71442914D02*
X148059523Y-71395295D01*
X148059523Y-71395295D02*
X148011904Y-71300057D01*
X148011904Y-71300057D02*
X147964285Y-71252438D01*
X147964285Y-71252438D02*
X147869047Y-71204819D01*
X147869047Y-71204819D02*
X147678571Y-71204819D01*
X147678571Y-71204819D02*
X147583333Y-71252438D01*
X147583333Y-71252438D02*
X147535714Y-71300057D01*
X147535714Y-71300057D02*
X147488095Y-71395295D01*
X147488095Y-71395295D02*
X147488095Y-71442914D01*
X147488095Y-71442914D02*
X147535714Y-71538152D01*
X147535714Y-71538152D02*
X147583333Y-71585771D01*
X147583333Y-71585771D02*
X147678571Y-71633390D01*
X147678571Y-71633390D02*
X147869047Y-71633390D01*
X147869047Y-71633390D02*
X147964285Y-71681009D01*
X147964285Y-71681009D02*
X148011904Y-71728628D01*
X148011904Y-71728628D02*
X148059523Y-71823866D01*
X148059523Y-71823866D02*
X148059523Y-72014342D01*
X148059523Y-72014342D02*
X148011904Y-72109580D01*
X148011904Y-72109580D02*
X147964285Y-72157200D01*
X147964285Y-72157200D02*
X147869047Y-72204819D01*
X147869047Y-72204819D02*
X147678571Y-72204819D01*
X147678571Y-72204819D02*
X147583333Y-72157200D01*
X147583333Y-72157200D02*
X147535714Y-72109580D01*
X147535714Y-72109580D02*
X147488095Y-72014342D01*
X147488095Y-72014342D02*
X147488095Y-71823866D01*
X147488095Y-71823866D02*
X147535714Y-71728628D01*
X147535714Y-71728628D02*
X147583333Y-71681009D01*
X147583333Y-71681009D02*
X147678571Y-71633390D01*
X160916666Y-62359580D02*
X160964285Y-62407200D01*
X160964285Y-62407200D02*
X161107142Y-62454819D01*
X161107142Y-62454819D02*
X161202380Y-62454819D01*
X161202380Y-62454819D02*
X161345237Y-62407200D01*
X161345237Y-62407200D02*
X161440475Y-62311961D01*
X161440475Y-62311961D02*
X161488094Y-62216723D01*
X161488094Y-62216723D02*
X161535713Y-62026247D01*
X161535713Y-62026247D02*
X161535713Y-61883390D01*
X161535713Y-61883390D02*
X161488094Y-61692914D01*
X161488094Y-61692914D02*
X161440475Y-61597676D01*
X161440475Y-61597676D02*
X161345237Y-61502438D01*
X161345237Y-61502438D02*
X161202380Y-61454819D01*
X161202380Y-61454819D02*
X161107142Y-61454819D01*
X161107142Y-61454819D02*
X160964285Y-61502438D01*
X160964285Y-61502438D02*
X160916666Y-61550057D01*
X160059523Y-61454819D02*
X160249999Y-61454819D01*
X160249999Y-61454819D02*
X160345237Y-61502438D01*
X160345237Y-61502438D02*
X160392856Y-61550057D01*
X160392856Y-61550057D02*
X160488094Y-61692914D01*
X160488094Y-61692914D02*
X160535713Y-61883390D01*
X160535713Y-61883390D02*
X160535713Y-62264342D01*
X160535713Y-62264342D02*
X160488094Y-62359580D01*
X160488094Y-62359580D02*
X160440475Y-62407200D01*
X160440475Y-62407200D02*
X160345237Y-62454819D01*
X160345237Y-62454819D02*
X160154761Y-62454819D01*
X160154761Y-62454819D02*
X160059523Y-62407200D01*
X160059523Y-62407200D02*
X160011904Y-62359580D01*
X160011904Y-62359580D02*
X159964285Y-62264342D01*
X159964285Y-62264342D02*
X159964285Y-62026247D01*
X159964285Y-62026247D02*
X160011904Y-61931009D01*
X160011904Y-61931009D02*
X160059523Y-61883390D01*
X160059523Y-61883390D02*
X160154761Y-61835771D01*
X160154761Y-61835771D02*
X160345237Y-61835771D01*
X160345237Y-61835771D02*
X160440475Y-61883390D01*
X160440475Y-61883390D02*
X160488094Y-61931009D01*
X160488094Y-61931009D02*
X160535713Y-62026247D01*
X155416666Y-114859580D02*
X155464285Y-114907200D01*
X155464285Y-114907200D02*
X155607142Y-114954819D01*
X155607142Y-114954819D02*
X155702380Y-114954819D01*
X155702380Y-114954819D02*
X155845237Y-114907200D01*
X155845237Y-114907200D02*
X155940475Y-114811961D01*
X155940475Y-114811961D02*
X155988094Y-114716723D01*
X155988094Y-114716723D02*
X156035713Y-114526247D01*
X156035713Y-114526247D02*
X156035713Y-114383390D01*
X156035713Y-114383390D02*
X155988094Y-114192914D01*
X155988094Y-114192914D02*
X155940475Y-114097676D01*
X155940475Y-114097676D02*
X155845237Y-114002438D01*
X155845237Y-114002438D02*
X155702380Y-113954819D01*
X155702380Y-113954819D02*
X155607142Y-113954819D01*
X155607142Y-113954819D02*
X155464285Y-114002438D01*
X155464285Y-114002438D02*
X155416666Y-114050057D01*
X154511904Y-113954819D02*
X154988094Y-113954819D01*
X154988094Y-113954819D02*
X155035713Y-114431009D01*
X155035713Y-114431009D02*
X154988094Y-114383390D01*
X154988094Y-114383390D02*
X154892856Y-114335771D01*
X154892856Y-114335771D02*
X154654761Y-114335771D01*
X154654761Y-114335771D02*
X154559523Y-114383390D01*
X154559523Y-114383390D02*
X154511904Y-114431009D01*
X154511904Y-114431009D02*
X154464285Y-114526247D01*
X154464285Y-114526247D02*
X154464285Y-114764342D01*
X154464285Y-114764342D02*
X154511904Y-114859580D01*
X154511904Y-114859580D02*
X154559523Y-114907200D01*
X154559523Y-114907200D02*
X154654761Y-114954819D01*
X154654761Y-114954819D02*
X154892856Y-114954819D01*
X154892856Y-114954819D02*
X154988094Y-114907200D01*
X154988094Y-114907200D02*
X155035713Y-114859580D01*
X126642857Y-134454819D02*
X126976190Y-133978628D01*
X127214285Y-134454819D02*
X127214285Y-133454819D01*
X127214285Y-133454819D02*
X126833333Y-133454819D01*
X126833333Y-133454819D02*
X126738095Y-133502438D01*
X126738095Y-133502438D02*
X126690476Y-133550057D01*
X126690476Y-133550057D02*
X126642857Y-133645295D01*
X126642857Y-133645295D02*
X126642857Y-133788152D01*
X126642857Y-133788152D02*
X126690476Y-133883390D01*
X126690476Y-133883390D02*
X126738095Y-133931009D01*
X126738095Y-133931009D02*
X126833333Y-133978628D01*
X126833333Y-133978628D02*
X127214285Y-133978628D01*
X126261904Y-133550057D02*
X126214285Y-133502438D01*
X126214285Y-133502438D02*
X126119047Y-133454819D01*
X126119047Y-133454819D02*
X125880952Y-133454819D01*
X125880952Y-133454819D02*
X125785714Y-133502438D01*
X125785714Y-133502438D02*
X125738095Y-133550057D01*
X125738095Y-133550057D02*
X125690476Y-133645295D01*
X125690476Y-133645295D02*
X125690476Y-133740533D01*
X125690476Y-133740533D02*
X125738095Y-133883390D01*
X125738095Y-133883390D02*
X126309523Y-134454819D01*
X126309523Y-134454819D02*
X125690476Y-134454819D01*
X125357142Y-133454819D02*
X124738095Y-133454819D01*
X124738095Y-133454819D02*
X125071428Y-133835771D01*
X125071428Y-133835771D02*
X124928571Y-133835771D01*
X124928571Y-133835771D02*
X124833333Y-133883390D01*
X124833333Y-133883390D02*
X124785714Y-133931009D01*
X124785714Y-133931009D02*
X124738095Y-134026247D01*
X124738095Y-134026247D02*
X124738095Y-134264342D01*
X124738095Y-134264342D02*
X124785714Y-134359580D01*
X124785714Y-134359580D02*
X124833333Y-134407200D01*
X124833333Y-134407200D02*
X124928571Y-134454819D01*
X124928571Y-134454819D02*
X125214285Y-134454819D01*
X125214285Y-134454819D02*
X125309523Y-134407200D01*
X125309523Y-134407200D02*
X125357142Y-134359580D01*
X153238094Y-105954819D02*
X153238094Y-104954819D01*
X153238094Y-104954819D02*
X152999999Y-104954819D01*
X152999999Y-104954819D02*
X152857142Y-105002438D01*
X152857142Y-105002438D02*
X152761904Y-105097676D01*
X152761904Y-105097676D02*
X152714285Y-105192914D01*
X152714285Y-105192914D02*
X152666666Y-105383390D01*
X152666666Y-105383390D02*
X152666666Y-105526247D01*
X152666666Y-105526247D02*
X152714285Y-105716723D01*
X152714285Y-105716723D02*
X152761904Y-105811961D01*
X152761904Y-105811961D02*
X152857142Y-105907200D01*
X152857142Y-105907200D02*
X152999999Y-105954819D01*
X152999999Y-105954819D02*
X153238094Y-105954819D01*
X151809523Y-104954819D02*
X151999999Y-104954819D01*
X151999999Y-104954819D02*
X152095237Y-105002438D01*
X152095237Y-105002438D02*
X152142856Y-105050057D01*
X152142856Y-105050057D02*
X152238094Y-105192914D01*
X152238094Y-105192914D02*
X152285713Y-105383390D01*
X152285713Y-105383390D02*
X152285713Y-105764342D01*
X152285713Y-105764342D02*
X152238094Y-105859580D01*
X152238094Y-105859580D02*
X152190475Y-105907200D01*
X152190475Y-105907200D02*
X152095237Y-105954819D01*
X152095237Y-105954819D02*
X151904761Y-105954819D01*
X151904761Y-105954819D02*
X151809523Y-105907200D01*
X151809523Y-105907200D02*
X151761904Y-105859580D01*
X151761904Y-105859580D02*
X151714285Y-105764342D01*
X151714285Y-105764342D02*
X151714285Y-105526247D01*
X151714285Y-105526247D02*
X151761904Y-105431009D01*
X151761904Y-105431009D02*
X151809523Y-105383390D01*
X151809523Y-105383390D02*
X151904761Y-105335771D01*
X151904761Y-105335771D02*
X152095237Y-105335771D01*
X152095237Y-105335771D02*
X152190475Y-105383390D01*
X152190475Y-105383390D02*
X152238094Y-105431009D01*
X152238094Y-105431009D02*
X152285713Y-105526247D01*
X104690475Y-70954819D02*
X104357142Y-71954819D01*
X104357142Y-71954819D02*
X104023809Y-70954819D01*
X103833332Y-70954819D02*
X103261904Y-70954819D01*
X103547618Y-71954819D02*
X103547618Y-70954819D01*
X102404761Y-71954819D02*
X102976189Y-71954819D01*
X102690475Y-71954819D02*
X102690475Y-70954819D01*
X102690475Y-70954819D02*
X102785713Y-71097676D01*
X102785713Y-71097676D02*
X102880951Y-71192914D01*
X102880951Y-71192914D02*
X102976189Y-71240533D01*
X93142857Y-79204819D02*
X93476190Y-78728628D01*
X93714285Y-79204819D02*
X93714285Y-78204819D01*
X93714285Y-78204819D02*
X93333333Y-78204819D01*
X93333333Y-78204819D02*
X93238095Y-78252438D01*
X93238095Y-78252438D02*
X93190476Y-78300057D01*
X93190476Y-78300057D02*
X93142857Y-78395295D01*
X93142857Y-78395295D02*
X93142857Y-78538152D01*
X93142857Y-78538152D02*
X93190476Y-78633390D01*
X93190476Y-78633390D02*
X93238095Y-78681009D01*
X93238095Y-78681009D02*
X93333333Y-78728628D01*
X93333333Y-78728628D02*
X93714285Y-78728628D01*
X92285714Y-78538152D02*
X92285714Y-79204819D01*
X92523809Y-78157200D02*
X92761904Y-78871485D01*
X92761904Y-78871485D02*
X92142857Y-78871485D01*
X91333333Y-78204819D02*
X91523809Y-78204819D01*
X91523809Y-78204819D02*
X91619047Y-78252438D01*
X91619047Y-78252438D02*
X91666666Y-78300057D01*
X91666666Y-78300057D02*
X91761904Y-78442914D01*
X91761904Y-78442914D02*
X91809523Y-78633390D01*
X91809523Y-78633390D02*
X91809523Y-79014342D01*
X91809523Y-79014342D02*
X91761904Y-79109580D01*
X91761904Y-79109580D02*
X91714285Y-79157200D01*
X91714285Y-79157200D02*
X91619047Y-79204819D01*
X91619047Y-79204819D02*
X91428571Y-79204819D01*
X91428571Y-79204819D02*
X91333333Y-79157200D01*
X91333333Y-79157200D02*
X91285714Y-79109580D01*
X91285714Y-79109580D02*
X91238095Y-79014342D01*
X91238095Y-79014342D02*
X91238095Y-78776247D01*
X91238095Y-78776247D02*
X91285714Y-78681009D01*
X91285714Y-78681009D02*
X91333333Y-78633390D01*
X91333333Y-78633390D02*
X91428571Y-78585771D01*
X91428571Y-78585771D02*
X91619047Y-78585771D01*
X91619047Y-78585771D02*
X91714285Y-78633390D01*
X91714285Y-78633390D02*
X91761904Y-78681009D01*
X91761904Y-78681009D02*
X91809523Y-78776247D01*
X108166666Y-120704819D02*
X108499999Y-120228628D01*
X108738094Y-120704819D02*
X108738094Y-119704819D01*
X108738094Y-119704819D02*
X108357142Y-119704819D01*
X108357142Y-119704819D02*
X108261904Y-119752438D01*
X108261904Y-119752438D02*
X108214285Y-119800057D01*
X108214285Y-119800057D02*
X108166666Y-119895295D01*
X108166666Y-119895295D02*
X108166666Y-120038152D01*
X108166666Y-120038152D02*
X108214285Y-120133390D01*
X108214285Y-120133390D02*
X108261904Y-120181009D01*
X108261904Y-120181009D02*
X108357142Y-120228628D01*
X108357142Y-120228628D02*
X108738094Y-120228628D01*
X107214285Y-120704819D02*
X107785713Y-120704819D01*
X107499999Y-120704819D02*
X107499999Y-119704819D01*
X107499999Y-119704819D02*
X107595237Y-119847676D01*
X107595237Y-119847676D02*
X107690475Y-119942914D01*
X107690475Y-119942914D02*
X107785713Y-119990533D01*
X100642857Y-136609580D02*
X100690476Y-136657200D01*
X100690476Y-136657200D02*
X100833333Y-136704819D01*
X100833333Y-136704819D02*
X100928571Y-136704819D01*
X100928571Y-136704819D02*
X101071428Y-136657200D01*
X101071428Y-136657200D02*
X101166666Y-136561961D01*
X101166666Y-136561961D02*
X101214285Y-136466723D01*
X101214285Y-136466723D02*
X101261904Y-136276247D01*
X101261904Y-136276247D02*
X101261904Y-136133390D01*
X101261904Y-136133390D02*
X101214285Y-135942914D01*
X101214285Y-135942914D02*
X101166666Y-135847676D01*
X101166666Y-135847676D02*
X101071428Y-135752438D01*
X101071428Y-135752438D02*
X100928571Y-135704819D01*
X100928571Y-135704819D02*
X100833333Y-135704819D01*
X100833333Y-135704819D02*
X100690476Y-135752438D01*
X100690476Y-135752438D02*
X100642857Y-135800057D01*
X99690476Y-136704819D02*
X100261904Y-136704819D01*
X99976190Y-136704819D02*
X99976190Y-135704819D01*
X99976190Y-135704819D02*
X100071428Y-135847676D01*
X100071428Y-135847676D02*
X100166666Y-135942914D01*
X100166666Y-135942914D02*
X100261904Y-135990533D01*
X98738095Y-136704819D02*
X99309523Y-136704819D01*
X99023809Y-136704819D02*
X99023809Y-135704819D01*
X99023809Y-135704819D02*
X99119047Y-135847676D01*
X99119047Y-135847676D02*
X99214285Y-135942914D01*
X99214285Y-135942914D02*
X99309523Y-135990533D01*
X143416666Y-118859580D02*
X143464285Y-118907200D01*
X143464285Y-118907200D02*
X143607142Y-118954819D01*
X143607142Y-118954819D02*
X143702380Y-118954819D01*
X143702380Y-118954819D02*
X143845237Y-118907200D01*
X143845237Y-118907200D02*
X143940475Y-118811961D01*
X143940475Y-118811961D02*
X143988094Y-118716723D01*
X143988094Y-118716723D02*
X144035713Y-118526247D01*
X144035713Y-118526247D02*
X144035713Y-118383390D01*
X144035713Y-118383390D02*
X143988094Y-118192914D01*
X143988094Y-118192914D02*
X143940475Y-118097676D01*
X143940475Y-118097676D02*
X143845237Y-118002438D01*
X143845237Y-118002438D02*
X143702380Y-117954819D01*
X143702380Y-117954819D02*
X143607142Y-117954819D01*
X143607142Y-117954819D02*
X143464285Y-118002438D01*
X143464285Y-118002438D02*
X143416666Y-118050057D01*
X143083332Y-117954819D02*
X142464285Y-117954819D01*
X142464285Y-117954819D02*
X142797618Y-118335771D01*
X142797618Y-118335771D02*
X142654761Y-118335771D01*
X142654761Y-118335771D02*
X142559523Y-118383390D01*
X142559523Y-118383390D02*
X142511904Y-118431009D01*
X142511904Y-118431009D02*
X142464285Y-118526247D01*
X142464285Y-118526247D02*
X142464285Y-118764342D01*
X142464285Y-118764342D02*
X142511904Y-118859580D01*
X142511904Y-118859580D02*
X142559523Y-118907200D01*
X142559523Y-118907200D02*
X142654761Y-118954819D01*
X142654761Y-118954819D02*
X142940475Y-118954819D01*
X142940475Y-118954819D02*
X143035713Y-118907200D01*
X143035713Y-118907200D02*
X143083332Y-118859580D01*
X109642857Y-60604819D02*
X109976190Y-60128628D01*
X110214285Y-60604819D02*
X110214285Y-59604819D01*
X110214285Y-59604819D02*
X109833333Y-59604819D01*
X109833333Y-59604819D02*
X109738095Y-59652438D01*
X109738095Y-59652438D02*
X109690476Y-59700057D01*
X109690476Y-59700057D02*
X109642857Y-59795295D01*
X109642857Y-59795295D02*
X109642857Y-59938152D01*
X109642857Y-59938152D02*
X109690476Y-60033390D01*
X109690476Y-60033390D02*
X109738095Y-60081009D01*
X109738095Y-60081009D02*
X109833333Y-60128628D01*
X109833333Y-60128628D02*
X110214285Y-60128628D01*
X108690476Y-60604819D02*
X109261904Y-60604819D01*
X108976190Y-60604819D02*
X108976190Y-59604819D01*
X108976190Y-59604819D02*
X109071428Y-59747676D01*
X109071428Y-59747676D02*
X109166666Y-59842914D01*
X109166666Y-59842914D02*
X109261904Y-59890533D01*
X108119047Y-60033390D02*
X108214285Y-59985771D01*
X108214285Y-59985771D02*
X108261904Y-59938152D01*
X108261904Y-59938152D02*
X108309523Y-59842914D01*
X108309523Y-59842914D02*
X108309523Y-59795295D01*
X108309523Y-59795295D02*
X108261904Y-59700057D01*
X108261904Y-59700057D02*
X108214285Y-59652438D01*
X108214285Y-59652438D02*
X108119047Y-59604819D01*
X108119047Y-59604819D02*
X107928571Y-59604819D01*
X107928571Y-59604819D02*
X107833333Y-59652438D01*
X107833333Y-59652438D02*
X107785714Y-59700057D01*
X107785714Y-59700057D02*
X107738095Y-59795295D01*
X107738095Y-59795295D02*
X107738095Y-59842914D01*
X107738095Y-59842914D02*
X107785714Y-59938152D01*
X107785714Y-59938152D02*
X107833333Y-59985771D01*
X107833333Y-59985771D02*
X107928571Y-60033390D01*
X107928571Y-60033390D02*
X108119047Y-60033390D01*
X108119047Y-60033390D02*
X108214285Y-60081009D01*
X108214285Y-60081009D02*
X108261904Y-60128628D01*
X108261904Y-60128628D02*
X108309523Y-60223866D01*
X108309523Y-60223866D02*
X108309523Y-60414342D01*
X108309523Y-60414342D02*
X108261904Y-60509580D01*
X108261904Y-60509580D02*
X108214285Y-60557200D01*
X108214285Y-60557200D02*
X108119047Y-60604819D01*
X108119047Y-60604819D02*
X107928571Y-60604819D01*
X107928571Y-60604819D02*
X107833333Y-60557200D01*
X107833333Y-60557200D02*
X107785714Y-60509580D01*
X107785714Y-60509580D02*
X107738095Y-60414342D01*
X107738095Y-60414342D02*
X107738095Y-60223866D01*
X107738095Y-60223866D02*
X107785714Y-60128628D01*
X107785714Y-60128628D02*
X107833333Y-60081009D01*
X107833333Y-60081009D02*
X107928571Y-60033390D01*
X159392857Y-132929580D02*
X159440476Y-132977200D01*
X159440476Y-132977200D02*
X159583333Y-133024819D01*
X159583333Y-133024819D02*
X159678571Y-133024819D01*
X159678571Y-133024819D02*
X159821428Y-132977200D01*
X159821428Y-132977200D02*
X159916666Y-132881961D01*
X159916666Y-132881961D02*
X159964285Y-132786723D01*
X159964285Y-132786723D02*
X160011904Y-132596247D01*
X160011904Y-132596247D02*
X160011904Y-132453390D01*
X160011904Y-132453390D02*
X159964285Y-132262914D01*
X159964285Y-132262914D02*
X159916666Y-132167676D01*
X159916666Y-132167676D02*
X159821428Y-132072438D01*
X159821428Y-132072438D02*
X159678571Y-132024819D01*
X159678571Y-132024819D02*
X159583333Y-132024819D01*
X159583333Y-132024819D02*
X159440476Y-132072438D01*
X159440476Y-132072438D02*
X159392857Y-132120057D01*
X158440476Y-133024819D02*
X159011904Y-133024819D01*
X158726190Y-133024819D02*
X158726190Y-132024819D01*
X158726190Y-132024819D02*
X158821428Y-132167676D01*
X158821428Y-132167676D02*
X158916666Y-132262914D01*
X158916666Y-132262914D02*
X159011904Y-132310533D01*
X157583333Y-132024819D02*
X157773809Y-132024819D01*
X157773809Y-132024819D02*
X157869047Y-132072438D01*
X157869047Y-132072438D02*
X157916666Y-132120057D01*
X157916666Y-132120057D02*
X158011904Y-132262914D01*
X158011904Y-132262914D02*
X158059523Y-132453390D01*
X158059523Y-132453390D02*
X158059523Y-132834342D01*
X158059523Y-132834342D02*
X158011904Y-132929580D01*
X158011904Y-132929580D02*
X157964285Y-132977200D01*
X157964285Y-132977200D02*
X157869047Y-133024819D01*
X157869047Y-133024819D02*
X157678571Y-133024819D01*
X157678571Y-133024819D02*
X157583333Y-132977200D01*
X157583333Y-132977200D02*
X157535714Y-132929580D01*
X157535714Y-132929580D02*
X157488095Y-132834342D01*
X157488095Y-132834342D02*
X157488095Y-132596247D01*
X157488095Y-132596247D02*
X157535714Y-132501009D01*
X157535714Y-132501009D02*
X157583333Y-132453390D01*
X157583333Y-132453390D02*
X157678571Y-132405771D01*
X157678571Y-132405771D02*
X157869047Y-132405771D01*
X157869047Y-132405771D02*
X157964285Y-132453390D01*
X157964285Y-132453390D02*
X158011904Y-132501009D01*
X158011904Y-132501009D02*
X158059523Y-132596247D01*
X98892857Y-78604819D02*
X99226190Y-78128628D01*
X99464285Y-78604819D02*
X99464285Y-77604819D01*
X99464285Y-77604819D02*
X99083333Y-77604819D01*
X99083333Y-77604819D02*
X98988095Y-77652438D01*
X98988095Y-77652438D02*
X98940476Y-77700057D01*
X98940476Y-77700057D02*
X98892857Y-77795295D01*
X98892857Y-77795295D02*
X98892857Y-77938152D01*
X98892857Y-77938152D02*
X98940476Y-78033390D01*
X98940476Y-78033390D02*
X98988095Y-78081009D01*
X98988095Y-78081009D02*
X99083333Y-78128628D01*
X99083333Y-78128628D02*
X99464285Y-78128628D01*
X97940476Y-78604819D02*
X98511904Y-78604819D01*
X98226190Y-78604819D02*
X98226190Y-77604819D01*
X98226190Y-77604819D02*
X98321428Y-77747676D01*
X98321428Y-77747676D02*
X98416666Y-77842914D01*
X98416666Y-77842914D02*
X98511904Y-77890533D01*
X97464285Y-78604819D02*
X97273809Y-78604819D01*
X97273809Y-78604819D02*
X97178571Y-78557200D01*
X97178571Y-78557200D02*
X97130952Y-78509580D01*
X97130952Y-78509580D02*
X97035714Y-78366723D01*
X97035714Y-78366723D02*
X96988095Y-78176247D01*
X96988095Y-78176247D02*
X96988095Y-77795295D01*
X96988095Y-77795295D02*
X97035714Y-77700057D01*
X97035714Y-77700057D02*
X97083333Y-77652438D01*
X97083333Y-77652438D02*
X97178571Y-77604819D01*
X97178571Y-77604819D02*
X97369047Y-77604819D01*
X97369047Y-77604819D02*
X97464285Y-77652438D01*
X97464285Y-77652438D02*
X97511904Y-77700057D01*
X97511904Y-77700057D02*
X97559523Y-77795295D01*
X97559523Y-77795295D02*
X97559523Y-78033390D01*
X97559523Y-78033390D02*
X97511904Y-78128628D01*
X97511904Y-78128628D02*
X97464285Y-78176247D01*
X97464285Y-78176247D02*
X97369047Y-78223866D01*
X97369047Y-78223866D02*
X97178571Y-78223866D01*
X97178571Y-78223866D02*
X97083333Y-78176247D01*
X97083333Y-78176247D02*
X97035714Y-78128628D01*
X97035714Y-78128628D02*
X96988095Y-78033390D01*
X104940475Y-59567319D02*
X104607142Y-60567319D01*
X104607142Y-60567319D02*
X104273809Y-59567319D01*
X104083332Y-59567319D02*
X103511904Y-59567319D01*
X103797618Y-60567319D02*
X103797618Y-59567319D01*
X103273808Y-59567319D02*
X102654761Y-59567319D01*
X102654761Y-59567319D02*
X102988094Y-59948271D01*
X102988094Y-59948271D02*
X102845237Y-59948271D01*
X102845237Y-59948271D02*
X102749999Y-59995890D01*
X102749999Y-59995890D02*
X102702380Y-60043509D01*
X102702380Y-60043509D02*
X102654761Y-60138747D01*
X102654761Y-60138747D02*
X102654761Y-60376842D01*
X102654761Y-60376842D02*
X102702380Y-60472080D01*
X102702380Y-60472080D02*
X102749999Y-60519700D01*
X102749999Y-60519700D02*
X102845237Y-60567319D01*
X102845237Y-60567319D02*
X103130951Y-60567319D01*
X103130951Y-60567319D02*
X103226189Y-60519700D01*
X103226189Y-60519700D02*
X103273808Y-60472080D01*
X120142857Y-58359580D02*
X120190476Y-58407200D01*
X120190476Y-58407200D02*
X120333333Y-58454819D01*
X120333333Y-58454819D02*
X120428571Y-58454819D01*
X120428571Y-58454819D02*
X120571428Y-58407200D01*
X120571428Y-58407200D02*
X120666666Y-58311961D01*
X120666666Y-58311961D02*
X120714285Y-58216723D01*
X120714285Y-58216723D02*
X120761904Y-58026247D01*
X120761904Y-58026247D02*
X120761904Y-57883390D01*
X120761904Y-57883390D02*
X120714285Y-57692914D01*
X120714285Y-57692914D02*
X120666666Y-57597676D01*
X120666666Y-57597676D02*
X120571428Y-57502438D01*
X120571428Y-57502438D02*
X120428571Y-57454819D01*
X120428571Y-57454819D02*
X120333333Y-57454819D01*
X120333333Y-57454819D02*
X120190476Y-57502438D01*
X120190476Y-57502438D02*
X120142857Y-57550057D01*
X119761904Y-57550057D02*
X119714285Y-57502438D01*
X119714285Y-57502438D02*
X119619047Y-57454819D01*
X119619047Y-57454819D02*
X119380952Y-57454819D01*
X119380952Y-57454819D02*
X119285714Y-57502438D01*
X119285714Y-57502438D02*
X119238095Y-57550057D01*
X119238095Y-57550057D02*
X119190476Y-57645295D01*
X119190476Y-57645295D02*
X119190476Y-57740533D01*
X119190476Y-57740533D02*
X119238095Y-57883390D01*
X119238095Y-57883390D02*
X119809523Y-58454819D01*
X119809523Y-58454819D02*
X119190476Y-58454819D01*
X118714285Y-58454819D02*
X118523809Y-58454819D01*
X118523809Y-58454819D02*
X118428571Y-58407200D01*
X118428571Y-58407200D02*
X118380952Y-58359580D01*
X118380952Y-58359580D02*
X118285714Y-58216723D01*
X118285714Y-58216723D02*
X118238095Y-58026247D01*
X118238095Y-58026247D02*
X118238095Y-57645295D01*
X118238095Y-57645295D02*
X118285714Y-57550057D01*
X118285714Y-57550057D02*
X118333333Y-57502438D01*
X118333333Y-57502438D02*
X118428571Y-57454819D01*
X118428571Y-57454819D02*
X118619047Y-57454819D01*
X118619047Y-57454819D02*
X118714285Y-57502438D01*
X118714285Y-57502438D02*
X118761904Y-57550057D01*
X118761904Y-57550057D02*
X118809523Y-57645295D01*
X118809523Y-57645295D02*
X118809523Y-57883390D01*
X118809523Y-57883390D02*
X118761904Y-57978628D01*
X118761904Y-57978628D02*
X118714285Y-58026247D01*
X118714285Y-58026247D02*
X118619047Y-58073866D01*
X118619047Y-58073866D02*
X118428571Y-58073866D01*
X118428571Y-58073866D02*
X118333333Y-58026247D01*
X118333333Y-58026247D02*
X118285714Y-57978628D01*
X118285714Y-57978628D02*
X118238095Y-57883390D01*
X117454166Y-84759580D02*
X117501785Y-84807200D01*
X117501785Y-84807200D02*
X117644642Y-84854819D01*
X117644642Y-84854819D02*
X117739880Y-84854819D01*
X117739880Y-84854819D02*
X117882737Y-84807200D01*
X117882737Y-84807200D02*
X117977975Y-84711961D01*
X117977975Y-84711961D02*
X118025594Y-84616723D01*
X118025594Y-84616723D02*
X118073213Y-84426247D01*
X118073213Y-84426247D02*
X118073213Y-84283390D01*
X118073213Y-84283390D02*
X118025594Y-84092914D01*
X118025594Y-84092914D02*
X117977975Y-83997676D01*
X117977975Y-83997676D02*
X117882737Y-83902438D01*
X117882737Y-83902438D02*
X117739880Y-83854819D01*
X117739880Y-83854819D02*
X117644642Y-83854819D01*
X117644642Y-83854819D02*
X117501785Y-83902438D01*
X117501785Y-83902438D02*
X117454166Y-83950057D01*
X116501785Y-84854819D02*
X117073213Y-84854819D01*
X116787499Y-84854819D02*
X116787499Y-83854819D01*
X116787499Y-83854819D02*
X116882737Y-83997676D01*
X116882737Y-83997676D02*
X116977975Y-84092914D01*
X116977975Y-84092914D02*
X117073213Y-84140533D01*
X103642857Y-67104819D02*
X103976190Y-66628628D01*
X104214285Y-67104819D02*
X104214285Y-66104819D01*
X104214285Y-66104819D02*
X103833333Y-66104819D01*
X103833333Y-66104819D02*
X103738095Y-66152438D01*
X103738095Y-66152438D02*
X103690476Y-66200057D01*
X103690476Y-66200057D02*
X103642857Y-66295295D01*
X103642857Y-66295295D02*
X103642857Y-66438152D01*
X103642857Y-66438152D02*
X103690476Y-66533390D01*
X103690476Y-66533390D02*
X103738095Y-66581009D01*
X103738095Y-66581009D02*
X103833333Y-66628628D01*
X103833333Y-66628628D02*
X104214285Y-66628628D01*
X103309523Y-66104819D02*
X102690476Y-66104819D01*
X102690476Y-66104819D02*
X103023809Y-66485771D01*
X103023809Y-66485771D02*
X102880952Y-66485771D01*
X102880952Y-66485771D02*
X102785714Y-66533390D01*
X102785714Y-66533390D02*
X102738095Y-66581009D01*
X102738095Y-66581009D02*
X102690476Y-66676247D01*
X102690476Y-66676247D02*
X102690476Y-66914342D01*
X102690476Y-66914342D02*
X102738095Y-67009580D01*
X102738095Y-67009580D02*
X102785714Y-67057200D01*
X102785714Y-67057200D02*
X102880952Y-67104819D01*
X102880952Y-67104819D02*
X103166666Y-67104819D01*
X103166666Y-67104819D02*
X103261904Y-67057200D01*
X103261904Y-67057200D02*
X103309523Y-67009580D01*
X101738095Y-67104819D02*
X102309523Y-67104819D01*
X102023809Y-67104819D02*
X102023809Y-66104819D01*
X102023809Y-66104819D02*
X102119047Y-66247676D01*
X102119047Y-66247676D02*
X102214285Y-66342914D01*
X102214285Y-66342914D02*
X102309523Y-66390533D01*
X103642857Y-57104819D02*
X103976190Y-56628628D01*
X104214285Y-57104819D02*
X104214285Y-56104819D01*
X104214285Y-56104819D02*
X103833333Y-56104819D01*
X103833333Y-56104819D02*
X103738095Y-56152438D01*
X103738095Y-56152438D02*
X103690476Y-56200057D01*
X103690476Y-56200057D02*
X103642857Y-56295295D01*
X103642857Y-56295295D02*
X103642857Y-56438152D01*
X103642857Y-56438152D02*
X103690476Y-56533390D01*
X103690476Y-56533390D02*
X103738095Y-56581009D01*
X103738095Y-56581009D02*
X103833333Y-56628628D01*
X103833333Y-56628628D02*
X104214285Y-56628628D01*
X103309523Y-56104819D02*
X102690476Y-56104819D01*
X102690476Y-56104819D02*
X103023809Y-56485771D01*
X103023809Y-56485771D02*
X102880952Y-56485771D01*
X102880952Y-56485771D02*
X102785714Y-56533390D01*
X102785714Y-56533390D02*
X102738095Y-56581009D01*
X102738095Y-56581009D02*
X102690476Y-56676247D01*
X102690476Y-56676247D02*
X102690476Y-56914342D01*
X102690476Y-56914342D02*
X102738095Y-57009580D01*
X102738095Y-57009580D02*
X102785714Y-57057200D01*
X102785714Y-57057200D02*
X102880952Y-57104819D01*
X102880952Y-57104819D02*
X103166666Y-57104819D01*
X103166666Y-57104819D02*
X103261904Y-57057200D01*
X103261904Y-57057200D02*
X103309523Y-57009580D01*
X102309523Y-56200057D02*
X102261904Y-56152438D01*
X102261904Y-56152438D02*
X102166666Y-56104819D01*
X102166666Y-56104819D02*
X101928571Y-56104819D01*
X101928571Y-56104819D02*
X101833333Y-56152438D01*
X101833333Y-56152438D02*
X101785714Y-56200057D01*
X101785714Y-56200057D02*
X101738095Y-56295295D01*
X101738095Y-56295295D02*
X101738095Y-56390533D01*
X101738095Y-56390533D02*
X101785714Y-56533390D01*
X101785714Y-56533390D02*
X102357142Y-57104819D01*
X102357142Y-57104819D02*
X101738095Y-57104819D01*
X159392857Y-125954819D02*
X159726190Y-125478628D01*
X159964285Y-125954819D02*
X159964285Y-124954819D01*
X159964285Y-124954819D02*
X159583333Y-124954819D01*
X159583333Y-124954819D02*
X159488095Y-125002438D01*
X159488095Y-125002438D02*
X159440476Y-125050057D01*
X159440476Y-125050057D02*
X159392857Y-125145295D01*
X159392857Y-125145295D02*
X159392857Y-125288152D01*
X159392857Y-125288152D02*
X159440476Y-125383390D01*
X159440476Y-125383390D02*
X159488095Y-125431009D01*
X159488095Y-125431009D02*
X159583333Y-125478628D01*
X159583333Y-125478628D02*
X159964285Y-125478628D01*
X158440476Y-125954819D02*
X159011904Y-125954819D01*
X158726190Y-125954819D02*
X158726190Y-124954819D01*
X158726190Y-124954819D02*
X158821428Y-125097676D01*
X158821428Y-125097676D02*
X158916666Y-125192914D01*
X158916666Y-125192914D02*
X159011904Y-125240533D01*
X157583333Y-124954819D02*
X157773809Y-124954819D01*
X157773809Y-124954819D02*
X157869047Y-125002438D01*
X157869047Y-125002438D02*
X157916666Y-125050057D01*
X157916666Y-125050057D02*
X158011904Y-125192914D01*
X158011904Y-125192914D02*
X158059523Y-125383390D01*
X158059523Y-125383390D02*
X158059523Y-125764342D01*
X158059523Y-125764342D02*
X158011904Y-125859580D01*
X158011904Y-125859580D02*
X157964285Y-125907200D01*
X157964285Y-125907200D02*
X157869047Y-125954819D01*
X157869047Y-125954819D02*
X157678571Y-125954819D01*
X157678571Y-125954819D02*
X157583333Y-125907200D01*
X157583333Y-125907200D02*
X157535714Y-125859580D01*
X157535714Y-125859580D02*
X157488095Y-125764342D01*
X157488095Y-125764342D02*
X157488095Y-125526247D01*
X157488095Y-125526247D02*
X157535714Y-125431009D01*
X157535714Y-125431009D02*
X157583333Y-125383390D01*
X157583333Y-125383390D02*
X157678571Y-125335771D01*
X157678571Y-125335771D02*
X157869047Y-125335771D01*
X157869047Y-125335771D02*
X157964285Y-125383390D01*
X157964285Y-125383390D02*
X158011904Y-125431009D01*
X158011904Y-125431009D02*
X158059523Y-125526247D01*
X103892857Y-136704819D02*
X104226190Y-136228628D01*
X104464285Y-136704819D02*
X104464285Y-135704819D01*
X104464285Y-135704819D02*
X104083333Y-135704819D01*
X104083333Y-135704819D02*
X103988095Y-135752438D01*
X103988095Y-135752438D02*
X103940476Y-135800057D01*
X103940476Y-135800057D02*
X103892857Y-135895295D01*
X103892857Y-135895295D02*
X103892857Y-136038152D01*
X103892857Y-136038152D02*
X103940476Y-136133390D01*
X103940476Y-136133390D02*
X103988095Y-136181009D01*
X103988095Y-136181009D02*
X104083333Y-136228628D01*
X104083333Y-136228628D02*
X104464285Y-136228628D01*
X103511904Y-135800057D02*
X103464285Y-135752438D01*
X103464285Y-135752438D02*
X103369047Y-135704819D01*
X103369047Y-135704819D02*
X103130952Y-135704819D01*
X103130952Y-135704819D02*
X103035714Y-135752438D01*
X103035714Y-135752438D02*
X102988095Y-135800057D01*
X102988095Y-135800057D02*
X102940476Y-135895295D01*
X102940476Y-135895295D02*
X102940476Y-135990533D01*
X102940476Y-135990533D02*
X102988095Y-136133390D01*
X102988095Y-136133390D02*
X103559523Y-136704819D01*
X103559523Y-136704819D02*
X102940476Y-136704819D01*
X102321428Y-135704819D02*
X102226190Y-135704819D01*
X102226190Y-135704819D02*
X102130952Y-135752438D01*
X102130952Y-135752438D02*
X102083333Y-135800057D01*
X102083333Y-135800057D02*
X102035714Y-135895295D01*
X102035714Y-135895295D02*
X101988095Y-136085771D01*
X101988095Y-136085771D02*
X101988095Y-136323866D01*
X101988095Y-136323866D02*
X102035714Y-136514342D01*
X102035714Y-136514342D02*
X102083333Y-136609580D01*
X102083333Y-136609580D02*
X102130952Y-136657200D01*
X102130952Y-136657200D02*
X102226190Y-136704819D01*
X102226190Y-136704819D02*
X102321428Y-136704819D01*
X102321428Y-136704819D02*
X102416666Y-136657200D01*
X102416666Y-136657200D02*
X102464285Y-136609580D01*
X102464285Y-136609580D02*
X102511904Y-136514342D01*
X102511904Y-136514342D02*
X102559523Y-136323866D01*
X102559523Y-136323866D02*
X102559523Y-136085771D01*
X102559523Y-136085771D02*
X102511904Y-135895295D01*
X102511904Y-135895295D02*
X102464285Y-135800057D01*
X102464285Y-135800057D02*
X102416666Y-135752438D01*
X102416666Y-135752438D02*
X102321428Y-135704819D01*
X116704819Y-129357142D02*
X116228628Y-129023809D01*
X116704819Y-128785714D02*
X115704819Y-128785714D01*
X115704819Y-128785714D02*
X115704819Y-129166666D01*
X115704819Y-129166666D02*
X115752438Y-129261904D01*
X115752438Y-129261904D02*
X115800057Y-129309523D01*
X115800057Y-129309523D02*
X115895295Y-129357142D01*
X115895295Y-129357142D02*
X116038152Y-129357142D01*
X116038152Y-129357142D02*
X116133390Y-129309523D01*
X116133390Y-129309523D02*
X116181009Y-129261904D01*
X116181009Y-129261904D02*
X116228628Y-129166666D01*
X116228628Y-129166666D02*
X116228628Y-128785714D01*
X116704819Y-130309523D02*
X116704819Y-129738095D01*
X116704819Y-130023809D02*
X115704819Y-130023809D01*
X115704819Y-130023809D02*
X115847676Y-129928571D01*
X115847676Y-129928571D02*
X115942914Y-129833333D01*
X115942914Y-129833333D02*
X115990533Y-129738095D01*
X115704819Y-130642857D02*
X115704819Y-131261904D01*
X115704819Y-131261904D02*
X116085771Y-130928571D01*
X116085771Y-130928571D02*
X116085771Y-131071428D01*
X116085771Y-131071428D02*
X116133390Y-131166666D01*
X116133390Y-131166666D02*
X116181009Y-131214285D01*
X116181009Y-131214285D02*
X116276247Y-131261904D01*
X116276247Y-131261904D02*
X116514342Y-131261904D01*
X116514342Y-131261904D02*
X116609580Y-131214285D01*
X116609580Y-131214285D02*
X116657200Y-131166666D01*
X116657200Y-131166666D02*
X116704819Y-131071428D01*
X116704819Y-131071428D02*
X116704819Y-130785714D01*
X116704819Y-130785714D02*
X116657200Y-130690476D01*
X116657200Y-130690476D02*
X116609580Y-130642857D01*
X154892857Y-72204819D02*
X155226190Y-71728628D01*
X155464285Y-72204819D02*
X155464285Y-71204819D01*
X155464285Y-71204819D02*
X155083333Y-71204819D01*
X155083333Y-71204819D02*
X154988095Y-71252438D01*
X154988095Y-71252438D02*
X154940476Y-71300057D01*
X154940476Y-71300057D02*
X154892857Y-71395295D01*
X154892857Y-71395295D02*
X154892857Y-71538152D01*
X154892857Y-71538152D02*
X154940476Y-71633390D01*
X154940476Y-71633390D02*
X154988095Y-71681009D01*
X154988095Y-71681009D02*
X155083333Y-71728628D01*
X155083333Y-71728628D02*
X155464285Y-71728628D01*
X154035714Y-71538152D02*
X154035714Y-72204819D01*
X154273809Y-71157200D02*
X154511904Y-71871485D01*
X154511904Y-71871485D02*
X153892857Y-71871485D01*
X153321428Y-71204819D02*
X153226190Y-71204819D01*
X153226190Y-71204819D02*
X153130952Y-71252438D01*
X153130952Y-71252438D02*
X153083333Y-71300057D01*
X153083333Y-71300057D02*
X153035714Y-71395295D01*
X153035714Y-71395295D02*
X152988095Y-71585771D01*
X152988095Y-71585771D02*
X152988095Y-71823866D01*
X152988095Y-71823866D02*
X153035714Y-72014342D01*
X153035714Y-72014342D02*
X153083333Y-72109580D01*
X153083333Y-72109580D02*
X153130952Y-72157200D01*
X153130952Y-72157200D02*
X153226190Y-72204819D01*
X153226190Y-72204819D02*
X153321428Y-72204819D01*
X153321428Y-72204819D02*
X153416666Y-72157200D01*
X153416666Y-72157200D02*
X153464285Y-72109580D01*
X153464285Y-72109580D02*
X153511904Y-72014342D01*
X153511904Y-72014342D02*
X153559523Y-71823866D01*
X153559523Y-71823866D02*
X153559523Y-71585771D01*
X153559523Y-71585771D02*
X153511904Y-71395295D01*
X153511904Y-71395295D02*
X153464285Y-71300057D01*
X153464285Y-71300057D02*
X153416666Y-71252438D01*
X153416666Y-71252438D02*
X153321428Y-71204819D01*
X131892857Y-80609580D02*
X131940476Y-80657200D01*
X131940476Y-80657200D02*
X132083333Y-80704819D01*
X132083333Y-80704819D02*
X132178571Y-80704819D01*
X132178571Y-80704819D02*
X132321428Y-80657200D01*
X132321428Y-80657200D02*
X132416666Y-80561961D01*
X132416666Y-80561961D02*
X132464285Y-80466723D01*
X132464285Y-80466723D02*
X132511904Y-80276247D01*
X132511904Y-80276247D02*
X132511904Y-80133390D01*
X132511904Y-80133390D02*
X132464285Y-79942914D01*
X132464285Y-79942914D02*
X132416666Y-79847676D01*
X132416666Y-79847676D02*
X132321428Y-79752438D01*
X132321428Y-79752438D02*
X132178571Y-79704819D01*
X132178571Y-79704819D02*
X132083333Y-79704819D01*
X132083333Y-79704819D02*
X131940476Y-79752438D01*
X131940476Y-79752438D02*
X131892857Y-79800057D01*
X130940476Y-80704819D02*
X131511904Y-80704819D01*
X131226190Y-80704819D02*
X131226190Y-79704819D01*
X131226190Y-79704819D02*
X131321428Y-79847676D01*
X131321428Y-79847676D02*
X131416666Y-79942914D01*
X131416666Y-79942914D02*
X131511904Y-79990533D01*
X130607142Y-79704819D02*
X129940476Y-79704819D01*
X129940476Y-79704819D02*
X130369047Y-80704819D01*
X155192857Y-91859580D02*
X155240476Y-91907200D01*
X155240476Y-91907200D02*
X155383333Y-91954819D01*
X155383333Y-91954819D02*
X155478571Y-91954819D01*
X155478571Y-91954819D02*
X155621428Y-91907200D01*
X155621428Y-91907200D02*
X155716666Y-91811961D01*
X155716666Y-91811961D02*
X155764285Y-91716723D01*
X155764285Y-91716723D02*
X155811904Y-91526247D01*
X155811904Y-91526247D02*
X155811904Y-91383390D01*
X155811904Y-91383390D02*
X155764285Y-91192914D01*
X155764285Y-91192914D02*
X155716666Y-91097676D01*
X155716666Y-91097676D02*
X155621428Y-91002438D01*
X155621428Y-91002438D02*
X155478571Y-90954819D01*
X155478571Y-90954819D02*
X155383333Y-90954819D01*
X155383333Y-90954819D02*
X155240476Y-91002438D01*
X155240476Y-91002438D02*
X155192857Y-91050057D01*
X154859523Y-90954819D02*
X154240476Y-90954819D01*
X154240476Y-90954819D02*
X154573809Y-91335771D01*
X154573809Y-91335771D02*
X154430952Y-91335771D01*
X154430952Y-91335771D02*
X154335714Y-91383390D01*
X154335714Y-91383390D02*
X154288095Y-91431009D01*
X154288095Y-91431009D02*
X154240476Y-91526247D01*
X154240476Y-91526247D02*
X154240476Y-91764342D01*
X154240476Y-91764342D02*
X154288095Y-91859580D01*
X154288095Y-91859580D02*
X154335714Y-91907200D01*
X154335714Y-91907200D02*
X154430952Y-91954819D01*
X154430952Y-91954819D02*
X154716666Y-91954819D01*
X154716666Y-91954819D02*
X154811904Y-91907200D01*
X154811904Y-91907200D02*
X154859523Y-91859580D01*
X153383333Y-91288152D02*
X153383333Y-91954819D01*
X153621428Y-90907200D02*
X153859523Y-91621485D01*
X153859523Y-91621485D02*
X153240476Y-91621485D01*
X118642857Y-65859580D02*
X118690476Y-65907200D01*
X118690476Y-65907200D02*
X118833333Y-65954819D01*
X118833333Y-65954819D02*
X118928571Y-65954819D01*
X118928571Y-65954819D02*
X119071428Y-65907200D01*
X119071428Y-65907200D02*
X119166666Y-65811961D01*
X119166666Y-65811961D02*
X119214285Y-65716723D01*
X119214285Y-65716723D02*
X119261904Y-65526247D01*
X119261904Y-65526247D02*
X119261904Y-65383390D01*
X119261904Y-65383390D02*
X119214285Y-65192914D01*
X119214285Y-65192914D02*
X119166666Y-65097676D01*
X119166666Y-65097676D02*
X119071428Y-65002438D01*
X119071428Y-65002438D02*
X118928571Y-64954819D01*
X118928571Y-64954819D02*
X118833333Y-64954819D01*
X118833333Y-64954819D02*
X118690476Y-65002438D01*
X118690476Y-65002438D02*
X118642857Y-65050057D01*
X117690476Y-65954819D02*
X118261904Y-65954819D01*
X117976190Y-65954819D02*
X117976190Y-64954819D01*
X117976190Y-64954819D02*
X118071428Y-65097676D01*
X118071428Y-65097676D02*
X118166666Y-65192914D01*
X118166666Y-65192914D02*
X118261904Y-65240533D01*
X117119047Y-65383390D02*
X117214285Y-65335771D01*
X117214285Y-65335771D02*
X117261904Y-65288152D01*
X117261904Y-65288152D02*
X117309523Y-65192914D01*
X117309523Y-65192914D02*
X117309523Y-65145295D01*
X117309523Y-65145295D02*
X117261904Y-65050057D01*
X117261904Y-65050057D02*
X117214285Y-65002438D01*
X117214285Y-65002438D02*
X117119047Y-64954819D01*
X117119047Y-64954819D02*
X116928571Y-64954819D01*
X116928571Y-64954819D02*
X116833333Y-65002438D01*
X116833333Y-65002438D02*
X116785714Y-65050057D01*
X116785714Y-65050057D02*
X116738095Y-65145295D01*
X116738095Y-65145295D02*
X116738095Y-65192914D01*
X116738095Y-65192914D02*
X116785714Y-65288152D01*
X116785714Y-65288152D02*
X116833333Y-65335771D01*
X116833333Y-65335771D02*
X116928571Y-65383390D01*
X116928571Y-65383390D02*
X117119047Y-65383390D01*
X117119047Y-65383390D02*
X117214285Y-65431009D01*
X117214285Y-65431009D02*
X117261904Y-65478628D01*
X117261904Y-65478628D02*
X117309523Y-65573866D01*
X117309523Y-65573866D02*
X117309523Y-65764342D01*
X117309523Y-65764342D02*
X117261904Y-65859580D01*
X117261904Y-65859580D02*
X117214285Y-65907200D01*
X117214285Y-65907200D02*
X117119047Y-65954819D01*
X117119047Y-65954819D02*
X116928571Y-65954819D01*
X116928571Y-65954819D02*
X116833333Y-65907200D01*
X116833333Y-65907200D02*
X116785714Y-65859580D01*
X116785714Y-65859580D02*
X116738095Y-65764342D01*
X116738095Y-65764342D02*
X116738095Y-65573866D01*
X116738095Y-65573866D02*
X116785714Y-65478628D01*
X116785714Y-65478628D02*
X116833333Y-65431009D01*
X116833333Y-65431009D02*
X116928571Y-65383390D01*
X123624404Y-48804819D02*
X123624404Y-49614342D01*
X123624404Y-49614342D02*
X123576785Y-49709580D01*
X123576785Y-49709580D02*
X123529166Y-49757200D01*
X123529166Y-49757200D02*
X123433928Y-49804819D01*
X123433928Y-49804819D02*
X123243452Y-49804819D01*
X123243452Y-49804819D02*
X123148214Y-49757200D01*
X123148214Y-49757200D02*
X123100595Y-49709580D01*
X123100595Y-49709580D02*
X123052976Y-49614342D01*
X123052976Y-49614342D02*
X123052976Y-48804819D01*
X122672023Y-48804819D02*
X122052976Y-48804819D01*
X122052976Y-48804819D02*
X122386309Y-49185771D01*
X122386309Y-49185771D02*
X122243452Y-49185771D01*
X122243452Y-49185771D02*
X122148214Y-49233390D01*
X122148214Y-49233390D02*
X122100595Y-49281009D01*
X122100595Y-49281009D02*
X122052976Y-49376247D01*
X122052976Y-49376247D02*
X122052976Y-49614342D01*
X122052976Y-49614342D02*
X122100595Y-49709580D01*
X122100595Y-49709580D02*
X122148214Y-49757200D01*
X122148214Y-49757200D02*
X122243452Y-49804819D01*
X122243452Y-49804819D02*
X122529166Y-49804819D01*
X122529166Y-49804819D02*
X122624404Y-49757200D01*
X122624404Y-49757200D02*
X122672023Y-49709580D01*
X126392857Y-61954819D02*
X126726190Y-61478628D01*
X126964285Y-61954819D02*
X126964285Y-60954819D01*
X126964285Y-60954819D02*
X126583333Y-60954819D01*
X126583333Y-60954819D02*
X126488095Y-61002438D01*
X126488095Y-61002438D02*
X126440476Y-61050057D01*
X126440476Y-61050057D02*
X126392857Y-61145295D01*
X126392857Y-61145295D02*
X126392857Y-61288152D01*
X126392857Y-61288152D02*
X126440476Y-61383390D01*
X126440476Y-61383390D02*
X126488095Y-61431009D01*
X126488095Y-61431009D02*
X126583333Y-61478628D01*
X126583333Y-61478628D02*
X126964285Y-61478628D01*
X125535714Y-61288152D02*
X125535714Y-61954819D01*
X125773809Y-60907200D02*
X126011904Y-61621485D01*
X126011904Y-61621485D02*
X125392857Y-61621485D01*
X124869047Y-61383390D02*
X124964285Y-61335771D01*
X124964285Y-61335771D02*
X125011904Y-61288152D01*
X125011904Y-61288152D02*
X125059523Y-61192914D01*
X125059523Y-61192914D02*
X125059523Y-61145295D01*
X125059523Y-61145295D02*
X125011904Y-61050057D01*
X125011904Y-61050057D02*
X124964285Y-61002438D01*
X124964285Y-61002438D02*
X124869047Y-60954819D01*
X124869047Y-60954819D02*
X124678571Y-60954819D01*
X124678571Y-60954819D02*
X124583333Y-61002438D01*
X124583333Y-61002438D02*
X124535714Y-61050057D01*
X124535714Y-61050057D02*
X124488095Y-61145295D01*
X124488095Y-61145295D02*
X124488095Y-61192914D01*
X124488095Y-61192914D02*
X124535714Y-61288152D01*
X124535714Y-61288152D02*
X124583333Y-61335771D01*
X124583333Y-61335771D02*
X124678571Y-61383390D01*
X124678571Y-61383390D02*
X124869047Y-61383390D01*
X124869047Y-61383390D02*
X124964285Y-61431009D01*
X124964285Y-61431009D02*
X125011904Y-61478628D01*
X125011904Y-61478628D02*
X125059523Y-61573866D01*
X125059523Y-61573866D02*
X125059523Y-61764342D01*
X125059523Y-61764342D02*
X125011904Y-61859580D01*
X125011904Y-61859580D02*
X124964285Y-61907200D01*
X124964285Y-61907200D02*
X124869047Y-61954819D01*
X124869047Y-61954819D02*
X124678571Y-61954819D01*
X124678571Y-61954819D02*
X124583333Y-61907200D01*
X124583333Y-61907200D02*
X124535714Y-61859580D01*
X124535714Y-61859580D02*
X124488095Y-61764342D01*
X124488095Y-61764342D02*
X124488095Y-61573866D01*
X124488095Y-61573866D02*
X124535714Y-61478628D01*
X124535714Y-61478628D02*
X124583333Y-61431009D01*
X124583333Y-61431009D02*
X124678571Y-61383390D01*
X124892857Y-82609580D02*
X124940476Y-82657200D01*
X124940476Y-82657200D02*
X125083333Y-82704819D01*
X125083333Y-82704819D02*
X125178571Y-82704819D01*
X125178571Y-82704819D02*
X125321428Y-82657200D01*
X125321428Y-82657200D02*
X125416666Y-82561961D01*
X125416666Y-82561961D02*
X125464285Y-82466723D01*
X125464285Y-82466723D02*
X125511904Y-82276247D01*
X125511904Y-82276247D02*
X125511904Y-82133390D01*
X125511904Y-82133390D02*
X125464285Y-81942914D01*
X125464285Y-81942914D02*
X125416666Y-81847676D01*
X125416666Y-81847676D02*
X125321428Y-81752438D01*
X125321428Y-81752438D02*
X125178571Y-81704819D01*
X125178571Y-81704819D02*
X125083333Y-81704819D01*
X125083333Y-81704819D02*
X124940476Y-81752438D01*
X124940476Y-81752438D02*
X124892857Y-81800057D01*
X124559523Y-81704819D02*
X123940476Y-81704819D01*
X123940476Y-81704819D02*
X124273809Y-82085771D01*
X124273809Y-82085771D02*
X124130952Y-82085771D01*
X124130952Y-82085771D02*
X124035714Y-82133390D01*
X124035714Y-82133390D02*
X123988095Y-82181009D01*
X123988095Y-82181009D02*
X123940476Y-82276247D01*
X123940476Y-82276247D02*
X123940476Y-82514342D01*
X123940476Y-82514342D02*
X123988095Y-82609580D01*
X123988095Y-82609580D02*
X124035714Y-82657200D01*
X124035714Y-82657200D02*
X124130952Y-82704819D01*
X124130952Y-82704819D02*
X124416666Y-82704819D01*
X124416666Y-82704819D02*
X124511904Y-82657200D01*
X124511904Y-82657200D02*
X124559523Y-82609580D01*
X123559523Y-81800057D02*
X123511904Y-81752438D01*
X123511904Y-81752438D02*
X123416666Y-81704819D01*
X123416666Y-81704819D02*
X123178571Y-81704819D01*
X123178571Y-81704819D02*
X123083333Y-81752438D01*
X123083333Y-81752438D02*
X123035714Y-81800057D01*
X123035714Y-81800057D02*
X122988095Y-81895295D01*
X122988095Y-81895295D02*
X122988095Y-81990533D01*
X122988095Y-81990533D02*
X123035714Y-82133390D01*
X123035714Y-82133390D02*
X123607142Y-82704819D01*
X123607142Y-82704819D02*
X122988095Y-82704819D01*
X128142857Y-129454819D02*
X128476190Y-128978628D01*
X128714285Y-129454819D02*
X128714285Y-128454819D01*
X128714285Y-128454819D02*
X128333333Y-128454819D01*
X128333333Y-128454819D02*
X128238095Y-128502438D01*
X128238095Y-128502438D02*
X128190476Y-128550057D01*
X128190476Y-128550057D02*
X128142857Y-128645295D01*
X128142857Y-128645295D02*
X128142857Y-128788152D01*
X128142857Y-128788152D02*
X128190476Y-128883390D01*
X128190476Y-128883390D02*
X128238095Y-128931009D01*
X128238095Y-128931009D02*
X128333333Y-128978628D01*
X128333333Y-128978628D02*
X128714285Y-128978628D01*
X127190476Y-129454819D02*
X127761904Y-129454819D01*
X127476190Y-129454819D02*
X127476190Y-128454819D01*
X127476190Y-128454819D02*
X127571428Y-128597676D01*
X127571428Y-128597676D02*
X127666666Y-128692914D01*
X127666666Y-128692914D02*
X127761904Y-128740533D01*
X126333333Y-128788152D02*
X126333333Y-129454819D01*
X126571428Y-128407200D02*
X126809523Y-129121485D01*
X126809523Y-129121485D02*
X126190476Y-129121485D01*
X118537969Y-49836400D02*
X119014159Y-49836400D01*
X119014159Y-49836400D02*
X119014159Y-48836400D01*
X117680826Y-49836400D02*
X118252254Y-49836400D01*
X117966540Y-49836400D02*
X117966540Y-48836400D01*
X117966540Y-48836400D02*
X118061778Y-48979257D01*
X118061778Y-48979257D02*
X118157016Y-49074495D01*
X118157016Y-49074495D02*
X118252254Y-49122114D01*
X132726190Y-90728628D02*
X132726190Y-91204819D01*
X133059523Y-90204819D02*
X132726190Y-90728628D01*
X132726190Y-90728628D02*
X132392857Y-90204819D01*
X132107142Y-90300057D02*
X132059523Y-90252438D01*
X132059523Y-90252438D02*
X131964285Y-90204819D01*
X131964285Y-90204819D02*
X131726190Y-90204819D01*
X131726190Y-90204819D02*
X131630952Y-90252438D01*
X131630952Y-90252438D02*
X131583333Y-90300057D01*
X131583333Y-90300057D02*
X131535714Y-90395295D01*
X131535714Y-90395295D02*
X131535714Y-90490533D01*
X131535714Y-90490533D02*
X131583333Y-90633390D01*
X131583333Y-90633390D02*
X132154761Y-91204819D01*
X132154761Y-91204819D02*
X131535714Y-91204819D01*
X138392857Y-75609580D02*
X138440476Y-75657200D01*
X138440476Y-75657200D02*
X138583333Y-75704819D01*
X138583333Y-75704819D02*
X138678571Y-75704819D01*
X138678571Y-75704819D02*
X138821428Y-75657200D01*
X138821428Y-75657200D02*
X138916666Y-75561961D01*
X138916666Y-75561961D02*
X138964285Y-75466723D01*
X138964285Y-75466723D02*
X139011904Y-75276247D01*
X139011904Y-75276247D02*
X139011904Y-75133390D01*
X139011904Y-75133390D02*
X138964285Y-74942914D01*
X138964285Y-74942914D02*
X138916666Y-74847676D01*
X138916666Y-74847676D02*
X138821428Y-74752438D01*
X138821428Y-74752438D02*
X138678571Y-74704819D01*
X138678571Y-74704819D02*
X138583333Y-74704819D01*
X138583333Y-74704819D02*
X138440476Y-74752438D01*
X138440476Y-74752438D02*
X138392857Y-74800057D01*
X138059523Y-74704819D02*
X137440476Y-74704819D01*
X137440476Y-74704819D02*
X137773809Y-75085771D01*
X137773809Y-75085771D02*
X137630952Y-75085771D01*
X137630952Y-75085771D02*
X137535714Y-75133390D01*
X137535714Y-75133390D02*
X137488095Y-75181009D01*
X137488095Y-75181009D02*
X137440476Y-75276247D01*
X137440476Y-75276247D02*
X137440476Y-75514342D01*
X137440476Y-75514342D02*
X137488095Y-75609580D01*
X137488095Y-75609580D02*
X137535714Y-75657200D01*
X137535714Y-75657200D02*
X137630952Y-75704819D01*
X137630952Y-75704819D02*
X137916666Y-75704819D01*
X137916666Y-75704819D02*
X138011904Y-75657200D01*
X138011904Y-75657200D02*
X138059523Y-75609580D01*
X136488095Y-75704819D02*
X137059523Y-75704819D01*
X136773809Y-75704819D02*
X136773809Y-74704819D01*
X136773809Y-74704819D02*
X136869047Y-74847676D01*
X136869047Y-74847676D02*
X136964285Y-74942914D01*
X136964285Y-74942914D02*
X137059523Y-74990533D01*
X134892857Y-54929580D02*
X134940476Y-54977200D01*
X134940476Y-54977200D02*
X135083333Y-55024819D01*
X135083333Y-55024819D02*
X135178571Y-55024819D01*
X135178571Y-55024819D02*
X135321428Y-54977200D01*
X135321428Y-54977200D02*
X135416666Y-54881961D01*
X135416666Y-54881961D02*
X135464285Y-54786723D01*
X135464285Y-54786723D02*
X135511904Y-54596247D01*
X135511904Y-54596247D02*
X135511904Y-54453390D01*
X135511904Y-54453390D02*
X135464285Y-54262914D01*
X135464285Y-54262914D02*
X135416666Y-54167676D01*
X135416666Y-54167676D02*
X135321428Y-54072438D01*
X135321428Y-54072438D02*
X135178571Y-54024819D01*
X135178571Y-54024819D02*
X135083333Y-54024819D01*
X135083333Y-54024819D02*
X134940476Y-54072438D01*
X134940476Y-54072438D02*
X134892857Y-54120057D01*
X134559523Y-54024819D02*
X133940476Y-54024819D01*
X133940476Y-54024819D02*
X134273809Y-54405771D01*
X134273809Y-54405771D02*
X134130952Y-54405771D01*
X134130952Y-54405771D02*
X134035714Y-54453390D01*
X134035714Y-54453390D02*
X133988095Y-54501009D01*
X133988095Y-54501009D02*
X133940476Y-54596247D01*
X133940476Y-54596247D02*
X133940476Y-54834342D01*
X133940476Y-54834342D02*
X133988095Y-54929580D01*
X133988095Y-54929580D02*
X134035714Y-54977200D01*
X134035714Y-54977200D02*
X134130952Y-55024819D01*
X134130952Y-55024819D02*
X134416666Y-55024819D01*
X134416666Y-55024819D02*
X134511904Y-54977200D01*
X134511904Y-54977200D02*
X134559523Y-54929580D01*
X133083333Y-54024819D02*
X133273809Y-54024819D01*
X133273809Y-54024819D02*
X133369047Y-54072438D01*
X133369047Y-54072438D02*
X133416666Y-54120057D01*
X133416666Y-54120057D02*
X133511904Y-54262914D01*
X133511904Y-54262914D02*
X133559523Y-54453390D01*
X133559523Y-54453390D02*
X133559523Y-54834342D01*
X133559523Y-54834342D02*
X133511904Y-54929580D01*
X133511904Y-54929580D02*
X133464285Y-54977200D01*
X133464285Y-54977200D02*
X133369047Y-55024819D01*
X133369047Y-55024819D02*
X133178571Y-55024819D01*
X133178571Y-55024819D02*
X133083333Y-54977200D01*
X133083333Y-54977200D02*
X133035714Y-54929580D01*
X133035714Y-54929580D02*
X132988095Y-54834342D01*
X132988095Y-54834342D02*
X132988095Y-54596247D01*
X132988095Y-54596247D02*
X133035714Y-54501009D01*
X133035714Y-54501009D02*
X133083333Y-54453390D01*
X133083333Y-54453390D02*
X133178571Y-54405771D01*
X133178571Y-54405771D02*
X133369047Y-54405771D01*
X133369047Y-54405771D02*
X133464285Y-54453390D01*
X133464285Y-54453390D02*
X133511904Y-54501009D01*
X133511904Y-54501009D02*
X133559523Y-54596247D01*
X98892857Y-57104819D02*
X99226190Y-56628628D01*
X99464285Y-57104819D02*
X99464285Y-56104819D01*
X99464285Y-56104819D02*
X99083333Y-56104819D01*
X99083333Y-56104819D02*
X98988095Y-56152438D01*
X98988095Y-56152438D02*
X98940476Y-56200057D01*
X98940476Y-56200057D02*
X98892857Y-56295295D01*
X98892857Y-56295295D02*
X98892857Y-56438152D01*
X98892857Y-56438152D02*
X98940476Y-56533390D01*
X98940476Y-56533390D02*
X98988095Y-56581009D01*
X98988095Y-56581009D02*
X99083333Y-56628628D01*
X99083333Y-56628628D02*
X99464285Y-56628628D01*
X98511904Y-56200057D02*
X98464285Y-56152438D01*
X98464285Y-56152438D02*
X98369047Y-56104819D01*
X98369047Y-56104819D02*
X98130952Y-56104819D01*
X98130952Y-56104819D02*
X98035714Y-56152438D01*
X98035714Y-56152438D02*
X97988095Y-56200057D01*
X97988095Y-56200057D02*
X97940476Y-56295295D01*
X97940476Y-56295295D02*
X97940476Y-56390533D01*
X97940476Y-56390533D02*
X97988095Y-56533390D01*
X97988095Y-56533390D02*
X98559523Y-57104819D01*
X98559523Y-57104819D02*
X97940476Y-57104819D01*
X97464285Y-57104819D02*
X97273809Y-57104819D01*
X97273809Y-57104819D02*
X97178571Y-57057200D01*
X97178571Y-57057200D02*
X97130952Y-57009580D01*
X97130952Y-57009580D02*
X97035714Y-56866723D01*
X97035714Y-56866723D02*
X96988095Y-56676247D01*
X96988095Y-56676247D02*
X96988095Y-56295295D01*
X96988095Y-56295295D02*
X97035714Y-56200057D01*
X97035714Y-56200057D02*
X97083333Y-56152438D01*
X97083333Y-56152438D02*
X97178571Y-56104819D01*
X97178571Y-56104819D02*
X97369047Y-56104819D01*
X97369047Y-56104819D02*
X97464285Y-56152438D01*
X97464285Y-56152438D02*
X97511904Y-56200057D01*
X97511904Y-56200057D02*
X97559523Y-56295295D01*
X97559523Y-56295295D02*
X97559523Y-56533390D01*
X97559523Y-56533390D02*
X97511904Y-56628628D01*
X97511904Y-56628628D02*
X97464285Y-56676247D01*
X97464285Y-56676247D02*
X97369047Y-56723866D01*
X97369047Y-56723866D02*
X97178571Y-56723866D01*
X97178571Y-56723866D02*
X97083333Y-56676247D01*
X97083333Y-56676247D02*
X97035714Y-56628628D01*
X97035714Y-56628628D02*
X96988095Y-56533390D01*
X128392857Y-97039580D02*
X128440476Y-97087200D01*
X128440476Y-97087200D02*
X128583333Y-97134819D01*
X128583333Y-97134819D02*
X128678571Y-97134819D01*
X128678571Y-97134819D02*
X128821428Y-97087200D01*
X128821428Y-97087200D02*
X128916666Y-96991961D01*
X128916666Y-96991961D02*
X128964285Y-96896723D01*
X128964285Y-96896723D02*
X129011904Y-96706247D01*
X129011904Y-96706247D02*
X129011904Y-96563390D01*
X129011904Y-96563390D02*
X128964285Y-96372914D01*
X128964285Y-96372914D02*
X128916666Y-96277676D01*
X128916666Y-96277676D02*
X128821428Y-96182438D01*
X128821428Y-96182438D02*
X128678571Y-96134819D01*
X128678571Y-96134819D02*
X128583333Y-96134819D01*
X128583333Y-96134819D02*
X128440476Y-96182438D01*
X128440476Y-96182438D02*
X128392857Y-96230057D01*
X128059523Y-96134819D02*
X127440476Y-96134819D01*
X127440476Y-96134819D02*
X127773809Y-96515771D01*
X127773809Y-96515771D02*
X127630952Y-96515771D01*
X127630952Y-96515771D02*
X127535714Y-96563390D01*
X127535714Y-96563390D02*
X127488095Y-96611009D01*
X127488095Y-96611009D02*
X127440476Y-96706247D01*
X127440476Y-96706247D02*
X127440476Y-96944342D01*
X127440476Y-96944342D02*
X127488095Y-97039580D01*
X127488095Y-97039580D02*
X127535714Y-97087200D01*
X127535714Y-97087200D02*
X127630952Y-97134819D01*
X127630952Y-97134819D02*
X127916666Y-97134819D01*
X127916666Y-97134819D02*
X128011904Y-97087200D01*
X128011904Y-97087200D02*
X128059523Y-97039580D01*
X126869047Y-96563390D02*
X126964285Y-96515771D01*
X126964285Y-96515771D02*
X127011904Y-96468152D01*
X127011904Y-96468152D02*
X127059523Y-96372914D01*
X127059523Y-96372914D02*
X127059523Y-96325295D01*
X127059523Y-96325295D02*
X127011904Y-96230057D01*
X127011904Y-96230057D02*
X126964285Y-96182438D01*
X126964285Y-96182438D02*
X126869047Y-96134819D01*
X126869047Y-96134819D02*
X126678571Y-96134819D01*
X126678571Y-96134819D02*
X126583333Y-96182438D01*
X126583333Y-96182438D02*
X126535714Y-96230057D01*
X126535714Y-96230057D02*
X126488095Y-96325295D01*
X126488095Y-96325295D02*
X126488095Y-96372914D01*
X126488095Y-96372914D02*
X126535714Y-96468152D01*
X126535714Y-96468152D02*
X126583333Y-96515771D01*
X126583333Y-96515771D02*
X126678571Y-96563390D01*
X126678571Y-96563390D02*
X126869047Y-96563390D01*
X126869047Y-96563390D02*
X126964285Y-96611009D01*
X126964285Y-96611009D02*
X127011904Y-96658628D01*
X127011904Y-96658628D02*
X127059523Y-96753866D01*
X127059523Y-96753866D02*
X127059523Y-96944342D01*
X127059523Y-96944342D02*
X127011904Y-97039580D01*
X127011904Y-97039580D02*
X126964285Y-97087200D01*
X126964285Y-97087200D02*
X126869047Y-97134819D01*
X126869047Y-97134819D02*
X126678571Y-97134819D01*
X126678571Y-97134819D02*
X126583333Y-97087200D01*
X126583333Y-97087200D02*
X126535714Y-97039580D01*
X126535714Y-97039580D02*
X126488095Y-96944342D01*
X126488095Y-96944342D02*
X126488095Y-96753866D01*
X126488095Y-96753866D02*
X126535714Y-96658628D01*
X126535714Y-96658628D02*
X126583333Y-96611009D01*
X126583333Y-96611009D02*
X126678571Y-96563390D01*
X141392857Y-65204819D02*
X141726190Y-64728628D01*
X141964285Y-65204819D02*
X141964285Y-64204819D01*
X141964285Y-64204819D02*
X141583333Y-64204819D01*
X141583333Y-64204819D02*
X141488095Y-64252438D01*
X141488095Y-64252438D02*
X141440476Y-64300057D01*
X141440476Y-64300057D02*
X141392857Y-64395295D01*
X141392857Y-64395295D02*
X141392857Y-64538152D01*
X141392857Y-64538152D02*
X141440476Y-64633390D01*
X141440476Y-64633390D02*
X141488095Y-64681009D01*
X141488095Y-64681009D02*
X141583333Y-64728628D01*
X141583333Y-64728628D02*
X141964285Y-64728628D01*
X140535714Y-64538152D02*
X140535714Y-65204819D01*
X140773809Y-64157200D02*
X141011904Y-64871485D01*
X141011904Y-64871485D02*
X140392857Y-64871485D01*
X139964285Y-65204819D02*
X139773809Y-65204819D01*
X139773809Y-65204819D02*
X139678571Y-65157200D01*
X139678571Y-65157200D02*
X139630952Y-65109580D01*
X139630952Y-65109580D02*
X139535714Y-64966723D01*
X139535714Y-64966723D02*
X139488095Y-64776247D01*
X139488095Y-64776247D02*
X139488095Y-64395295D01*
X139488095Y-64395295D02*
X139535714Y-64300057D01*
X139535714Y-64300057D02*
X139583333Y-64252438D01*
X139583333Y-64252438D02*
X139678571Y-64204819D01*
X139678571Y-64204819D02*
X139869047Y-64204819D01*
X139869047Y-64204819D02*
X139964285Y-64252438D01*
X139964285Y-64252438D02*
X140011904Y-64300057D01*
X140011904Y-64300057D02*
X140059523Y-64395295D01*
X140059523Y-64395295D02*
X140059523Y-64633390D01*
X140059523Y-64633390D02*
X140011904Y-64728628D01*
X140011904Y-64728628D02*
X139964285Y-64776247D01*
X139964285Y-64776247D02*
X139869047Y-64823866D01*
X139869047Y-64823866D02*
X139678571Y-64823866D01*
X139678571Y-64823866D02*
X139583333Y-64776247D01*
X139583333Y-64776247D02*
X139535714Y-64728628D01*
X139535714Y-64728628D02*
X139488095Y-64633390D01*
X185642857Y-100704819D02*
X185976190Y-100228628D01*
X186214285Y-100704819D02*
X186214285Y-99704819D01*
X186214285Y-99704819D02*
X185833333Y-99704819D01*
X185833333Y-99704819D02*
X185738095Y-99752438D01*
X185738095Y-99752438D02*
X185690476Y-99800057D01*
X185690476Y-99800057D02*
X185642857Y-99895295D01*
X185642857Y-99895295D02*
X185642857Y-100038152D01*
X185642857Y-100038152D02*
X185690476Y-100133390D01*
X185690476Y-100133390D02*
X185738095Y-100181009D01*
X185738095Y-100181009D02*
X185833333Y-100228628D01*
X185833333Y-100228628D02*
X186214285Y-100228628D01*
X184738095Y-99704819D02*
X185214285Y-99704819D01*
X185214285Y-99704819D02*
X185261904Y-100181009D01*
X185261904Y-100181009D02*
X185214285Y-100133390D01*
X185214285Y-100133390D02*
X185119047Y-100085771D01*
X185119047Y-100085771D02*
X184880952Y-100085771D01*
X184880952Y-100085771D02*
X184785714Y-100133390D01*
X184785714Y-100133390D02*
X184738095Y-100181009D01*
X184738095Y-100181009D02*
X184690476Y-100276247D01*
X184690476Y-100276247D02*
X184690476Y-100514342D01*
X184690476Y-100514342D02*
X184738095Y-100609580D01*
X184738095Y-100609580D02*
X184785714Y-100657200D01*
X184785714Y-100657200D02*
X184880952Y-100704819D01*
X184880952Y-100704819D02*
X185119047Y-100704819D01*
X185119047Y-100704819D02*
X185214285Y-100657200D01*
X185214285Y-100657200D02*
X185261904Y-100609580D01*
X183738095Y-100704819D02*
X184309523Y-100704819D01*
X184023809Y-100704819D02*
X184023809Y-99704819D01*
X184023809Y-99704819D02*
X184119047Y-99847676D01*
X184119047Y-99847676D02*
X184214285Y-99942914D01*
X184214285Y-99942914D02*
X184309523Y-99990533D01*
X128738094Y-49704819D02*
X128738094Y-48704819D01*
X128738094Y-48704819D02*
X128499999Y-48704819D01*
X128499999Y-48704819D02*
X128357142Y-48752438D01*
X128357142Y-48752438D02*
X128261904Y-48847676D01*
X128261904Y-48847676D02*
X128214285Y-48942914D01*
X128214285Y-48942914D02*
X128166666Y-49133390D01*
X128166666Y-49133390D02*
X128166666Y-49276247D01*
X128166666Y-49276247D02*
X128214285Y-49466723D01*
X128214285Y-49466723D02*
X128261904Y-49561961D01*
X128261904Y-49561961D02*
X128357142Y-49657200D01*
X128357142Y-49657200D02*
X128499999Y-49704819D01*
X128499999Y-49704819D02*
X128738094Y-49704819D01*
X127690475Y-49704819D02*
X127499999Y-49704819D01*
X127499999Y-49704819D02*
X127404761Y-49657200D01*
X127404761Y-49657200D02*
X127357142Y-49609580D01*
X127357142Y-49609580D02*
X127261904Y-49466723D01*
X127261904Y-49466723D02*
X127214285Y-49276247D01*
X127214285Y-49276247D02*
X127214285Y-48895295D01*
X127214285Y-48895295D02*
X127261904Y-48800057D01*
X127261904Y-48800057D02*
X127309523Y-48752438D01*
X127309523Y-48752438D02*
X127404761Y-48704819D01*
X127404761Y-48704819D02*
X127595237Y-48704819D01*
X127595237Y-48704819D02*
X127690475Y-48752438D01*
X127690475Y-48752438D02*
X127738094Y-48800057D01*
X127738094Y-48800057D02*
X127785713Y-48895295D01*
X127785713Y-48895295D02*
X127785713Y-49133390D01*
X127785713Y-49133390D02*
X127738094Y-49228628D01*
X127738094Y-49228628D02*
X127690475Y-49276247D01*
X127690475Y-49276247D02*
X127595237Y-49323866D01*
X127595237Y-49323866D02*
X127404761Y-49323866D01*
X127404761Y-49323866D02*
X127309523Y-49276247D01*
X127309523Y-49276247D02*
X127261904Y-49228628D01*
X127261904Y-49228628D02*
X127214285Y-49133390D01*
X159642857Y-114954819D02*
X159976190Y-114478628D01*
X160214285Y-114954819D02*
X160214285Y-113954819D01*
X160214285Y-113954819D02*
X159833333Y-113954819D01*
X159833333Y-113954819D02*
X159738095Y-114002438D01*
X159738095Y-114002438D02*
X159690476Y-114050057D01*
X159690476Y-114050057D02*
X159642857Y-114145295D01*
X159642857Y-114145295D02*
X159642857Y-114288152D01*
X159642857Y-114288152D02*
X159690476Y-114383390D01*
X159690476Y-114383390D02*
X159738095Y-114431009D01*
X159738095Y-114431009D02*
X159833333Y-114478628D01*
X159833333Y-114478628D02*
X160214285Y-114478628D01*
X158690476Y-114954819D02*
X159261904Y-114954819D01*
X158976190Y-114954819D02*
X158976190Y-113954819D01*
X158976190Y-113954819D02*
X159071428Y-114097676D01*
X159071428Y-114097676D02*
X159166666Y-114192914D01*
X159166666Y-114192914D02*
X159261904Y-114240533D01*
X158071428Y-113954819D02*
X157976190Y-113954819D01*
X157976190Y-113954819D02*
X157880952Y-114002438D01*
X157880952Y-114002438D02*
X157833333Y-114050057D01*
X157833333Y-114050057D02*
X157785714Y-114145295D01*
X157785714Y-114145295D02*
X157738095Y-114335771D01*
X157738095Y-114335771D02*
X157738095Y-114573866D01*
X157738095Y-114573866D02*
X157785714Y-114764342D01*
X157785714Y-114764342D02*
X157833333Y-114859580D01*
X157833333Y-114859580D02*
X157880952Y-114907200D01*
X157880952Y-114907200D02*
X157976190Y-114954819D01*
X157976190Y-114954819D02*
X158071428Y-114954819D01*
X158071428Y-114954819D02*
X158166666Y-114907200D01*
X158166666Y-114907200D02*
X158214285Y-114859580D01*
X158214285Y-114859580D02*
X158261904Y-114764342D01*
X158261904Y-114764342D02*
X158309523Y-114573866D01*
X158309523Y-114573866D02*
X158309523Y-114335771D01*
X158309523Y-114335771D02*
X158261904Y-114145295D01*
X158261904Y-114145295D02*
X158214285Y-114050057D01*
X158214285Y-114050057D02*
X158166666Y-114002438D01*
X158166666Y-114002438D02*
X158071428Y-113954819D01*
X128392857Y-58354819D02*
X128726190Y-57878628D01*
X128964285Y-58354819D02*
X128964285Y-57354819D01*
X128964285Y-57354819D02*
X128583333Y-57354819D01*
X128583333Y-57354819D02*
X128488095Y-57402438D01*
X128488095Y-57402438D02*
X128440476Y-57450057D01*
X128440476Y-57450057D02*
X128392857Y-57545295D01*
X128392857Y-57545295D02*
X128392857Y-57688152D01*
X128392857Y-57688152D02*
X128440476Y-57783390D01*
X128440476Y-57783390D02*
X128488095Y-57831009D01*
X128488095Y-57831009D02*
X128583333Y-57878628D01*
X128583333Y-57878628D02*
X128964285Y-57878628D01*
X127535714Y-57688152D02*
X127535714Y-58354819D01*
X127773809Y-57307200D02*
X128011904Y-58021485D01*
X128011904Y-58021485D02*
X127392857Y-58021485D01*
X127107142Y-57354819D02*
X126440476Y-57354819D01*
X126440476Y-57354819D02*
X126869047Y-58354819D01*
X143416666Y-122454819D02*
X143749999Y-121978628D01*
X143988094Y-122454819D02*
X143988094Y-121454819D01*
X143988094Y-121454819D02*
X143607142Y-121454819D01*
X143607142Y-121454819D02*
X143511904Y-121502438D01*
X143511904Y-121502438D02*
X143464285Y-121550057D01*
X143464285Y-121550057D02*
X143416666Y-121645295D01*
X143416666Y-121645295D02*
X143416666Y-121788152D01*
X143416666Y-121788152D02*
X143464285Y-121883390D01*
X143464285Y-121883390D02*
X143511904Y-121931009D01*
X143511904Y-121931009D02*
X143607142Y-121978628D01*
X143607142Y-121978628D02*
X143988094Y-121978628D01*
X142845237Y-121883390D02*
X142940475Y-121835771D01*
X142940475Y-121835771D02*
X142988094Y-121788152D01*
X142988094Y-121788152D02*
X143035713Y-121692914D01*
X143035713Y-121692914D02*
X143035713Y-121645295D01*
X143035713Y-121645295D02*
X142988094Y-121550057D01*
X142988094Y-121550057D02*
X142940475Y-121502438D01*
X142940475Y-121502438D02*
X142845237Y-121454819D01*
X142845237Y-121454819D02*
X142654761Y-121454819D01*
X142654761Y-121454819D02*
X142559523Y-121502438D01*
X142559523Y-121502438D02*
X142511904Y-121550057D01*
X142511904Y-121550057D02*
X142464285Y-121645295D01*
X142464285Y-121645295D02*
X142464285Y-121692914D01*
X142464285Y-121692914D02*
X142511904Y-121788152D01*
X142511904Y-121788152D02*
X142559523Y-121835771D01*
X142559523Y-121835771D02*
X142654761Y-121883390D01*
X142654761Y-121883390D02*
X142845237Y-121883390D01*
X142845237Y-121883390D02*
X142940475Y-121931009D01*
X142940475Y-121931009D02*
X142988094Y-121978628D01*
X142988094Y-121978628D02*
X143035713Y-122073866D01*
X143035713Y-122073866D02*
X143035713Y-122264342D01*
X143035713Y-122264342D02*
X142988094Y-122359580D01*
X142988094Y-122359580D02*
X142940475Y-122407200D01*
X142940475Y-122407200D02*
X142845237Y-122454819D01*
X142845237Y-122454819D02*
X142654761Y-122454819D01*
X142654761Y-122454819D02*
X142559523Y-122407200D01*
X142559523Y-122407200D02*
X142511904Y-122359580D01*
X142511904Y-122359580D02*
X142464285Y-122264342D01*
X142464285Y-122264342D02*
X142464285Y-122073866D01*
X142464285Y-122073866D02*
X142511904Y-121978628D01*
X142511904Y-121978628D02*
X142559523Y-121931009D01*
X142559523Y-121931009D02*
X142654761Y-121883390D01*
X138916666Y-136954819D02*
X139249999Y-136478628D01*
X139488094Y-136954819D02*
X139488094Y-135954819D01*
X139488094Y-135954819D02*
X139107142Y-135954819D01*
X139107142Y-135954819D02*
X139011904Y-136002438D01*
X139011904Y-136002438D02*
X138964285Y-136050057D01*
X138964285Y-136050057D02*
X138916666Y-136145295D01*
X138916666Y-136145295D02*
X138916666Y-136288152D01*
X138916666Y-136288152D02*
X138964285Y-136383390D01*
X138964285Y-136383390D02*
X139011904Y-136431009D01*
X139011904Y-136431009D02*
X139107142Y-136478628D01*
X139107142Y-136478628D02*
X139488094Y-136478628D01*
X138440475Y-136954819D02*
X138249999Y-136954819D01*
X138249999Y-136954819D02*
X138154761Y-136907200D01*
X138154761Y-136907200D02*
X138107142Y-136859580D01*
X138107142Y-136859580D02*
X138011904Y-136716723D01*
X138011904Y-136716723D02*
X137964285Y-136526247D01*
X137964285Y-136526247D02*
X137964285Y-136145295D01*
X137964285Y-136145295D02*
X138011904Y-136050057D01*
X138011904Y-136050057D02*
X138059523Y-136002438D01*
X138059523Y-136002438D02*
X138154761Y-135954819D01*
X138154761Y-135954819D02*
X138345237Y-135954819D01*
X138345237Y-135954819D02*
X138440475Y-136002438D01*
X138440475Y-136002438D02*
X138488094Y-136050057D01*
X138488094Y-136050057D02*
X138535713Y-136145295D01*
X138535713Y-136145295D02*
X138535713Y-136383390D01*
X138535713Y-136383390D02*
X138488094Y-136478628D01*
X138488094Y-136478628D02*
X138440475Y-136526247D01*
X138440475Y-136526247D02*
X138345237Y-136573866D01*
X138345237Y-136573866D02*
X138154761Y-136573866D01*
X138154761Y-136573866D02*
X138059523Y-136526247D01*
X138059523Y-136526247D02*
X138011904Y-136478628D01*
X138011904Y-136478628D02*
X137964285Y-136383390D01*
X146642857Y-66204819D02*
X146976190Y-65728628D01*
X147214285Y-66204819D02*
X147214285Y-65204819D01*
X147214285Y-65204819D02*
X146833333Y-65204819D01*
X146833333Y-65204819D02*
X146738095Y-65252438D01*
X146738095Y-65252438D02*
X146690476Y-65300057D01*
X146690476Y-65300057D02*
X146642857Y-65395295D01*
X146642857Y-65395295D02*
X146642857Y-65538152D01*
X146642857Y-65538152D02*
X146690476Y-65633390D01*
X146690476Y-65633390D02*
X146738095Y-65681009D01*
X146738095Y-65681009D02*
X146833333Y-65728628D01*
X146833333Y-65728628D02*
X147214285Y-65728628D01*
X146309523Y-65204819D02*
X145690476Y-65204819D01*
X145690476Y-65204819D02*
X146023809Y-65585771D01*
X146023809Y-65585771D02*
X145880952Y-65585771D01*
X145880952Y-65585771D02*
X145785714Y-65633390D01*
X145785714Y-65633390D02*
X145738095Y-65681009D01*
X145738095Y-65681009D02*
X145690476Y-65776247D01*
X145690476Y-65776247D02*
X145690476Y-66014342D01*
X145690476Y-66014342D02*
X145738095Y-66109580D01*
X145738095Y-66109580D02*
X145785714Y-66157200D01*
X145785714Y-66157200D02*
X145880952Y-66204819D01*
X145880952Y-66204819D02*
X146166666Y-66204819D01*
X146166666Y-66204819D02*
X146261904Y-66157200D01*
X146261904Y-66157200D02*
X146309523Y-66109580D01*
X144833333Y-65204819D02*
X145023809Y-65204819D01*
X145023809Y-65204819D02*
X145119047Y-65252438D01*
X145119047Y-65252438D02*
X145166666Y-65300057D01*
X145166666Y-65300057D02*
X145261904Y-65442914D01*
X145261904Y-65442914D02*
X145309523Y-65633390D01*
X145309523Y-65633390D02*
X145309523Y-66014342D01*
X145309523Y-66014342D02*
X145261904Y-66109580D01*
X145261904Y-66109580D02*
X145214285Y-66157200D01*
X145214285Y-66157200D02*
X145119047Y-66204819D01*
X145119047Y-66204819D02*
X144928571Y-66204819D01*
X144928571Y-66204819D02*
X144833333Y-66157200D01*
X144833333Y-66157200D02*
X144785714Y-66109580D01*
X144785714Y-66109580D02*
X144738095Y-66014342D01*
X144738095Y-66014342D02*
X144738095Y-65776247D01*
X144738095Y-65776247D02*
X144785714Y-65681009D01*
X144785714Y-65681009D02*
X144833333Y-65633390D01*
X144833333Y-65633390D02*
X144928571Y-65585771D01*
X144928571Y-65585771D02*
X145119047Y-65585771D01*
X145119047Y-65585771D02*
X145214285Y-65633390D01*
X145214285Y-65633390D02*
X145261904Y-65681009D01*
X145261904Y-65681009D02*
X145309523Y-65776247D01*
X136392857Y-96109580D02*
X136440476Y-96157200D01*
X136440476Y-96157200D02*
X136583333Y-96204819D01*
X136583333Y-96204819D02*
X136678571Y-96204819D01*
X136678571Y-96204819D02*
X136821428Y-96157200D01*
X136821428Y-96157200D02*
X136916666Y-96061961D01*
X136916666Y-96061961D02*
X136964285Y-95966723D01*
X136964285Y-95966723D02*
X137011904Y-95776247D01*
X137011904Y-95776247D02*
X137011904Y-95633390D01*
X137011904Y-95633390D02*
X136964285Y-95442914D01*
X136964285Y-95442914D02*
X136916666Y-95347676D01*
X136916666Y-95347676D02*
X136821428Y-95252438D01*
X136821428Y-95252438D02*
X136678571Y-95204819D01*
X136678571Y-95204819D02*
X136583333Y-95204819D01*
X136583333Y-95204819D02*
X136440476Y-95252438D01*
X136440476Y-95252438D02*
X136392857Y-95300057D01*
X136059523Y-95204819D02*
X135440476Y-95204819D01*
X135440476Y-95204819D02*
X135773809Y-95585771D01*
X135773809Y-95585771D02*
X135630952Y-95585771D01*
X135630952Y-95585771D02*
X135535714Y-95633390D01*
X135535714Y-95633390D02*
X135488095Y-95681009D01*
X135488095Y-95681009D02*
X135440476Y-95776247D01*
X135440476Y-95776247D02*
X135440476Y-96014342D01*
X135440476Y-96014342D02*
X135488095Y-96109580D01*
X135488095Y-96109580D02*
X135535714Y-96157200D01*
X135535714Y-96157200D02*
X135630952Y-96204819D01*
X135630952Y-96204819D02*
X135916666Y-96204819D01*
X135916666Y-96204819D02*
X136011904Y-96157200D01*
X136011904Y-96157200D02*
X136059523Y-96109580D01*
X135107142Y-95204819D02*
X134488095Y-95204819D01*
X134488095Y-95204819D02*
X134821428Y-95585771D01*
X134821428Y-95585771D02*
X134678571Y-95585771D01*
X134678571Y-95585771D02*
X134583333Y-95633390D01*
X134583333Y-95633390D02*
X134535714Y-95681009D01*
X134535714Y-95681009D02*
X134488095Y-95776247D01*
X134488095Y-95776247D02*
X134488095Y-96014342D01*
X134488095Y-96014342D02*
X134535714Y-96109580D01*
X134535714Y-96109580D02*
X134583333Y-96157200D01*
X134583333Y-96157200D02*
X134678571Y-96204819D01*
X134678571Y-96204819D02*
X134964285Y-96204819D01*
X134964285Y-96204819D02*
X135059523Y-96157200D01*
X135059523Y-96157200D02*
X135107142Y-96109580D01*
X162916666Y-120454819D02*
X163249999Y-119978628D01*
X163488094Y-120454819D02*
X163488094Y-119454819D01*
X163488094Y-119454819D02*
X163107142Y-119454819D01*
X163107142Y-119454819D02*
X163011904Y-119502438D01*
X163011904Y-119502438D02*
X162964285Y-119550057D01*
X162964285Y-119550057D02*
X162916666Y-119645295D01*
X162916666Y-119645295D02*
X162916666Y-119788152D01*
X162916666Y-119788152D02*
X162964285Y-119883390D01*
X162964285Y-119883390D02*
X163011904Y-119931009D01*
X163011904Y-119931009D02*
X163107142Y-119978628D01*
X163107142Y-119978628D02*
X163488094Y-119978628D01*
X162059523Y-119788152D02*
X162059523Y-120454819D01*
X162297618Y-119407200D02*
X162535713Y-120121485D01*
X162535713Y-120121485D02*
X161916666Y-120121485D01*
X132892857Y-96109580D02*
X132940476Y-96157200D01*
X132940476Y-96157200D02*
X133083333Y-96204819D01*
X133083333Y-96204819D02*
X133178571Y-96204819D01*
X133178571Y-96204819D02*
X133321428Y-96157200D01*
X133321428Y-96157200D02*
X133416666Y-96061961D01*
X133416666Y-96061961D02*
X133464285Y-95966723D01*
X133464285Y-95966723D02*
X133511904Y-95776247D01*
X133511904Y-95776247D02*
X133511904Y-95633390D01*
X133511904Y-95633390D02*
X133464285Y-95442914D01*
X133464285Y-95442914D02*
X133416666Y-95347676D01*
X133416666Y-95347676D02*
X133321428Y-95252438D01*
X133321428Y-95252438D02*
X133178571Y-95204819D01*
X133178571Y-95204819D02*
X133083333Y-95204819D01*
X133083333Y-95204819D02*
X132940476Y-95252438D01*
X132940476Y-95252438D02*
X132892857Y-95300057D01*
X132559523Y-95204819D02*
X131940476Y-95204819D01*
X131940476Y-95204819D02*
X132273809Y-95585771D01*
X132273809Y-95585771D02*
X132130952Y-95585771D01*
X132130952Y-95585771D02*
X132035714Y-95633390D01*
X132035714Y-95633390D02*
X131988095Y-95681009D01*
X131988095Y-95681009D02*
X131940476Y-95776247D01*
X131940476Y-95776247D02*
X131940476Y-96014342D01*
X131940476Y-96014342D02*
X131988095Y-96109580D01*
X131988095Y-96109580D02*
X132035714Y-96157200D01*
X132035714Y-96157200D02*
X132130952Y-96204819D01*
X132130952Y-96204819D02*
X132416666Y-96204819D01*
X132416666Y-96204819D02*
X132511904Y-96157200D01*
X132511904Y-96157200D02*
X132559523Y-96109580D01*
X131607142Y-95204819D02*
X130940476Y-95204819D01*
X130940476Y-95204819D02*
X131369047Y-96204819D01*
X125392857Y-122704819D02*
X125726190Y-122228628D01*
X125964285Y-122704819D02*
X125964285Y-121704819D01*
X125964285Y-121704819D02*
X125583333Y-121704819D01*
X125583333Y-121704819D02*
X125488095Y-121752438D01*
X125488095Y-121752438D02*
X125440476Y-121800057D01*
X125440476Y-121800057D02*
X125392857Y-121895295D01*
X125392857Y-121895295D02*
X125392857Y-122038152D01*
X125392857Y-122038152D02*
X125440476Y-122133390D01*
X125440476Y-122133390D02*
X125488095Y-122181009D01*
X125488095Y-122181009D02*
X125583333Y-122228628D01*
X125583333Y-122228628D02*
X125964285Y-122228628D01*
X125059523Y-121704819D02*
X124440476Y-121704819D01*
X124440476Y-121704819D02*
X124773809Y-122085771D01*
X124773809Y-122085771D02*
X124630952Y-122085771D01*
X124630952Y-122085771D02*
X124535714Y-122133390D01*
X124535714Y-122133390D02*
X124488095Y-122181009D01*
X124488095Y-122181009D02*
X124440476Y-122276247D01*
X124440476Y-122276247D02*
X124440476Y-122514342D01*
X124440476Y-122514342D02*
X124488095Y-122609580D01*
X124488095Y-122609580D02*
X124535714Y-122657200D01*
X124535714Y-122657200D02*
X124630952Y-122704819D01*
X124630952Y-122704819D02*
X124916666Y-122704819D01*
X124916666Y-122704819D02*
X125011904Y-122657200D01*
X125011904Y-122657200D02*
X125059523Y-122609580D01*
X124107142Y-121704819D02*
X123488095Y-121704819D01*
X123488095Y-121704819D02*
X123821428Y-122085771D01*
X123821428Y-122085771D02*
X123678571Y-122085771D01*
X123678571Y-122085771D02*
X123583333Y-122133390D01*
X123583333Y-122133390D02*
X123535714Y-122181009D01*
X123535714Y-122181009D02*
X123488095Y-122276247D01*
X123488095Y-122276247D02*
X123488095Y-122514342D01*
X123488095Y-122514342D02*
X123535714Y-122609580D01*
X123535714Y-122609580D02*
X123583333Y-122657200D01*
X123583333Y-122657200D02*
X123678571Y-122704819D01*
X123678571Y-122704819D02*
X123964285Y-122704819D01*
X123964285Y-122704819D02*
X124059523Y-122657200D01*
X124059523Y-122657200D02*
X124107142Y-122609580D01*
X141916666Y-58454819D02*
X142249999Y-57978628D01*
X142488094Y-58454819D02*
X142488094Y-57454819D01*
X142488094Y-57454819D02*
X142107142Y-57454819D01*
X142107142Y-57454819D02*
X142011904Y-57502438D01*
X142011904Y-57502438D02*
X141964285Y-57550057D01*
X141964285Y-57550057D02*
X141916666Y-57645295D01*
X141916666Y-57645295D02*
X141916666Y-57788152D01*
X141916666Y-57788152D02*
X141964285Y-57883390D01*
X141964285Y-57883390D02*
X142011904Y-57931009D01*
X142011904Y-57931009D02*
X142107142Y-57978628D01*
X142107142Y-57978628D02*
X142488094Y-57978628D01*
X141583332Y-57454819D02*
X140916666Y-57454819D01*
X140916666Y-57454819D02*
X141345237Y-58454819D01*
X159142857Y-136454819D02*
X159476190Y-135978628D01*
X159714285Y-136454819D02*
X159714285Y-135454819D01*
X159714285Y-135454819D02*
X159333333Y-135454819D01*
X159333333Y-135454819D02*
X159238095Y-135502438D01*
X159238095Y-135502438D02*
X159190476Y-135550057D01*
X159190476Y-135550057D02*
X159142857Y-135645295D01*
X159142857Y-135645295D02*
X159142857Y-135788152D01*
X159142857Y-135788152D02*
X159190476Y-135883390D01*
X159190476Y-135883390D02*
X159238095Y-135931009D01*
X159238095Y-135931009D02*
X159333333Y-135978628D01*
X159333333Y-135978628D02*
X159714285Y-135978628D01*
X158190476Y-136454819D02*
X158761904Y-136454819D01*
X158476190Y-136454819D02*
X158476190Y-135454819D01*
X158476190Y-135454819D02*
X158571428Y-135597676D01*
X158571428Y-135597676D02*
X158666666Y-135692914D01*
X158666666Y-135692914D02*
X158761904Y-135740533D01*
X157809523Y-135550057D02*
X157761904Y-135502438D01*
X157761904Y-135502438D02*
X157666666Y-135454819D01*
X157666666Y-135454819D02*
X157428571Y-135454819D01*
X157428571Y-135454819D02*
X157333333Y-135502438D01*
X157333333Y-135502438D02*
X157285714Y-135550057D01*
X157285714Y-135550057D02*
X157238095Y-135645295D01*
X157238095Y-135645295D02*
X157238095Y-135740533D01*
X157238095Y-135740533D02*
X157285714Y-135883390D01*
X157285714Y-135883390D02*
X157857142Y-136454819D01*
X157857142Y-136454819D02*
X157238095Y-136454819D01*
X134666666Y-70604819D02*
X134999999Y-70128628D01*
X135238094Y-70604819D02*
X135238094Y-69604819D01*
X135238094Y-69604819D02*
X134857142Y-69604819D01*
X134857142Y-69604819D02*
X134761904Y-69652438D01*
X134761904Y-69652438D02*
X134714285Y-69700057D01*
X134714285Y-69700057D02*
X134666666Y-69795295D01*
X134666666Y-69795295D02*
X134666666Y-69938152D01*
X134666666Y-69938152D02*
X134714285Y-70033390D01*
X134714285Y-70033390D02*
X134761904Y-70081009D01*
X134761904Y-70081009D02*
X134857142Y-70128628D01*
X134857142Y-70128628D02*
X135238094Y-70128628D01*
X133761904Y-69604819D02*
X134238094Y-69604819D01*
X134238094Y-69604819D02*
X134285713Y-70081009D01*
X134285713Y-70081009D02*
X134238094Y-70033390D01*
X134238094Y-70033390D02*
X134142856Y-69985771D01*
X134142856Y-69985771D02*
X133904761Y-69985771D01*
X133904761Y-69985771D02*
X133809523Y-70033390D01*
X133809523Y-70033390D02*
X133761904Y-70081009D01*
X133761904Y-70081009D02*
X133714285Y-70176247D01*
X133714285Y-70176247D02*
X133714285Y-70414342D01*
X133714285Y-70414342D02*
X133761904Y-70509580D01*
X133761904Y-70509580D02*
X133809523Y-70557200D01*
X133809523Y-70557200D02*
X133904761Y-70604819D01*
X133904761Y-70604819D02*
X134142856Y-70604819D01*
X134142856Y-70604819D02*
X134238094Y-70557200D01*
X134238094Y-70557200D02*
X134285713Y-70509580D01*
X137392857Y-64954819D02*
X137726190Y-64478628D01*
X137964285Y-64954819D02*
X137964285Y-63954819D01*
X137964285Y-63954819D02*
X137583333Y-63954819D01*
X137583333Y-63954819D02*
X137488095Y-64002438D01*
X137488095Y-64002438D02*
X137440476Y-64050057D01*
X137440476Y-64050057D02*
X137392857Y-64145295D01*
X137392857Y-64145295D02*
X137392857Y-64288152D01*
X137392857Y-64288152D02*
X137440476Y-64383390D01*
X137440476Y-64383390D02*
X137488095Y-64431009D01*
X137488095Y-64431009D02*
X137583333Y-64478628D01*
X137583333Y-64478628D02*
X137964285Y-64478628D01*
X136535714Y-64288152D02*
X136535714Y-64954819D01*
X136773809Y-63907200D02*
X137011904Y-64621485D01*
X137011904Y-64621485D02*
X136392857Y-64621485D01*
X135488095Y-64954819D02*
X136059523Y-64954819D01*
X135773809Y-64954819D02*
X135773809Y-63954819D01*
X135773809Y-63954819D02*
X135869047Y-64097676D01*
X135869047Y-64097676D02*
X135964285Y-64192914D01*
X135964285Y-64192914D02*
X136059523Y-64240533D01*
X149642857Y-76859580D02*
X149690476Y-76907200D01*
X149690476Y-76907200D02*
X149833333Y-76954819D01*
X149833333Y-76954819D02*
X149928571Y-76954819D01*
X149928571Y-76954819D02*
X150071428Y-76907200D01*
X150071428Y-76907200D02*
X150166666Y-76811961D01*
X150166666Y-76811961D02*
X150214285Y-76716723D01*
X150214285Y-76716723D02*
X150261904Y-76526247D01*
X150261904Y-76526247D02*
X150261904Y-76383390D01*
X150261904Y-76383390D02*
X150214285Y-76192914D01*
X150214285Y-76192914D02*
X150166666Y-76097676D01*
X150166666Y-76097676D02*
X150071428Y-76002438D01*
X150071428Y-76002438D02*
X149928571Y-75954819D01*
X149928571Y-75954819D02*
X149833333Y-75954819D01*
X149833333Y-75954819D02*
X149690476Y-76002438D01*
X149690476Y-76002438D02*
X149642857Y-76050057D01*
X149309523Y-75954819D02*
X148690476Y-75954819D01*
X148690476Y-75954819D02*
X149023809Y-76335771D01*
X149023809Y-76335771D02*
X148880952Y-76335771D01*
X148880952Y-76335771D02*
X148785714Y-76383390D01*
X148785714Y-76383390D02*
X148738095Y-76431009D01*
X148738095Y-76431009D02*
X148690476Y-76526247D01*
X148690476Y-76526247D02*
X148690476Y-76764342D01*
X148690476Y-76764342D02*
X148738095Y-76859580D01*
X148738095Y-76859580D02*
X148785714Y-76907200D01*
X148785714Y-76907200D02*
X148880952Y-76954819D01*
X148880952Y-76954819D02*
X149166666Y-76954819D01*
X149166666Y-76954819D02*
X149261904Y-76907200D01*
X149261904Y-76907200D02*
X149309523Y-76859580D01*
X148071428Y-75954819D02*
X147976190Y-75954819D01*
X147976190Y-75954819D02*
X147880952Y-76002438D01*
X147880952Y-76002438D02*
X147833333Y-76050057D01*
X147833333Y-76050057D02*
X147785714Y-76145295D01*
X147785714Y-76145295D02*
X147738095Y-76335771D01*
X147738095Y-76335771D02*
X147738095Y-76573866D01*
X147738095Y-76573866D02*
X147785714Y-76764342D01*
X147785714Y-76764342D02*
X147833333Y-76859580D01*
X147833333Y-76859580D02*
X147880952Y-76907200D01*
X147880952Y-76907200D02*
X147976190Y-76954819D01*
X147976190Y-76954819D02*
X148071428Y-76954819D01*
X148071428Y-76954819D02*
X148166666Y-76907200D01*
X148166666Y-76907200D02*
X148214285Y-76859580D01*
X148214285Y-76859580D02*
X148261904Y-76764342D01*
X148261904Y-76764342D02*
X148309523Y-76573866D01*
X148309523Y-76573866D02*
X148309523Y-76335771D01*
X148309523Y-76335771D02*
X148261904Y-76145295D01*
X148261904Y-76145295D02*
X148214285Y-76050057D01*
X148214285Y-76050057D02*
X148166666Y-76002438D01*
X148166666Y-76002438D02*
X148071428Y-75954819D01*
X104392857Y-107904819D02*
X104726190Y-107428628D01*
X104964285Y-107904819D02*
X104964285Y-106904819D01*
X104964285Y-106904819D02*
X104583333Y-106904819D01*
X104583333Y-106904819D02*
X104488095Y-106952438D01*
X104488095Y-106952438D02*
X104440476Y-107000057D01*
X104440476Y-107000057D02*
X104392857Y-107095295D01*
X104392857Y-107095295D02*
X104392857Y-107238152D01*
X104392857Y-107238152D02*
X104440476Y-107333390D01*
X104440476Y-107333390D02*
X104488095Y-107381009D01*
X104488095Y-107381009D02*
X104583333Y-107428628D01*
X104583333Y-107428628D02*
X104964285Y-107428628D01*
X104011904Y-107000057D02*
X103964285Y-106952438D01*
X103964285Y-106952438D02*
X103869047Y-106904819D01*
X103869047Y-106904819D02*
X103630952Y-106904819D01*
X103630952Y-106904819D02*
X103535714Y-106952438D01*
X103535714Y-106952438D02*
X103488095Y-107000057D01*
X103488095Y-107000057D02*
X103440476Y-107095295D01*
X103440476Y-107095295D02*
X103440476Y-107190533D01*
X103440476Y-107190533D02*
X103488095Y-107333390D01*
X103488095Y-107333390D02*
X104059523Y-107904819D01*
X104059523Y-107904819D02*
X103440476Y-107904819D01*
X103107142Y-106904819D02*
X102440476Y-106904819D01*
X102440476Y-106904819D02*
X102869047Y-107904819D01*
X155192857Y-89609580D02*
X155240476Y-89657200D01*
X155240476Y-89657200D02*
X155383333Y-89704819D01*
X155383333Y-89704819D02*
X155478571Y-89704819D01*
X155478571Y-89704819D02*
X155621428Y-89657200D01*
X155621428Y-89657200D02*
X155716666Y-89561961D01*
X155716666Y-89561961D02*
X155764285Y-89466723D01*
X155764285Y-89466723D02*
X155811904Y-89276247D01*
X155811904Y-89276247D02*
X155811904Y-89133390D01*
X155811904Y-89133390D02*
X155764285Y-88942914D01*
X155764285Y-88942914D02*
X155716666Y-88847676D01*
X155716666Y-88847676D02*
X155621428Y-88752438D01*
X155621428Y-88752438D02*
X155478571Y-88704819D01*
X155478571Y-88704819D02*
X155383333Y-88704819D01*
X155383333Y-88704819D02*
X155240476Y-88752438D01*
X155240476Y-88752438D02*
X155192857Y-88800057D01*
X154811904Y-88800057D02*
X154764285Y-88752438D01*
X154764285Y-88752438D02*
X154669047Y-88704819D01*
X154669047Y-88704819D02*
X154430952Y-88704819D01*
X154430952Y-88704819D02*
X154335714Y-88752438D01*
X154335714Y-88752438D02*
X154288095Y-88800057D01*
X154288095Y-88800057D02*
X154240476Y-88895295D01*
X154240476Y-88895295D02*
X154240476Y-88990533D01*
X154240476Y-88990533D02*
X154288095Y-89133390D01*
X154288095Y-89133390D02*
X154859523Y-89704819D01*
X154859523Y-89704819D02*
X154240476Y-89704819D01*
X153669047Y-89133390D02*
X153764285Y-89085771D01*
X153764285Y-89085771D02*
X153811904Y-89038152D01*
X153811904Y-89038152D02*
X153859523Y-88942914D01*
X153859523Y-88942914D02*
X153859523Y-88895295D01*
X153859523Y-88895295D02*
X153811904Y-88800057D01*
X153811904Y-88800057D02*
X153764285Y-88752438D01*
X153764285Y-88752438D02*
X153669047Y-88704819D01*
X153669047Y-88704819D02*
X153478571Y-88704819D01*
X153478571Y-88704819D02*
X153383333Y-88752438D01*
X153383333Y-88752438D02*
X153335714Y-88800057D01*
X153335714Y-88800057D02*
X153288095Y-88895295D01*
X153288095Y-88895295D02*
X153288095Y-88942914D01*
X153288095Y-88942914D02*
X153335714Y-89038152D01*
X153335714Y-89038152D02*
X153383333Y-89085771D01*
X153383333Y-89085771D02*
X153478571Y-89133390D01*
X153478571Y-89133390D02*
X153669047Y-89133390D01*
X153669047Y-89133390D02*
X153764285Y-89181009D01*
X153764285Y-89181009D02*
X153811904Y-89228628D01*
X153811904Y-89228628D02*
X153859523Y-89323866D01*
X153859523Y-89323866D02*
X153859523Y-89514342D01*
X153859523Y-89514342D02*
X153811904Y-89609580D01*
X153811904Y-89609580D02*
X153764285Y-89657200D01*
X153764285Y-89657200D02*
X153669047Y-89704819D01*
X153669047Y-89704819D02*
X153478571Y-89704819D01*
X153478571Y-89704819D02*
X153383333Y-89657200D01*
X153383333Y-89657200D02*
X153335714Y-89609580D01*
X153335714Y-89609580D02*
X153288095Y-89514342D01*
X153288095Y-89514342D02*
X153288095Y-89323866D01*
X153288095Y-89323866D02*
X153335714Y-89228628D01*
X153335714Y-89228628D02*
X153383333Y-89181009D01*
X153383333Y-89181009D02*
X153478571Y-89133390D01*
X155692857Y-94204819D02*
X156026190Y-93728628D01*
X156264285Y-94204819D02*
X156264285Y-93204819D01*
X156264285Y-93204819D02*
X155883333Y-93204819D01*
X155883333Y-93204819D02*
X155788095Y-93252438D01*
X155788095Y-93252438D02*
X155740476Y-93300057D01*
X155740476Y-93300057D02*
X155692857Y-93395295D01*
X155692857Y-93395295D02*
X155692857Y-93538152D01*
X155692857Y-93538152D02*
X155740476Y-93633390D01*
X155740476Y-93633390D02*
X155788095Y-93681009D01*
X155788095Y-93681009D02*
X155883333Y-93728628D01*
X155883333Y-93728628D02*
X156264285Y-93728628D01*
X155359523Y-93204819D02*
X154740476Y-93204819D01*
X154740476Y-93204819D02*
X155073809Y-93585771D01*
X155073809Y-93585771D02*
X154930952Y-93585771D01*
X154930952Y-93585771D02*
X154835714Y-93633390D01*
X154835714Y-93633390D02*
X154788095Y-93681009D01*
X154788095Y-93681009D02*
X154740476Y-93776247D01*
X154740476Y-93776247D02*
X154740476Y-94014342D01*
X154740476Y-94014342D02*
X154788095Y-94109580D01*
X154788095Y-94109580D02*
X154835714Y-94157200D01*
X154835714Y-94157200D02*
X154930952Y-94204819D01*
X154930952Y-94204819D02*
X155216666Y-94204819D01*
X155216666Y-94204819D02*
X155311904Y-94157200D01*
X155311904Y-94157200D02*
X155359523Y-94109580D01*
X153835714Y-93204819D02*
X154311904Y-93204819D01*
X154311904Y-93204819D02*
X154359523Y-93681009D01*
X154359523Y-93681009D02*
X154311904Y-93633390D01*
X154311904Y-93633390D02*
X154216666Y-93585771D01*
X154216666Y-93585771D02*
X153978571Y-93585771D01*
X153978571Y-93585771D02*
X153883333Y-93633390D01*
X153883333Y-93633390D02*
X153835714Y-93681009D01*
X153835714Y-93681009D02*
X153788095Y-93776247D01*
X153788095Y-93776247D02*
X153788095Y-94014342D01*
X153788095Y-94014342D02*
X153835714Y-94109580D01*
X153835714Y-94109580D02*
X153883333Y-94157200D01*
X153883333Y-94157200D02*
X153978571Y-94204819D01*
X153978571Y-94204819D02*
X154216666Y-94204819D01*
X154216666Y-94204819D02*
X154311904Y-94157200D01*
X154311904Y-94157200D02*
X154359523Y-94109580D01*
X95392857Y-60604819D02*
X95726190Y-60128628D01*
X95964285Y-60604819D02*
X95964285Y-59604819D01*
X95964285Y-59604819D02*
X95583333Y-59604819D01*
X95583333Y-59604819D02*
X95488095Y-59652438D01*
X95488095Y-59652438D02*
X95440476Y-59700057D01*
X95440476Y-59700057D02*
X95392857Y-59795295D01*
X95392857Y-59795295D02*
X95392857Y-59938152D01*
X95392857Y-59938152D02*
X95440476Y-60033390D01*
X95440476Y-60033390D02*
X95488095Y-60081009D01*
X95488095Y-60081009D02*
X95583333Y-60128628D01*
X95583333Y-60128628D02*
X95964285Y-60128628D01*
X94440476Y-60604819D02*
X95011904Y-60604819D01*
X94726190Y-60604819D02*
X94726190Y-59604819D01*
X94726190Y-59604819D02*
X94821428Y-59747676D01*
X94821428Y-59747676D02*
X94916666Y-59842914D01*
X94916666Y-59842914D02*
X95011904Y-59890533D01*
X94107142Y-59604819D02*
X93440476Y-59604819D01*
X93440476Y-59604819D02*
X93869047Y-60604819D01*
X145392857Y-74609580D02*
X145440476Y-74657200D01*
X145440476Y-74657200D02*
X145583333Y-74704819D01*
X145583333Y-74704819D02*
X145678571Y-74704819D01*
X145678571Y-74704819D02*
X145821428Y-74657200D01*
X145821428Y-74657200D02*
X145916666Y-74561961D01*
X145916666Y-74561961D02*
X145964285Y-74466723D01*
X145964285Y-74466723D02*
X146011904Y-74276247D01*
X146011904Y-74276247D02*
X146011904Y-74133390D01*
X146011904Y-74133390D02*
X145964285Y-73942914D01*
X145964285Y-73942914D02*
X145916666Y-73847676D01*
X145916666Y-73847676D02*
X145821428Y-73752438D01*
X145821428Y-73752438D02*
X145678571Y-73704819D01*
X145678571Y-73704819D02*
X145583333Y-73704819D01*
X145583333Y-73704819D02*
X145440476Y-73752438D01*
X145440476Y-73752438D02*
X145392857Y-73800057D01*
X145011904Y-73800057D02*
X144964285Y-73752438D01*
X144964285Y-73752438D02*
X144869047Y-73704819D01*
X144869047Y-73704819D02*
X144630952Y-73704819D01*
X144630952Y-73704819D02*
X144535714Y-73752438D01*
X144535714Y-73752438D02*
X144488095Y-73800057D01*
X144488095Y-73800057D02*
X144440476Y-73895295D01*
X144440476Y-73895295D02*
X144440476Y-73990533D01*
X144440476Y-73990533D02*
X144488095Y-74133390D01*
X144488095Y-74133390D02*
X145059523Y-74704819D01*
X145059523Y-74704819D02*
X144440476Y-74704819D01*
X144107142Y-73704819D02*
X143440476Y-73704819D01*
X143440476Y-73704819D02*
X143869047Y-74704819D01*
X202892857Y-130809580D02*
X202940476Y-130857200D01*
X202940476Y-130857200D02*
X203083333Y-130904819D01*
X203083333Y-130904819D02*
X203178571Y-130904819D01*
X203178571Y-130904819D02*
X203321428Y-130857200D01*
X203321428Y-130857200D02*
X203416666Y-130761961D01*
X203416666Y-130761961D02*
X203464285Y-130666723D01*
X203464285Y-130666723D02*
X203511904Y-130476247D01*
X203511904Y-130476247D02*
X203511904Y-130333390D01*
X203511904Y-130333390D02*
X203464285Y-130142914D01*
X203464285Y-130142914D02*
X203416666Y-130047676D01*
X203416666Y-130047676D02*
X203321428Y-129952438D01*
X203321428Y-129952438D02*
X203178571Y-129904819D01*
X203178571Y-129904819D02*
X203083333Y-129904819D01*
X203083333Y-129904819D02*
X202940476Y-129952438D01*
X202940476Y-129952438D02*
X202892857Y-130000057D01*
X202511904Y-130000057D02*
X202464285Y-129952438D01*
X202464285Y-129952438D02*
X202369047Y-129904819D01*
X202369047Y-129904819D02*
X202130952Y-129904819D01*
X202130952Y-129904819D02*
X202035714Y-129952438D01*
X202035714Y-129952438D02*
X201988095Y-130000057D01*
X201988095Y-130000057D02*
X201940476Y-130095295D01*
X201940476Y-130095295D02*
X201940476Y-130190533D01*
X201940476Y-130190533D02*
X201988095Y-130333390D01*
X201988095Y-130333390D02*
X202559523Y-130904819D01*
X202559523Y-130904819D02*
X201940476Y-130904819D01*
X201035714Y-129904819D02*
X201511904Y-129904819D01*
X201511904Y-129904819D02*
X201559523Y-130381009D01*
X201559523Y-130381009D02*
X201511904Y-130333390D01*
X201511904Y-130333390D02*
X201416666Y-130285771D01*
X201416666Y-130285771D02*
X201178571Y-130285771D01*
X201178571Y-130285771D02*
X201083333Y-130333390D01*
X201083333Y-130333390D02*
X201035714Y-130381009D01*
X201035714Y-130381009D02*
X200988095Y-130476247D01*
X200988095Y-130476247D02*
X200988095Y-130714342D01*
X200988095Y-130714342D02*
X201035714Y-130809580D01*
X201035714Y-130809580D02*
X201083333Y-130857200D01*
X201083333Y-130857200D02*
X201178571Y-130904819D01*
X201178571Y-130904819D02*
X201416666Y-130904819D01*
X201416666Y-130904819D02*
X201511904Y-130857200D01*
X201511904Y-130857200D02*
X201559523Y-130809580D01*
X146142857Y-94454819D02*
X146476190Y-93978628D01*
X146714285Y-94454819D02*
X146714285Y-93454819D01*
X146714285Y-93454819D02*
X146333333Y-93454819D01*
X146333333Y-93454819D02*
X146238095Y-93502438D01*
X146238095Y-93502438D02*
X146190476Y-93550057D01*
X146190476Y-93550057D02*
X146142857Y-93645295D01*
X146142857Y-93645295D02*
X146142857Y-93788152D01*
X146142857Y-93788152D02*
X146190476Y-93883390D01*
X146190476Y-93883390D02*
X146238095Y-93931009D01*
X146238095Y-93931009D02*
X146333333Y-93978628D01*
X146333333Y-93978628D02*
X146714285Y-93978628D01*
X145809523Y-93454819D02*
X145190476Y-93454819D01*
X145190476Y-93454819D02*
X145523809Y-93835771D01*
X145523809Y-93835771D02*
X145380952Y-93835771D01*
X145380952Y-93835771D02*
X145285714Y-93883390D01*
X145285714Y-93883390D02*
X145238095Y-93931009D01*
X145238095Y-93931009D02*
X145190476Y-94026247D01*
X145190476Y-94026247D02*
X145190476Y-94264342D01*
X145190476Y-94264342D02*
X145238095Y-94359580D01*
X145238095Y-94359580D02*
X145285714Y-94407200D01*
X145285714Y-94407200D02*
X145380952Y-94454819D01*
X145380952Y-94454819D02*
X145666666Y-94454819D01*
X145666666Y-94454819D02*
X145761904Y-94407200D01*
X145761904Y-94407200D02*
X145809523Y-94359580D01*
X144857142Y-93454819D02*
X144190476Y-93454819D01*
X144190476Y-93454819D02*
X144619047Y-94454819D01*
X116761904Y-101954819D02*
X116761904Y-102764342D01*
X116761904Y-102764342D02*
X116714285Y-102859580D01*
X116714285Y-102859580D02*
X116666666Y-102907200D01*
X116666666Y-102907200D02*
X116571428Y-102954819D01*
X116571428Y-102954819D02*
X116380952Y-102954819D01*
X116380952Y-102954819D02*
X116285714Y-102907200D01*
X116285714Y-102907200D02*
X116238095Y-102859580D01*
X116238095Y-102859580D02*
X116190476Y-102764342D01*
X116190476Y-102764342D02*
X116190476Y-101954819D01*
X115190476Y-102954819D02*
X115761904Y-102954819D01*
X115476190Y-102954819D02*
X115476190Y-101954819D01*
X115476190Y-101954819D02*
X115571428Y-102097676D01*
X115571428Y-102097676D02*
X115666666Y-102192914D01*
X115666666Y-102192914D02*
X115761904Y-102240533D01*
X162642857Y-82954819D02*
X162976190Y-82478628D01*
X163214285Y-82954819D02*
X163214285Y-81954819D01*
X163214285Y-81954819D02*
X162833333Y-81954819D01*
X162833333Y-81954819D02*
X162738095Y-82002438D01*
X162738095Y-82002438D02*
X162690476Y-82050057D01*
X162690476Y-82050057D02*
X162642857Y-82145295D01*
X162642857Y-82145295D02*
X162642857Y-82288152D01*
X162642857Y-82288152D02*
X162690476Y-82383390D01*
X162690476Y-82383390D02*
X162738095Y-82431009D01*
X162738095Y-82431009D02*
X162833333Y-82478628D01*
X162833333Y-82478628D02*
X163214285Y-82478628D01*
X162309523Y-81954819D02*
X161690476Y-81954819D01*
X161690476Y-81954819D02*
X162023809Y-82335771D01*
X162023809Y-82335771D02*
X161880952Y-82335771D01*
X161880952Y-82335771D02*
X161785714Y-82383390D01*
X161785714Y-82383390D02*
X161738095Y-82431009D01*
X161738095Y-82431009D02*
X161690476Y-82526247D01*
X161690476Y-82526247D02*
X161690476Y-82764342D01*
X161690476Y-82764342D02*
X161738095Y-82859580D01*
X161738095Y-82859580D02*
X161785714Y-82907200D01*
X161785714Y-82907200D02*
X161880952Y-82954819D01*
X161880952Y-82954819D02*
X162166666Y-82954819D01*
X162166666Y-82954819D02*
X162261904Y-82907200D01*
X162261904Y-82907200D02*
X162309523Y-82859580D01*
X160833333Y-82288152D02*
X160833333Y-82954819D01*
X161071428Y-81907200D02*
X161309523Y-82621485D01*
X161309523Y-82621485D02*
X160690476Y-82621485D01*
X162642857Y-88704819D02*
X162976190Y-88228628D01*
X163214285Y-88704819D02*
X163214285Y-87704819D01*
X163214285Y-87704819D02*
X162833333Y-87704819D01*
X162833333Y-87704819D02*
X162738095Y-87752438D01*
X162738095Y-87752438D02*
X162690476Y-87800057D01*
X162690476Y-87800057D02*
X162642857Y-87895295D01*
X162642857Y-87895295D02*
X162642857Y-88038152D01*
X162642857Y-88038152D02*
X162690476Y-88133390D01*
X162690476Y-88133390D02*
X162738095Y-88181009D01*
X162738095Y-88181009D02*
X162833333Y-88228628D01*
X162833333Y-88228628D02*
X163214285Y-88228628D01*
X161738095Y-87704819D02*
X162214285Y-87704819D01*
X162214285Y-87704819D02*
X162261904Y-88181009D01*
X162261904Y-88181009D02*
X162214285Y-88133390D01*
X162214285Y-88133390D02*
X162119047Y-88085771D01*
X162119047Y-88085771D02*
X161880952Y-88085771D01*
X161880952Y-88085771D02*
X161785714Y-88133390D01*
X161785714Y-88133390D02*
X161738095Y-88181009D01*
X161738095Y-88181009D02*
X161690476Y-88276247D01*
X161690476Y-88276247D02*
X161690476Y-88514342D01*
X161690476Y-88514342D02*
X161738095Y-88609580D01*
X161738095Y-88609580D02*
X161785714Y-88657200D01*
X161785714Y-88657200D02*
X161880952Y-88704819D01*
X161880952Y-88704819D02*
X162119047Y-88704819D01*
X162119047Y-88704819D02*
X162214285Y-88657200D01*
X162214285Y-88657200D02*
X162261904Y-88609580D01*
X161309523Y-87800057D02*
X161261904Y-87752438D01*
X161261904Y-87752438D02*
X161166666Y-87704819D01*
X161166666Y-87704819D02*
X160928571Y-87704819D01*
X160928571Y-87704819D02*
X160833333Y-87752438D01*
X160833333Y-87752438D02*
X160785714Y-87800057D01*
X160785714Y-87800057D02*
X160738095Y-87895295D01*
X160738095Y-87895295D02*
X160738095Y-87990533D01*
X160738095Y-87990533D02*
X160785714Y-88133390D01*
X160785714Y-88133390D02*
X161357142Y-88704819D01*
X161357142Y-88704819D02*
X160738095Y-88704819D01*
X103909580Y-100357142D02*
X103957200Y-100309523D01*
X103957200Y-100309523D02*
X104004819Y-100166666D01*
X104004819Y-100166666D02*
X104004819Y-100071428D01*
X104004819Y-100071428D02*
X103957200Y-99928571D01*
X103957200Y-99928571D02*
X103861961Y-99833333D01*
X103861961Y-99833333D02*
X103766723Y-99785714D01*
X103766723Y-99785714D02*
X103576247Y-99738095D01*
X103576247Y-99738095D02*
X103433390Y-99738095D01*
X103433390Y-99738095D02*
X103242914Y-99785714D01*
X103242914Y-99785714D02*
X103147676Y-99833333D01*
X103147676Y-99833333D02*
X103052438Y-99928571D01*
X103052438Y-99928571D02*
X103004819Y-100071428D01*
X103004819Y-100071428D02*
X103004819Y-100166666D01*
X103004819Y-100166666D02*
X103052438Y-100309523D01*
X103052438Y-100309523D02*
X103100057Y-100357142D01*
X103100057Y-100738095D02*
X103052438Y-100785714D01*
X103052438Y-100785714D02*
X103004819Y-100880952D01*
X103004819Y-100880952D02*
X103004819Y-101119047D01*
X103004819Y-101119047D02*
X103052438Y-101214285D01*
X103052438Y-101214285D02*
X103100057Y-101261904D01*
X103100057Y-101261904D02*
X103195295Y-101309523D01*
X103195295Y-101309523D02*
X103290533Y-101309523D01*
X103290533Y-101309523D02*
X103433390Y-101261904D01*
X103433390Y-101261904D02*
X104004819Y-100690476D01*
X104004819Y-100690476D02*
X104004819Y-101309523D01*
X103004819Y-101928571D02*
X103004819Y-102023809D01*
X103004819Y-102023809D02*
X103052438Y-102119047D01*
X103052438Y-102119047D02*
X103100057Y-102166666D01*
X103100057Y-102166666D02*
X103195295Y-102214285D01*
X103195295Y-102214285D02*
X103385771Y-102261904D01*
X103385771Y-102261904D02*
X103623866Y-102261904D01*
X103623866Y-102261904D02*
X103814342Y-102214285D01*
X103814342Y-102214285D02*
X103909580Y-102166666D01*
X103909580Y-102166666D02*
X103957200Y-102119047D01*
X103957200Y-102119047D02*
X104004819Y-102023809D01*
X104004819Y-102023809D02*
X104004819Y-101928571D01*
X104004819Y-101928571D02*
X103957200Y-101833333D01*
X103957200Y-101833333D02*
X103909580Y-101785714D01*
X103909580Y-101785714D02*
X103814342Y-101738095D01*
X103814342Y-101738095D02*
X103623866Y-101690476D01*
X103623866Y-101690476D02*
X103385771Y-101690476D01*
X103385771Y-101690476D02*
X103195295Y-101738095D01*
X103195295Y-101738095D02*
X103100057Y-101785714D01*
X103100057Y-101785714D02*
X103052438Y-101833333D01*
X103052438Y-101833333D02*
X103004819Y-101928571D01*
X131940475Y-62704819D02*
X131607142Y-63704819D01*
X131607142Y-63704819D02*
X131273809Y-62704819D01*
X131083332Y-62704819D02*
X130511904Y-62704819D01*
X130797618Y-63704819D02*
X130797618Y-62704819D01*
X129749999Y-63038152D02*
X129749999Y-63704819D01*
X129988094Y-62657200D02*
X130226189Y-63371485D01*
X130226189Y-63371485D02*
X129607142Y-63371485D01*
X169392857Y-122109580D02*
X169440476Y-122157200D01*
X169440476Y-122157200D02*
X169583333Y-122204819D01*
X169583333Y-122204819D02*
X169678571Y-122204819D01*
X169678571Y-122204819D02*
X169821428Y-122157200D01*
X169821428Y-122157200D02*
X169916666Y-122061961D01*
X169916666Y-122061961D02*
X169964285Y-121966723D01*
X169964285Y-121966723D02*
X170011904Y-121776247D01*
X170011904Y-121776247D02*
X170011904Y-121633390D01*
X170011904Y-121633390D02*
X169964285Y-121442914D01*
X169964285Y-121442914D02*
X169916666Y-121347676D01*
X169916666Y-121347676D02*
X169821428Y-121252438D01*
X169821428Y-121252438D02*
X169678571Y-121204819D01*
X169678571Y-121204819D02*
X169583333Y-121204819D01*
X169583333Y-121204819D02*
X169440476Y-121252438D01*
X169440476Y-121252438D02*
X169392857Y-121300057D01*
X169011904Y-121300057D02*
X168964285Y-121252438D01*
X168964285Y-121252438D02*
X168869047Y-121204819D01*
X168869047Y-121204819D02*
X168630952Y-121204819D01*
X168630952Y-121204819D02*
X168535714Y-121252438D01*
X168535714Y-121252438D02*
X168488095Y-121300057D01*
X168488095Y-121300057D02*
X168440476Y-121395295D01*
X168440476Y-121395295D02*
X168440476Y-121490533D01*
X168440476Y-121490533D02*
X168488095Y-121633390D01*
X168488095Y-121633390D02*
X169059523Y-122204819D01*
X169059523Y-122204819D02*
X168440476Y-122204819D01*
X168107142Y-121204819D02*
X167488095Y-121204819D01*
X167488095Y-121204819D02*
X167821428Y-121585771D01*
X167821428Y-121585771D02*
X167678571Y-121585771D01*
X167678571Y-121585771D02*
X167583333Y-121633390D01*
X167583333Y-121633390D02*
X167535714Y-121681009D01*
X167535714Y-121681009D02*
X167488095Y-121776247D01*
X167488095Y-121776247D02*
X167488095Y-122014342D01*
X167488095Y-122014342D02*
X167535714Y-122109580D01*
X167535714Y-122109580D02*
X167583333Y-122157200D01*
X167583333Y-122157200D02*
X167678571Y-122204819D01*
X167678571Y-122204819D02*
X167964285Y-122204819D01*
X167964285Y-122204819D02*
X168059523Y-122157200D01*
X168059523Y-122157200D02*
X168107142Y-122109580D01*
X147488094Y-62704819D02*
X147488094Y-61704819D01*
X147488094Y-61704819D02*
X147249999Y-61704819D01*
X147249999Y-61704819D02*
X147107142Y-61752438D01*
X147107142Y-61752438D02*
X147011904Y-61847676D01*
X147011904Y-61847676D02*
X146964285Y-61942914D01*
X146964285Y-61942914D02*
X146916666Y-62133390D01*
X146916666Y-62133390D02*
X146916666Y-62276247D01*
X146916666Y-62276247D02*
X146964285Y-62466723D01*
X146964285Y-62466723D02*
X147011904Y-62561961D01*
X147011904Y-62561961D02*
X147107142Y-62657200D01*
X147107142Y-62657200D02*
X147249999Y-62704819D01*
X147249999Y-62704819D02*
X147488094Y-62704819D01*
X146583332Y-61704819D02*
X145916666Y-61704819D01*
X145916666Y-61704819D02*
X146345237Y-62704819D01*
X155666666Y-103609580D02*
X155714285Y-103657200D01*
X155714285Y-103657200D02*
X155857142Y-103704819D01*
X155857142Y-103704819D02*
X155952380Y-103704819D01*
X155952380Y-103704819D02*
X156095237Y-103657200D01*
X156095237Y-103657200D02*
X156190475Y-103561961D01*
X156190475Y-103561961D02*
X156238094Y-103466723D01*
X156238094Y-103466723D02*
X156285713Y-103276247D01*
X156285713Y-103276247D02*
X156285713Y-103133390D01*
X156285713Y-103133390D02*
X156238094Y-102942914D01*
X156238094Y-102942914D02*
X156190475Y-102847676D01*
X156190475Y-102847676D02*
X156095237Y-102752438D01*
X156095237Y-102752438D02*
X155952380Y-102704819D01*
X155952380Y-102704819D02*
X155857142Y-102704819D01*
X155857142Y-102704819D02*
X155714285Y-102752438D01*
X155714285Y-102752438D02*
X155666666Y-102800057D01*
X155095237Y-103133390D02*
X155190475Y-103085771D01*
X155190475Y-103085771D02*
X155238094Y-103038152D01*
X155238094Y-103038152D02*
X155285713Y-102942914D01*
X155285713Y-102942914D02*
X155285713Y-102895295D01*
X155285713Y-102895295D02*
X155238094Y-102800057D01*
X155238094Y-102800057D02*
X155190475Y-102752438D01*
X155190475Y-102752438D02*
X155095237Y-102704819D01*
X155095237Y-102704819D02*
X154904761Y-102704819D01*
X154904761Y-102704819D02*
X154809523Y-102752438D01*
X154809523Y-102752438D02*
X154761904Y-102800057D01*
X154761904Y-102800057D02*
X154714285Y-102895295D01*
X154714285Y-102895295D02*
X154714285Y-102942914D01*
X154714285Y-102942914D02*
X154761904Y-103038152D01*
X154761904Y-103038152D02*
X154809523Y-103085771D01*
X154809523Y-103085771D02*
X154904761Y-103133390D01*
X154904761Y-103133390D02*
X155095237Y-103133390D01*
X155095237Y-103133390D02*
X155190475Y-103181009D01*
X155190475Y-103181009D02*
X155238094Y-103228628D01*
X155238094Y-103228628D02*
X155285713Y-103323866D01*
X155285713Y-103323866D02*
X155285713Y-103514342D01*
X155285713Y-103514342D02*
X155238094Y-103609580D01*
X155238094Y-103609580D02*
X155190475Y-103657200D01*
X155190475Y-103657200D02*
X155095237Y-103704819D01*
X155095237Y-103704819D02*
X154904761Y-103704819D01*
X154904761Y-103704819D02*
X154809523Y-103657200D01*
X154809523Y-103657200D02*
X154761904Y-103609580D01*
X154761904Y-103609580D02*
X154714285Y-103514342D01*
X154714285Y-103514342D02*
X154714285Y-103323866D01*
X154714285Y-103323866D02*
X154761904Y-103228628D01*
X154761904Y-103228628D02*
X154809523Y-103181009D01*
X154809523Y-103181009D02*
X154904761Y-103133390D01*
X104940475Y-50342319D02*
X104607142Y-51342319D01*
X104607142Y-51342319D02*
X104273809Y-50342319D01*
X104083332Y-50342319D02*
X103511904Y-50342319D01*
X103797618Y-51342319D02*
X103797618Y-50342319D01*
X103226189Y-50437557D02*
X103178570Y-50389938D01*
X103178570Y-50389938D02*
X103083332Y-50342319D01*
X103083332Y-50342319D02*
X102845237Y-50342319D01*
X102845237Y-50342319D02*
X102749999Y-50389938D01*
X102749999Y-50389938D02*
X102702380Y-50437557D01*
X102702380Y-50437557D02*
X102654761Y-50532795D01*
X102654761Y-50532795D02*
X102654761Y-50628033D01*
X102654761Y-50628033D02*
X102702380Y-50770890D01*
X102702380Y-50770890D02*
X103273808Y-51342319D01*
X103273808Y-51342319D02*
X102654761Y-51342319D01*
X106738094Y-80074819D02*
X106738094Y-79074819D01*
X106738094Y-79074819D02*
X106499999Y-79074819D01*
X106499999Y-79074819D02*
X106357142Y-79122438D01*
X106357142Y-79122438D02*
X106261904Y-79217676D01*
X106261904Y-79217676D02*
X106214285Y-79312914D01*
X106214285Y-79312914D02*
X106166666Y-79503390D01*
X106166666Y-79503390D02*
X106166666Y-79646247D01*
X106166666Y-79646247D02*
X106214285Y-79836723D01*
X106214285Y-79836723D02*
X106261904Y-79931961D01*
X106261904Y-79931961D02*
X106357142Y-80027200D01*
X106357142Y-80027200D02*
X106499999Y-80074819D01*
X106499999Y-80074819D02*
X106738094Y-80074819D01*
X105595237Y-79503390D02*
X105690475Y-79455771D01*
X105690475Y-79455771D02*
X105738094Y-79408152D01*
X105738094Y-79408152D02*
X105785713Y-79312914D01*
X105785713Y-79312914D02*
X105785713Y-79265295D01*
X105785713Y-79265295D02*
X105738094Y-79170057D01*
X105738094Y-79170057D02*
X105690475Y-79122438D01*
X105690475Y-79122438D02*
X105595237Y-79074819D01*
X105595237Y-79074819D02*
X105404761Y-79074819D01*
X105404761Y-79074819D02*
X105309523Y-79122438D01*
X105309523Y-79122438D02*
X105261904Y-79170057D01*
X105261904Y-79170057D02*
X105214285Y-79265295D01*
X105214285Y-79265295D02*
X105214285Y-79312914D01*
X105214285Y-79312914D02*
X105261904Y-79408152D01*
X105261904Y-79408152D02*
X105309523Y-79455771D01*
X105309523Y-79455771D02*
X105404761Y-79503390D01*
X105404761Y-79503390D02*
X105595237Y-79503390D01*
X105595237Y-79503390D02*
X105690475Y-79551009D01*
X105690475Y-79551009D02*
X105738094Y-79598628D01*
X105738094Y-79598628D02*
X105785713Y-79693866D01*
X105785713Y-79693866D02*
X105785713Y-79884342D01*
X105785713Y-79884342D02*
X105738094Y-79979580D01*
X105738094Y-79979580D02*
X105690475Y-80027200D01*
X105690475Y-80027200D02*
X105595237Y-80074819D01*
X105595237Y-80074819D02*
X105404761Y-80074819D01*
X105404761Y-80074819D02*
X105309523Y-80027200D01*
X105309523Y-80027200D02*
X105261904Y-79979580D01*
X105261904Y-79979580D02*
X105214285Y-79884342D01*
X105214285Y-79884342D02*
X105214285Y-79693866D01*
X105214285Y-79693866D02*
X105261904Y-79598628D01*
X105261904Y-79598628D02*
X105309523Y-79551009D01*
X105309523Y-79551009D02*
X105404761Y-79503390D01*
X140642857Y-125954819D02*
X140976190Y-125478628D01*
X141214285Y-125954819D02*
X141214285Y-124954819D01*
X141214285Y-124954819D02*
X140833333Y-124954819D01*
X140833333Y-124954819D02*
X140738095Y-125002438D01*
X140738095Y-125002438D02*
X140690476Y-125050057D01*
X140690476Y-125050057D02*
X140642857Y-125145295D01*
X140642857Y-125145295D02*
X140642857Y-125288152D01*
X140642857Y-125288152D02*
X140690476Y-125383390D01*
X140690476Y-125383390D02*
X140738095Y-125431009D01*
X140738095Y-125431009D02*
X140833333Y-125478628D01*
X140833333Y-125478628D02*
X141214285Y-125478628D01*
X139690476Y-125954819D02*
X140261904Y-125954819D01*
X139976190Y-125954819D02*
X139976190Y-124954819D01*
X139976190Y-124954819D02*
X140071428Y-125097676D01*
X140071428Y-125097676D02*
X140166666Y-125192914D01*
X140166666Y-125192914D02*
X140261904Y-125240533D01*
X138785714Y-124954819D02*
X139261904Y-124954819D01*
X139261904Y-124954819D02*
X139309523Y-125431009D01*
X139309523Y-125431009D02*
X139261904Y-125383390D01*
X139261904Y-125383390D02*
X139166666Y-125335771D01*
X139166666Y-125335771D02*
X138928571Y-125335771D01*
X138928571Y-125335771D02*
X138833333Y-125383390D01*
X138833333Y-125383390D02*
X138785714Y-125431009D01*
X138785714Y-125431009D02*
X138738095Y-125526247D01*
X138738095Y-125526247D02*
X138738095Y-125764342D01*
X138738095Y-125764342D02*
X138785714Y-125859580D01*
X138785714Y-125859580D02*
X138833333Y-125907200D01*
X138833333Y-125907200D02*
X138928571Y-125954819D01*
X138928571Y-125954819D02*
X139166666Y-125954819D01*
X139166666Y-125954819D02*
X139261904Y-125907200D01*
X139261904Y-125907200D02*
X139309523Y-125859580D01*
X125738094Y-63729819D02*
X125738094Y-62729819D01*
X125738094Y-62729819D02*
X125499999Y-62729819D01*
X125499999Y-62729819D02*
X125357142Y-62777438D01*
X125357142Y-62777438D02*
X125261904Y-62872676D01*
X125261904Y-62872676D02*
X125214285Y-62967914D01*
X125214285Y-62967914D02*
X125166666Y-63158390D01*
X125166666Y-63158390D02*
X125166666Y-63301247D01*
X125166666Y-63301247D02*
X125214285Y-63491723D01*
X125214285Y-63491723D02*
X125261904Y-63586961D01*
X125261904Y-63586961D02*
X125357142Y-63682200D01*
X125357142Y-63682200D02*
X125499999Y-63729819D01*
X125499999Y-63729819D02*
X125738094Y-63729819D01*
X124309523Y-63063152D02*
X124309523Y-63729819D01*
X124547618Y-62682200D02*
X124785713Y-63396485D01*
X124785713Y-63396485D02*
X124166666Y-63396485D01*
X135738094Y-104454819D02*
X135738094Y-103454819D01*
X135738094Y-103454819D02*
X135499999Y-103454819D01*
X135499999Y-103454819D02*
X135357142Y-103502438D01*
X135357142Y-103502438D02*
X135261904Y-103597676D01*
X135261904Y-103597676D02*
X135214285Y-103692914D01*
X135214285Y-103692914D02*
X135166666Y-103883390D01*
X135166666Y-103883390D02*
X135166666Y-104026247D01*
X135166666Y-104026247D02*
X135214285Y-104216723D01*
X135214285Y-104216723D02*
X135261904Y-104311961D01*
X135261904Y-104311961D02*
X135357142Y-104407200D01*
X135357142Y-104407200D02*
X135499999Y-104454819D01*
X135499999Y-104454819D02*
X135738094Y-104454819D01*
X134261904Y-103454819D02*
X134738094Y-103454819D01*
X134738094Y-103454819D02*
X134785713Y-103931009D01*
X134785713Y-103931009D02*
X134738094Y-103883390D01*
X134738094Y-103883390D02*
X134642856Y-103835771D01*
X134642856Y-103835771D02*
X134404761Y-103835771D01*
X134404761Y-103835771D02*
X134309523Y-103883390D01*
X134309523Y-103883390D02*
X134261904Y-103931009D01*
X134261904Y-103931009D02*
X134214285Y-104026247D01*
X134214285Y-104026247D02*
X134214285Y-104264342D01*
X134214285Y-104264342D02*
X134261904Y-104359580D01*
X134261904Y-104359580D02*
X134309523Y-104407200D01*
X134309523Y-104407200D02*
X134404761Y-104454819D01*
X134404761Y-104454819D02*
X134642856Y-104454819D01*
X134642856Y-104454819D02*
X134738094Y-104407200D01*
X134738094Y-104407200D02*
X134785713Y-104359580D01*
X121992857Y-82454819D02*
X122326190Y-81978628D01*
X122564285Y-82454819D02*
X122564285Y-81454819D01*
X122564285Y-81454819D02*
X122183333Y-81454819D01*
X122183333Y-81454819D02*
X122088095Y-81502438D01*
X122088095Y-81502438D02*
X122040476Y-81550057D01*
X122040476Y-81550057D02*
X121992857Y-81645295D01*
X121992857Y-81645295D02*
X121992857Y-81788152D01*
X121992857Y-81788152D02*
X122040476Y-81883390D01*
X122040476Y-81883390D02*
X122088095Y-81931009D01*
X122088095Y-81931009D02*
X122183333Y-81978628D01*
X122183333Y-81978628D02*
X122564285Y-81978628D01*
X121135714Y-81788152D02*
X121135714Y-82454819D01*
X121373809Y-81407200D02*
X121611904Y-82121485D01*
X121611904Y-82121485D02*
X120992857Y-82121485D01*
X120135714Y-81454819D02*
X120611904Y-81454819D01*
X120611904Y-81454819D02*
X120659523Y-81931009D01*
X120659523Y-81931009D02*
X120611904Y-81883390D01*
X120611904Y-81883390D02*
X120516666Y-81835771D01*
X120516666Y-81835771D02*
X120278571Y-81835771D01*
X120278571Y-81835771D02*
X120183333Y-81883390D01*
X120183333Y-81883390D02*
X120135714Y-81931009D01*
X120135714Y-81931009D02*
X120088095Y-82026247D01*
X120088095Y-82026247D02*
X120088095Y-82264342D01*
X120088095Y-82264342D02*
X120135714Y-82359580D01*
X120135714Y-82359580D02*
X120183333Y-82407200D01*
X120183333Y-82407200D02*
X120278571Y-82454819D01*
X120278571Y-82454819D02*
X120516666Y-82454819D01*
X120516666Y-82454819D02*
X120611904Y-82407200D01*
X120611904Y-82407200D02*
X120659523Y-82359580D01*
X188142857Y-56109580D02*
X188190476Y-56157200D01*
X188190476Y-56157200D02*
X188333333Y-56204819D01*
X188333333Y-56204819D02*
X188428571Y-56204819D01*
X188428571Y-56204819D02*
X188571428Y-56157200D01*
X188571428Y-56157200D02*
X188666666Y-56061961D01*
X188666666Y-56061961D02*
X188714285Y-55966723D01*
X188714285Y-55966723D02*
X188761904Y-55776247D01*
X188761904Y-55776247D02*
X188761904Y-55633390D01*
X188761904Y-55633390D02*
X188714285Y-55442914D01*
X188714285Y-55442914D02*
X188666666Y-55347676D01*
X188666666Y-55347676D02*
X188571428Y-55252438D01*
X188571428Y-55252438D02*
X188428571Y-55204819D01*
X188428571Y-55204819D02*
X188333333Y-55204819D01*
X188333333Y-55204819D02*
X188190476Y-55252438D01*
X188190476Y-55252438D02*
X188142857Y-55300057D01*
X187761904Y-55300057D02*
X187714285Y-55252438D01*
X187714285Y-55252438D02*
X187619047Y-55204819D01*
X187619047Y-55204819D02*
X187380952Y-55204819D01*
X187380952Y-55204819D02*
X187285714Y-55252438D01*
X187285714Y-55252438D02*
X187238095Y-55300057D01*
X187238095Y-55300057D02*
X187190476Y-55395295D01*
X187190476Y-55395295D02*
X187190476Y-55490533D01*
X187190476Y-55490533D02*
X187238095Y-55633390D01*
X187238095Y-55633390D02*
X187809523Y-56204819D01*
X187809523Y-56204819D02*
X187190476Y-56204819D01*
X186238095Y-56204819D02*
X186809523Y-56204819D01*
X186523809Y-56204819D02*
X186523809Y-55204819D01*
X186523809Y-55204819D02*
X186619047Y-55347676D01*
X186619047Y-55347676D02*
X186714285Y-55442914D01*
X186714285Y-55442914D02*
X186809523Y-55490533D01*
X175392857Y-140359580D02*
X175440476Y-140407200D01*
X175440476Y-140407200D02*
X175583333Y-140454819D01*
X175583333Y-140454819D02*
X175678571Y-140454819D01*
X175678571Y-140454819D02*
X175821428Y-140407200D01*
X175821428Y-140407200D02*
X175916666Y-140311961D01*
X175916666Y-140311961D02*
X175964285Y-140216723D01*
X175964285Y-140216723D02*
X176011904Y-140026247D01*
X176011904Y-140026247D02*
X176011904Y-139883390D01*
X176011904Y-139883390D02*
X175964285Y-139692914D01*
X175964285Y-139692914D02*
X175916666Y-139597676D01*
X175916666Y-139597676D02*
X175821428Y-139502438D01*
X175821428Y-139502438D02*
X175678571Y-139454819D01*
X175678571Y-139454819D02*
X175583333Y-139454819D01*
X175583333Y-139454819D02*
X175440476Y-139502438D01*
X175440476Y-139502438D02*
X175392857Y-139550057D01*
X174440476Y-140454819D02*
X175011904Y-140454819D01*
X174726190Y-140454819D02*
X174726190Y-139454819D01*
X174726190Y-139454819D02*
X174821428Y-139597676D01*
X174821428Y-139597676D02*
X174916666Y-139692914D01*
X174916666Y-139692914D02*
X175011904Y-139740533D01*
X173821428Y-139454819D02*
X173726190Y-139454819D01*
X173726190Y-139454819D02*
X173630952Y-139502438D01*
X173630952Y-139502438D02*
X173583333Y-139550057D01*
X173583333Y-139550057D02*
X173535714Y-139645295D01*
X173535714Y-139645295D02*
X173488095Y-139835771D01*
X173488095Y-139835771D02*
X173488095Y-140073866D01*
X173488095Y-140073866D02*
X173535714Y-140264342D01*
X173535714Y-140264342D02*
X173583333Y-140359580D01*
X173583333Y-140359580D02*
X173630952Y-140407200D01*
X173630952Y-140407200D02*
X173726190Y-140454819D01*
X173726190Y-140454819D02*
X173821428Y-140454819D01*
X173821428Y-140454819D02*
X173916666Y-140407200D01*
X173916666Y-140407200D02*
X173964285Y-140359580D01*
X173964285Y-140359580D02*
X174011904Y-140264342D01*
X174011904Y-140264342D02*
X174059523Y-140073866D01*
X174059523Y-140073866D02*
X174059523Y-139835771D01*
X174059523Y-139835771D02*
X174011904Y-139645295D01*
X174011904Y-139645295D02*
X173964285Y-139550057D01*
X173964285Y-139550057D02*
X173916666Y-139502438D01*
X173916666Y-139502438D02*
X173821428Y-139454819D01*
X125392857Y-119109580D02*
X125440476Y-119157200D01*
X125440476Y-119157200D02*
X125583333Y-119204819D01*
X125583333Y-119204819D02*
X125678571Y-119204819D01*
X125678571Y-119204819D02*
X125821428Y-119157200D01*
X125821428Y-119157200D02*
X125916666Y-119061961D01*
X125916666Y-119061961D02*
X125964285Y-118966723D01*
X125964285Y-118966723D02*
X126011904Y-118776247D01*
X126011904Y-118776247D02*
X126011904Y-118633390D01*
X126011904Y-118633390D02*
X125964285Y-118442914D01*
X125964285Y-118442914D02*
X125916666Y-118347676D01*
X125916666Y-118347676D02*
X125821428Y-118252438D01*
X125821428Y-118252438D02*
X125678571Y-118204819D01*
X125678571Y-118204819D02*
X125583333Y-118204819D01*
X125583333Y-118204819D02*
X125440476Y-118252438D01*
X125440476Y-118252438D02*
X125392857Y-118300057D01*
X124440476Y-119204819D02*
X125011904Y-119204819D01*
X124726190Y-119204819D02*
X124726190Y-118204819D01*
X124726190Y-118204819D02*
X124821428Y-118347676D01*
X124821428Y-118347676D02*
X124916666Y-118442914D01*
X124916666Y-118442914D02*
X125011904Y-118490533D01*
X123964285Y-119204819D02*
X123773809Y-119204819D01*
X123773809Y-119204819D02*
X123678571Y-119157200D01*
X123678571Y-119157200D02*
X123630952Y-119109580D01*
X123630952Y-119109580D02*
X123535714Y-118966723D01*
X123535714Y-118966723D02*
X123488095Y-118776247D01*
X123488095Y-118776247D02*
X123488095Y-118395295D01*
X123488095Y-118395295D02*
X123535714Y-118300057D01*
X123535714Y-118300057D02*
X123583333Y-118252438D01*
X123583333Y-118252438D02*
X123678571Y-118204819D01*
X123678571Y-118204819D02*
X123869047Y-118204819D01*
X123869047Y-118204819D02*
X123964285Y-118252438D01*
X123964285Y-118252438D02*
X124011904Y-118300057D01*
X124011904Y-118300057D02*
X124059523Y-118395295D01*
X124059523Y-118395295D02*
X124059523Y-118633390D01*
X124059523Y-118633390D02*
X124011904Y-118728628D01*
X124011904Y-118728628D02*
X123964285Y-118776247D01*
X123964285Y-118776247D02*
X123869047Y-118823866D01*
X123869047Y-118823866D02*
X123678571Y-118823866D01*
X123678571Y-118823866D02*
X123583333Y-118776247D01*
X123583333Y-118776247D02*
X123535714Y-118728628D01*
X123535714Y-118728628D02*
X123488095Y-118633390D01*
D11*
%TO.C,R50*%
X185227064Y-90765000D02*
X184772936Y-90765000D01*
X185227064Y-92235000D02*
X184772936Y-92235000D01*
%TO.C,R2*%
X127598333Y-120022936D02*
X127598333Y-120477064D01*
X129068333Y-120022936D02*
X129068333Y-120477064D01*
%TO.C,U2*%
X136390000Y-80465000D02*
X136390000Y-81415000D01*
X136390000Y-90685000D02*
X136390000Y-89735000D01*
X137340000Y-80465000D02*
X136390000Y-80465000D01*
X137340000Y-90685000D02*
X136390000Y-90685000D01*
X145660000Y-80465000D02*
X146610000Y-80465000D01*
X145660000Y-90685000D02*
X146610000Y-90685000D01*
X146610000Y-80465000D02*
X146610000Y-81415000D01*
X146610000Y-90685000D02*
X146610000Y-89735000D01*
X136115000Y-90205000D02*
X135435000Y-90205000D01*
X135775000Y-89735000D01*
X136115000Y-90205000D01*
G36*
X136115000Y-90205000D02*
G01*
X135435000Y-90205000D01*
X135775000Y-89735000D01*
X136115000Y-90205000D01*
G37*
%TO.C,R44*%
X123727064Y-55515000D02*
X123272936Y-55515000D01*
X123727064Y-56985000D02*
X123272936Y-56985000D01*
%TO.C,Y1*%
X126000000Y-86650000D02*
X126000000Y-82650000D01*
X129300000Y-86650000D02*
X126000000Y-86650000D01*
%TO.C,R3*%
X145931667Y-120227064D02*
X145931667Y-119772936D01*
X147401667Y-120227064D02*
X147401667Y-119772936D01*
%TO.C,C24*%
X137711252Y-107390000D02*
X136288748Y-107390000D01*
X137711252Y-110110000D02*
X136288748Y-110110000D01*
%TO.C,C4*%
X156640000Y-92523752D02*
X156640000Y-91101248D01*
X159360000Y-92523752D02*
X159360000Y-91101248D01*
%TO.C,C9*%
X106765000Y-110238748D02*
X106765000Y-110761252D01*
X108235000Y-110238748D02*
X108235000Y-110761252D01*
%TO.C,R43*%
X133515000Y-60727064D02*
X133515000Y-60272936D01*
X134985000Y-60727064D02*
X134985000Y-60272936D01*
%TO.C,R30*%
X98022936Y-64265000D02*
X98477064Y-64265000D01*
X98022936Y-65735000D02*
X98477064Y-65735000D01*
%TO.C,D11*%
X166490000Y-63095000D02*
X166490000Y-63300000D01*
X166490000Y-73515000D02*
X166490000Y-73310000D01*
X169250000Y-63095000D02*
X166490000Y-63095000D01*
X169250000Y-63095000D02*
X172010000Y-63095000D01*
X169250000Y-73515000D02*
X166490000Y-73515000D01*
X169250000Y-73515000D02*
X172010000Y-73515000D01*
X172010000Y-63095000D02*
X172010000Y-63300000D01*
X172010000Y-73515000D02*
X172010000Y-73310000D01*
X165940000Y-73640000D02*
X165460000Y-73640000D01*
X165700000Y-73310000D01*
X165940000Y-73640000D01*
G36*
X165940000Y-73640000D02*
G01*
X165460000Y-73640000D01*
X165700000Y-73310000D01*
X165940000Y-73640000D01*
G37*
%TO.C,R53*%
X161265000Y-95772936D02*
X161265000Y-96227064D01*
X162735000Y-95772936D02*
X162735000Y-96227064D01*
%TO.C,C15*%
X141011252Y-133765000D02*
X140488748Y-133765000D01*
X141011252Y-135235000D02*
X140488748Y-135235000D01*
%TO.C,R25*%
X158522936Y-130015000D02*
X158977064Y-130015000D01*
X158522936Y-131485000D02*
X158977064Y-131485000D01*
%TO.C,D10*%
X169250000Y-90440000D02*
X167300000Y-90440000D01*
X169250000Y-90440000D02*
X171200000Y-90440000D01*
X169250000Y-95560000D02*
X167300000Y-95560000D01*
X169250000Y-95560000D02*
X171200000Y-95560000D01*
X166790000Y-95795000D02*
X166310000Y-95795000D01*
X166550000Y-95465000D01*
X166790000Y-95795000D01*
G36*
X166790000Y-95795000D02*
G01*
X166310000Y-95795000D01*
X166550000Y-95465000D01*
X166790000Y-95795000D01*
G37*
%TO.C,R26*%
X102772936Y-75765000D02*
X103227064Y-75765000D01*
X102772936Y-77235000D02*
X103227064Y-77235000D01*
%TO.C,C2*%
X116726248Y-90390000D02*
X118148752Y-90390000D01*
X116726248Y-93110000D02*
X118148752Y-93110000D01*
%TO.C,C35*%
X128011252Y-79515000D02*
X127488748Y-79515000D01*
X128011252Y-80985000D02*
X127488748Y-80985000D01*
%TO.C,R39*%
X141265000Y-74272936D02*
X141265000Y-74727064D01*
X142735000Y-74272936D02*
X142735000Y-74727064D01*
%TO.C,C26*%
X202961252Y-88140000D02*
X201538748Y-88140000D01*
X202961252Y-90860000D02*
X201538748Y-90860000D01*
%TO.C,R24*%
X140522936Y-130265000D02*
X140977064Y-130265000D01*
X140522936Y-131735000D02*
X140977064Y-131735000D01*
%TO.C,R42*%
X153727064Y-55015000D02*
X153272936Y-55015000D01*
X153727064Y-56485000D02*
X153272936Y-56485000D01*
%TO.C,R28*%
X120477064Y-137265000D02*
X120022936Y-137265000D01*
X120477064Y-138735000D02*
X120022936Y-138735000D01*
%TO.C,R11*%
X106727064Y-133765000D02*
X106272936Y-133765000D01*
X106727064Y-135235000D02*
X106272936Y-135235000D01*
%TO.C,R6*%
X138265000Y-72877064D02*
X138265000Y-72422936D01*
X139735000Y-72877064D02*
X139735000Y-72422936D01*
%TO.C,R22*%
X113727064Y-123765000D02*
X113272936Y-123765000D01*
X113727064Y-125235000D02*
X113272936Y-125235000D01*
%TO.C,C13*%
X113238748Y-121015000D02*
X113761252Y-121015000D01*
X113238748Y-122485000D02*
X113761252Y-122485000D01*
%TO.C,C12*%
X151515000Y-139261252D02*
X151515000Y-138738748D01*
X152985000Y-139261252D02*
X152985000Y-138738748D01*
%TO.C,R21*%
X154765000Y-138772936D02*
X154765000Y-139227064D01*
X156235000Y-138772936D02*
X156235000Y-139227064D01*
%TO.C,C14*%
X130765000Y-134261252D02*
X130765000Y-133738748D01*
X132235000Y-134261252D02*
X132235000Y-133738748D01*
%TO.C,R38*%
X149272936Y-72765000D02*
X149727064Y-72765000D01*
X149272936Y-74235000D02*
X149727064Y-74235000D01*
%TO.C,C6*%
X159390000Y-66211252D02*
X159390000Y-64788748D01*
X162110000Y-66211252D02*
X162110000Y-64788748D01*
%TO.C,C5*%
X154765000Y-117511252D02*
X154765000Y-116988748D01*
X156235000Y-117511252D02*
X156235000Y-116988748D01*
%TO.C,R23*%
X127598333Y-133772936D02*
X127598333Y-134227064D01*
X129068333Y-133772936D02*
X129068333Y-134227064D01*
%TO.C,D6*%
X140790000Y-102740000D02*
X140995000Y-102740000D01*
X140790000Y-105500000D02*
X140790000Y-102740000D01*
X140790000Y-105500000D02*
X140790000Y-108260000D01*
X140790000Y-108260000D02*
X140995000Y-108260000D01*
X151210000Y-102740000D02*
X151005000Y-102740000D01*
X151210000Y-105500000D02*
X151210000Y-102740000D01*
X151210000Y-105500000D02*
X151210000Y-108260000D01*
X151210000Y-108260000D02*
X151005000Y-108260000D01*
X151335000Y-109290000D02*
X151005000Y-109050000D01*
X151335000Y-108810000D01*
X151335000Y-109290000D01*
G36*
X151335000Y-109290000D02*
G01*
X151005000Y-109050000D01*
X151335000Y-108810000D01*
X151335000Y-109290000D01*
G37*
%TO.C,VT1*%
X98940000Y-71500000D02*
X98940000Y-70700000D01*
X98940000Y-71500000D02*
X98940000Y-72300000D01*
X102060000Y-71500000D02*
X102060000Y-70700000D01*
X102060000Y-71500000D02*
X102060000Y-72300000D01*
X102340000Y-73040000D02*
X102010000Y-72800000D01*
X102340000Y-72560000D01*
X102340000Y-73040000D01*
G36*
X102340000Y-73040000D02*
G01*
X102010000Y-72800000D01*
X102340000Y-72560000D01*
X102340000Y-73040000D01*
G37*
%TO.C,R46*%
X92272936Y-79765000D02*
X92727064Y-79765000D01*
X92272936Y-81235000D02*
X92727064Y-81235000D01*
%TO.C,R1*%
X109265000Y-120477064D02*
X109265000Y-120022936D01*
X110735000Y-120477064D02*
X110735000Y-120022936D01*
%TO.C,C11*%
X99265000Y-139511252D02*
X99265000Y-138988748D01*
X100735000Y-139511252D02*
X100735000Y-138988748D01*
%TO.C,C3*%
X143511252Y-119515000D02*
X142988748Y-119515000D01*
X143511252Y-120985000D02*
X142988748Y-120985000D01*
%TO.C,R18*%
X108772936Y-57765000D02*
X109227064Y-57765000D01*
X108772936Y-59235000D02*
X109227064Y-59235000D01*
%TO.C,C16*%
X159011252Y-133515000D02*
X158488748Y-133515000D01*
X159011252Y-134985000D02*
X158488748Y-134985000D01*
%TO.C,R19*%
X98022936Y-75765000D02*
X98477064Y-75765000D01*
X98022936Y-77235000D02*
X98477064Y-77235000D01*
%TO.C,VT3*%
X98940000Y-60112500D02*
X98940000Y-59312500D01*
X98940000Y-60112500D02*
X98940000Y-60912500D01*
X102060000Y-60112500D02*
X102060000Y-59312500D01*
X102060000Y-60112500D02*
X102060000Y-60912500D01*
X102340000Y-61652500D02*
X102010000Y-61412500D01*
X102340000Y-61172500D01*
X102340000Y-61652500D01*
G36*
X102340000Y-61652500D02*
G01*
X102010000Y-61412500D01*
X102340000Y-61172500D01*
X102340000Y-61652500D01*
G37*
%TO.C,C29*%
X121515000Y-59461252D02*
X121515000Y-58938748D01*
X122985000Y-59461252D02*
X122985000Y-58938748D01*
%TO.C,C1*%
X115537500Y-85240000D02*
X119747500Y-85240000D01*
X119747500Y-85240000D02*
X119747500Y-88260000D01*
X119747500Y-88260000D02*
X115537500Y-88260000D01*
%TO.C,R31*%
X102772936Y-64265000D02*
X103227064Y-64265000D01*
X102772936Y-65735000D02*
X103227064Y-65735000D01*
%TO.C,R32*%
X102772936Y-54265000D02*
X103227064Y-54265000D01*
X102772936Y-55735000D02*
X103227064Y-55735000D01*
%TO.C,R16*%
X158522936Y-126515000D02*
X158977064Y-126515000D01*
X158522936Y-127985000D02*
X158977064Y-127985000D01*
%TO.C,R20*%
X102765000Y-139022936D02*
X102765000Y-139477064D01*
X104235000Y-139022936D02*
X104235000Y-139477064D01*
%TO.C,R13*%
X113272936Y-129265000D02*
X113727064Y-129265000D01*
X113272936Y-130735000D02*
X113727064Y-130735000D01*
%TO.C,R40*%
X153515000Y-74727064D02*
X153515000Y-74272936D01*
X154985000Y-74727064D02*
X154985000Y-74272936D01*
%TO.C,C17*%
X127461252Y-75140000D02*
X126038748Y-75140000D01*
X127461252Y-77860000D02*
X126038748Y-77860000D01*
%TO.C,C34*%
X151561252Y-90765000D02*
X151038748Y-90765000D01*
X151561252Y-92235000D02*
X151038748Y-92235000D01*
%TO.C,C18*%
X116890000Y-61288748D02*
X116890000Y-62711252D01*
X119610000Y-61288748D02*
X119610000Y-62711252D01*
%TO.C,U3*%
X122862500Y-50190000D02*
X122062500Y-50190000D01*
X122862500Y-50190000D02*
X123662500Y-50190000D01*
X122862500Y-53310000D02*
X122062500Y-53310000D01*
X122862500Y-53310000D02*
X123662500Y-53310000D01*
X124162500Y-50240000D02*
X123922500Y-49910000D01*
X124402500Y-49910000D01*
X124162500Y-50240000D01*
G36*
X124162500Y-50240000D02*
G01*
X123922500Y-49910000D01*
X124402500Y-49910000D01*
X124162500Y-50240000D01*
G37*
%TO.C,R48*%
X125522936Y-59015000D02*
X125977064Y-59015000D01*
X125522936Y-60485000D02*
X125977064Y-60485000D01*
%TO.C,C32*%
X123515000Y-85011252D02*
X123515000Y-84488748D01*
X124985000Y-85011252D02*
X124985000Y-84488748D01*
%TO.C,R14*%
X127106269Y-130015000D02*
X127560397Y-130015000D01*
X127106269Y-131485000D02*
X127560397Y-131485000D01*
%TO.C,L1*%
X117690000Y-52399622D02*
X117690000Y-51600378D01*
X118810000Y-52399622D02*
X118810000Y-51600378D01*
%TO.C,Y2*%
X122400000Y-88740000D02*
X122400000Y-92760000D01*
X122400000Y-88740000D02*
X122800000Y-88740000D01*
X122400000Y-92760000D02*
X122800000Y-92760000D01*
X128300000Y-88740000D02*
X124700000Y-88740000D01*
X128300000Y-92760000D02*
X124700000Y-92760000D01*
X128300000Y-92760000D02*
X128300000Y-93350000D01*
X129446400Y-91289200D02*
X129446400Y-90191200D01*
X130200000Y-93350000D02*
X130200000Y-92760000D01*
X130600000Y-88740000D02*
X130200000Y-88740000D01*
X130600000Y-88740000D02*
X130600000Y-92760000D01*
X130600000Y-92760000D02*
X130200000Y-92760000D01*
%TO.C,C31*%
X137488748Y-76265000D02*
X138011252Y-76265000D01*
X137488748Y-77735000D02*
X138011252Y-77735000D01*
%TO.C,C36*%
X134511252Y-55515000D02*
X133988748Y-55515000D01*
X134511252Y-56985000D02*
X133988748Y-56985000D01*
%TO.C,R29*%
X98022936Y-54265000D02*
X98477064Y-54265000D01*
X98022936Y-55735000D02*
X98477064Y-55735000D01*
%TO.C,C38*%
X127488748Y-94265000D02*
X128011252Y-94265000D01*
X127488748Y-95735000D02*
X128011252Y-95735000D01*
%TO.C,R49*%
X140977064Y-65765000D02*
X140522936Y-65765000D01*
X140977064Y-67235000D02*
X140522936Y-67235000D01*
%TO.C,R51*%
X185227064Y-97765000D02*
X184772936Y-97765000D01*
X185227064Y-99235000D02*
X184772936Y-99235000D01*
%TO.C,D9*%
X126440000Y-52187500D02*
X126440000Y-51387500D01*
X126440000Y-52187500D02*
X126440000Y-52987500D01*
X129560000Y-52187500D02*
X129560000Y-51387500D01*
X129560000Y-52187500D02*
X129560000Y-52987500D01*
X126490000Y-50887500D02*
X126160000Y-51127500D01*
X126160000Y-50647500D01*
X126490000Y-50887500D01*
G36*
X126490000Y-50887500D02*
G01*
X126160000Y-51127500D01*
X126160000Y-50647500D01*
X126490000Y-50887500D01*
G37*
%TO.C,R10*%
X158015000Y-117022936D02*
X158015000Y-117477064D01*
X159485000Y-117022936D02*
X159485000Y-117477064D01*
%TO.C,R47*%
X127522936Y-55515000D02*
X127977064Y-55515000D01*
X127522936Y-56985000D02*
X127977064Y-56985000D01*
%TO.C,R8*%
X143022936Y-123265000D02*
X143477064Y-123265000D01*
X143022936Y-124735000D02*
X143477064Y-124735000D01*
%TO.C,R9*%
X138522936Y-137265000D02*
X138977064Y-137265000D01*
X138522936Y-138735000D02*
X138977064Y-138735000D01*
%TO.C,R36*%
X145265000Y-68727064D02*
X145265000Y-68272936D01*
X146735000Y-68727064D02*
X146735000Y-68272936D01*
%TO.C,C33*%
X134765000Y-93261252D02*
X134765000Y-92738748D01*
X136235000Y-93261252D02*
X136235000Y-92738748D01*
%TO.C,R4*%
X164265000Y-120227064D02*
X164265000Y-119772936D01*
X165735000Y-120227064D02*
X165735000Y-119772936D01*
%TO.C,C37*%
X131765000Y-92738748D02*
X131765000Y-93261252D01*
X133235000Y-92738748D02*
X133235000Y-93261252D01*
%TO.C,R33*%
X124522936Y-123015000D02*
X124977064Y-123015000D01*
X124522936Y-124485000D02*
X124977064Y-124485000D01*
%TO.C,R7*%
X141015000Y-60272936D02*
X141015000Y-60727064D01*
X142485000Y-60272936D02*
X142485000Y-60727064D01*
%TO.C,R12*%
X158977064Y-137265000D02*
X158522936Y-137265000D01*
X158977064Y-138735000D02*
X158522936Y-138735000D01*
%TO.C,R5*%
X133765000Y-72877064D02*
X133765000Y-72422936D01*
X135235000Y-72877064D02*
X135235000Y-72422936D01*
%TO.C,R41*%
X133022936Y-63765000D02*
X133477064Y-63765000D01*
X133022936Y-65235000D02*
X133477064Y-65235000D01*
%TO.C,C30*%
X147515000Y-78738748D02*
X147515000Y-79261252D01*
X148985000Y-78738748D02*
X148985000Y-79261252D01*
%TO.C,R27*%
X103015000Y-110677064D02*
X103015000Y-110222936D01*
X104485000Y-110677064D02*
X104485000Y-110222936D01*
%TO.C,C28*%
X151561252Y-88515000D02*
X151038748Y-88515000D01*
X151561252Y-89985000D02*
X151038748Y-89985000D01*
%TO.C,R35*%
X151527064Y-93015000D02*
X151072936Y-93015000D01*
X151527064Y-94485000D02*
X151072936Y-94485000D01*
%TO.C,R17*%
X94522936Y-57765000D02*
X94977064Y-57765000D01*
X94522936Y-59235000D02*
X94977064Y-59235000D01*
%TO.C,C27*%
X144015000Y-76488748D02*
X144015000Y-77011252D01*
X145485000Y-76488748D02*
X145485000Y-77011252D01*
%TO.C,C25*%
X202961252Y-131390000D02*
X201538748Y-131390000D01*
X202961252Y-134110000D02*
X201538748Y-134110000D01*
%TO.C,R37*%
X147265000Y-92022936D02*
X147265000Y-92477064D01*
X148735000Y-92022936D02*
X148735000Y-92477064D01*
%TO.C,U1*%
X114150000Y-94590000D02*
X117910000Y-94590000D01*
X114150000Y-101410000D02*
X117910000Y-101410000D01*
X117910000Y-94590000D02*
X117910000Y-95850000D01*
X117910000Y-101410000D02*
X117910000Y-100150000D01*
X113110000Y-101640000D02*
X112630000Y-101640000D01*
X112870000Y-101310000D01*
X113110000Y-101640000D01*
G36*
X113110000Y-101640000D02*
G01*
X112630000Y-101640000D01*
X112870000Y-101310000D01*
X113110000Y-101640000D01*
G37*
%TO.C,R34*%
X161265000Y-85522936D02*
X161265000Y-85977064D01*
X162735000Y-85522936D02*
X162735000Y-85977064D01*
%TO.C,R52*%
X161265000Y-90977064D02*
X161265000Y-90522936D01*
X162735000Y-90977064D02*
X162735000Y-90522936D01*
%TO.C,C20*%
X99890000Y-101711252D02*
X99890000Y-100288748D01*
X102610000Y-101711252D02*
X102610000Y-100288748D01*
%TO.C,VT4*%
X129190000Y-60362500D02*
X129190000Y-59562500D01*
X129190000Y-60362500D02*
X129190000Y-61162500D01*
X132310000Y-60362500D02*
X132310000Y-59562500D01*
X132310000Y-60362500D02*
X132310000Y-61162500D01*
X132590000Y-61902500D02*
X132260000Y-61662500D01*
X132590000Y-61422500D01*
X132590000Y-61902500D01*
G36*
X132590000Y-61902500D02*
G01*
X132260000Y-61662500D01*
X132590000Y-61422500D01*
X132590000Y-61902500D01*
G37*
%TO.C,C23*%
X165538748Y-122890000D02*
X166961252Y-122890000D01*
X165538748Y-125610000D02*
X166961252Y-125610000D01*
%TO.C,D7*%
X147990000Y-60890000D02*
X148245000Y-60890000D01*
X147990000Y-64750000D02*
X147990000Y-60890000D01*
X147990000Y-64750000D02*
X147990000Y-68610000D01*
X147990000Y-68610000D02*
X148245000Y-68610000D01*
X158510000Y-60890000D02*
X158255000Y-60890000D01*
X158510000Y-64750000D02*
X158510000Y-60890000D01*
X158510000Y-64750000D02*
X158510000Y-68610000D01*
X158510000Y-68610000D02*
X158255000Y-68610000D01*
X158725000Y-69802500D02*
X158255000Y-69462500D01*
X158725000Y-69122500D01*
X158725000Y-69802500D01*
G36*
X158725000Y-69802500D02*
G01*
X158255000Y-69462500D01*
X158725000Y-69122500D01*
X158725000Y-69802500D01*
G37*
%TO.C,C8*%
X154140000Y-105788748D02*
X154140000Y-107211252D01*
X156860000Y-105788748D02*
X156860000Y-107211252D01*
%TO.C,VT2*%
X98940000Y-50887500D02*
X98940000Y-50087500D01*
X98940000Y-50887500D02*
X98940000Y-51687500D01*
X102060000Y-50887500D02*
X102060000Y-50087500D01*
X102060000Y-50887500D02*
X102060000Y-51687500D01*
X102340000Y-52427500D02*
X102010000Y-52187500D01*
X102340000Y-51947500D01*
X102340000Y-52427500D01*
G36*
X102340000Y-52427500D02*
G01*
X102010000Y-52187500D01*
X102340000Y-51947500D01*
X102340000Y-52427500D01*
G37*
%TO.C,D8*%
X102140000Y-80465000D02*
X102140000Y-81035000D01*
X102140000Y-86535000D02*
X102140000Y-85965000D01*
X106000000Y-80465000D02*
X102140000Y-80465000D01*
X106000000Y-80465000D02*
X109860000Y-80465000D01*
X106000000Y-86535000D02*
X102140000Y-86535000D01*
X106000000Y-86535000D02*
X109860000Y-86535000D01*
X109860000Y-80465000D02*
X109860000Y-81035000D01*
X109860000Y-86535000D02*
X109860000Y-85965000D01*
X110987500Y-81035000D02*
X110747500Y-80705000D01*
X111227500Y-80705000D01*
X110987500Y-81035000D01*
G36*
X110987500Y-81035000D02*
G01*
X110747500Y-80705000D01*
X111227500Y-80705000D01*
X110987500Y-81035000D01*
G37*
%TO.C,R15*%
X140977064Y-126515000D02*
X140522936Y-126515000D01*
X140977064Y-127985000D02*
X140522936Y-127985000D01*
%TO.C,D4*%
X122240000Y-64115000D02*
X122240000Y-64320000D01*
X122240000Y-74535000D02*
X122240000Y-74330000D01*
X125000000Y-64115000D02*
X122240000Y-64115000D01*
X125000000Y-64115000D02*
X127760000Y-64115000D01*
X125000000Y-74535000D02*
X122240000Y-74535000D01*
X125000000Y-74535000D02*
X127760000Y-74535000D01*
X127760000Y-64115000D02*
X127760000Y-64320000D01*
X127760000Y-74535000D02*
X127760000Y-74330000D01*
X128550000Y-64320000D02*
X128310000Y-63990000D01*
X128790000Y-63990000D01*
X128550000Y-64320000D01*
G36*
X128550000Y-64320000D02*
G01*
X128310000Y-63990000D01*
X128790000Y-63990000D01*
X128550000Y-64320000D01*
G37*
%TO.C,D5*%
X123115000Y-102740000D02*
X123320000Y-102740000D01*
X123115000Y-105500000D02*
X123115000Y-102740000D01*
X123115000Y-105500000D02*
X123115000Y-108260000D01*
X123115000Y-108260000D02*
X123320000Y-108260000D01*
X133535000Y-102740000D02*
X133330000Y-102740000D01*
X133535000Y-105500000D02*
X133535000Y-102740000D01*
X133535000Y-105500000D02*
X133535000Y-108260000D01*
X133535000Y-108260000D02*
X133330000Y-108260000D01*
X133660000Y-109290000D02*
X133330000Y-109050000D01*
X133660000Y-108810000D01*
X133660000Y-109290000D01*
G36*
X133660000Y-109290000D02*
G01*
X133330000Y-109050000D01*
X133660000Y-108810000D01*
X133660000Y-109290000D01*
G37*
%TO.C,R45*%
X120515000Y-84422936D02*
X120515000Y-84877064D01*
X121985000Y-84422936D02*
X121985000Y-84877064D01*
%TO.C,C21*%
X186788748Y-56890000D02*
X188211252Y-56890000D01*
X186788748Y-59610000D02*
X188211252Y-59610000D01*
%TO.C,C10*%
X170390000Y-139288748D02*
X170390000Y-140711252D01*
X173110000Y-139288748D02*
X173110000Y-140711252D01*
%TO.C,C19*%
X125011252Y-119515000D02*
X124488748Y-119515000D01*
X125011252Y-120985000D02*
X124488748Y-120985000D01*
%TD*%
D12*
X221600000Y-50000000D02*
G75*
G02*
X218400000Y-50000000I-1600000J0D01*
G01*
X218400000Y-50000000D02*
G75*
G02*
X221600000Y-50000000I1600000J0D01*
G01*
X81600000Y-50000000D02*
G75*
G02*
X78400000Y-50000000I-1600000J0D01*
G01*
X78400000Y-50000000D02*
G75*
G02*
X81600000Y-50000000I1600000J0D01*
G01*
X221600000Y-140000000D02*
G75*
G02*
X218400000Y-140000000I-1600000J0D01*
G01*
X218400000Y-140000000D02*
G75*
G02*
X221600000Y-140000000I1600000J0D01*
G01*
X81600000Y-140000000D02*
G75*
G02*
X78400000Y-140000000I-1600000J0D01*
G01*
X78400000Y-140000000D02*
G75*
G02*
X81600000Y-140000000I1600000J0D01*
G01*
X75000000Y-45000000D02*
X225000000Y-45000000D01*
X225000000Y-145000000D01*
X75000000Y-145000000D01*
X75000000Y-45000000D01*
D13*
%TO.C,BT1*%
X114050000Y-89250000D02*
G75*
G02*
X112750000Y-89250000I-650000J0D01*
G01*
X112750000Y-89250000D02*
G75*
G02*
X114050000Y-89250000I650000J0D01*
G01*
X121550000Y-89250000D02*
G75*
G02*
X120250000Y-89250000I-650000J0D01*
G01*
X120250000Y-89250000D02*
G75*
G02*
X121550000Y-89250000I650000J0D01*
G01*
%TD*%
M02*
