%TF.GenerationSoftware,KiCad,Pcbnew,9.0.0*%
%TF.CreationDate,2026-04-13T14:23:43+03:00*%
%TF.ProjectId,ControllerV6,436f6e74-726f-46c6-9c65-7256362e6b69,rev?*%
%TF.SameCoordinates,Original*%
%TF.FileFunction,Soldermask,Bot*%
%TF.FilePolarity,Negative*%
%FSLAX46Y46*%
G04 Gerber Fmt 4.6, Leading zero omitted, Abs format (unit mm)*
G04 Created by KiCad (PCBNEW 9.0.0) date 2026-04-13 14:23:43*
%MOMM*%
%LPD*%
G01*
G04 APERTURE LIST*
G04 Aperture macros list*
%AMRoundRect*
0 Rectangle with rounded corners*
0 $1 Rounding radius*
0 $2 $3 $4 $5 $6 $7 $8 $9 X,Y pos of 4 corners*
0 Add a 4 corners polygon primitive as box body*
4,1,4,$2,$3,$4,$5,$6,$7,$8,$9,$2,$3,0*
0 Add four circle primitives for the rounded corners*
1,1,$1+$1,$2,$3*
1,1,$1+$1,$4,$5*
1,1,$1+$1,$6,$7*
1,1,$1+$1,$8,$9*
0 Add four rect primitives between the rounded corners*
20,1,$1+$1,$2,$3,$4,$5,0*
20,1,$1+$1,$4,$5,$6,$7,0*
20,1,$1+$1,$6,$7,$8,$9,0*
20,1,$1+$1,$8,$9,$2,$3,0*%
G04 Aperture macros list end*
%ADD10C,0.675000*%
%ADD11RoundRect,0.250000X-0.600000X-0.725000X0.600000X-0.725000X0.600000X0.725000X-0.600000X0.725000X0*%
%ADD12O,1.700000X1.950000*%
%ADD13RoundRect,0.250000X-0.600000X-0.750000X0.600000X-0.750000X0.600000X0.750000X-0.600000X0.750000X0*%
%ADD14O,1.700000X2.000000*%
%ADD15R,3.000000X3.000000*%
%ADD16C,3.000000*%
%ADD17RoundRect,0.250000X0.350000X0.450000X-0.350000X0.450000X-0.350000X-0.450000X0.350000X-0.450000X0*%
%ADD18RoundRect,0.250000X-0.450000X0.350000X-0.450000X-0.350000X0.450000X-0.350000X0.450000X0.350000X0*%
%ADD19RoundRect,0.075000X-0.700000X-0.075000X0.700000X-0.075000X0.700000X0.075000X-0.700000X0.075000X0*%
%ADD20RoundRect,0.075000X-0.075000X-0.700000X0.075000X-0.700000X0.075000X0.700000X-0.075000X0.700000X0*%
%ADD21R,1.200000X1.400000*%
%ADD22RoundRect,0.250000X0.450000X-0.350000X0.450000X0.350000X-0.450000X0.350000X-0.450000X-0.350000X0*%
%ADD23RoundRect,0.250000X0.412500X1.100000X-0.412500X1.100000X-0.412500X-1.100000X0.412500X-1.100000X0*%
%ADD24RoundRect,0.250000X1.100000X-0.412500X1.100000X0.412500X-1.100000X0.412500X-1.100000X-0.412500X0*%
%ADD25RoundRect,0.250000X-0.475000X0.250000X-0.475000X-0.250000X0.475000X-0.250000X0.475000X0.250000X0*%
%ADD26RoundRect,0.250000X-0.350000X-0.450000X0.350000X-0.450000X0.350000X0.450000X-0.350000X0.450000X0*%
%ADD27RoundRect,0.150000X-1.050000X-0.150000X1.050000X-0.150000X1.050000X0.150000X-1.050000X0.150000X0*%
%ADD28RoundRect,0.250000X0.250000X0.475000X-0.250000X0.475000X-0.250000X-0.475000X0.250000X-0.475000X0*%
%ADD29RoundRect,0.150000X-0.825000X-0.150000X0.825000X-0.150000X0.825000X0.150000X-0.825000X0.150000X0*%
%ADD30RoundRect,0.250000X-0.412500X-1.100000X0.412500X-1.100000X0.412500X1.100000X-0.412500X1.100000X0*%
%ADD31RoundRect,0.250000X0.450000X-0.262500X0.450000X0.262500X-0.450000X0.262500X-0.450000X-0.262500X0*%
%ADD32RoundRect,0.250000X-0.250000X-0.475000X0.250000X-0.475000X0.250000X0.475000X-0.250000X0.475000X0*%
%ADD33RoundRect,0.250000X0.475000X-0.250000X0.475000X0.250000X-0.475000X0.250000X-0.475000X-0.250000X0*%
%ADD34RoundRect,0.150000X0.150000X-1.050000X0.150000X1.050000X-0.150000X1.050000X-0.150000X-1.050000X0*%
%ADD35RoundRect,0.150000X0.150000X-0.512500X0.150000X0.512500X-0.150000X0.512500X-0.150000X-0.512500X0*%
%ADD36RoundRect,0.250000X0.412500X0.925000X-0.412500X0.925000X-0.412500X-0.925000X0.412500X-0.925000X0*%
%ADD37RoundRect,0.250000X-1.100000X0.412500X-1.100000X-0.412500X1.100000X-0.412500X1.100000X0.412500X0*%
%ADD38RoundRect,0.150000X0.512500X0.150000X-0.512500X0.150000X-0.512500X-0.150000X0.512500X-0.150000X0*%
%ADD39RoundRect,0.218750X0.381250X-0.218750X0.381250X0.218750X-0.381250X0.218750X-0.381250X-0.218750X0*%
%ADD40R,1.300000X1.900000*%
%ADD41RoundRect,0.150000X-0.150000X0.512500X-0.150000X-0.512500X0.150000X-0.512500X0.150000X0.512500X0*%
%ADD42RoundRect,0.250000X-0.450000X0.262500X-0.450000X-0.262500X0.450000X-0.262500X0.450000X0.262500X0*%
%ADD43RoundRect,0.375000X-0.625000X-0.375000X0.625000X-0.375000X0.625000X0.375000X-0.625000X0.375000X0*%
%ADD44RoundRect,0.500000X-0.500000X-1.400000X0.500000X-1.400000X0.500000X1.400000X-0.500000X1.400000X0*%
%ADD45RoundRect,0.150000X0.150000X-0.875000X0.150000X0.875000X-0.150000X0.875000X-0.150000X-0.875000X0*%
%ADD46RoundRect,0.150000X0.750000X0.150000X-0.750000X0.150000X-0.750000X-0.150000X0.750000X-0.150000X0*%
%ADD47RoundRect,0.150000X1.050000X0.150000X-1.050000X0.150000X-1.050000X-0.150000X1.050000X-0.150000X0*%
%TA.AperFunction,Profile*%
%ADD48C,0.100000*%
%TD*%
%TA.AperFunction,Profile*%
%ADD49C,0.050000*%
%TD*%
G04 APERTURE END LIST*
%TO.C,BT1*%
D10*
X113737500Y-89250000D02*
G75*
G02*
X113062500Y-89250000I-337500J0D01*
G01*
X113062500Y-89250000D02*
G75*
G02*
X113737500Y-89250000I337500J0D01*
G01*
X121237500Y-89250000D02*
G75*
G02*
X120562500Y-89250000I-337500J0D01*
G01*
X120562500Y-89250000D02*
G75*
G02*
X121237500Y-89250000I337500J0D01*
G01*
%TD*%
D11*
%TO.C,XT26*%
X193500000Y-64500000D03*
D12*
X196000000Y-64500000D03*
X198500000Y-64500000D03*
X201000000Y-64500000D03*
X203500000Y-64500000D03*
X206000000Y-64500000D03*
X208500000Y-64500000D03*
%TD*%
D11*
%TO.C,XT18*%
X125833333Y-138000000D03*
D12*
X128333333Y-138000000D03*
X130833333Y-138000000D03*
%TD*%
D13*
%TO.C,XT27*%
X133000000Y-52000000D03*
D14*
X135500000Y-52000000D03*
%TD*%
D11*
%TO.C,XT22*%
X176250000Y-52000000D03*
D12*
X178750000Y-52000000D03*
X181250000Y-52000000D03*
X183750000Y-52000000D03*
X186250000Y-52000000D03*
X188750000Y-52000000D03*
%TD*%
D11*
%TO.C,XT14*%
X162500000Y-127250000D03*
D12*
X165000000Y-127250000D03*
X167500000Y-127250000D03*
%TD*%
D13*
%TO.C,XT23*%
X152125000Y-52000000D03*
D14*
X154625000Y-52000000D03*
%TD*%
D11*
%TO.C,XT25*%
X201000000Y-52000000D03*
D12*
X203500000Y-52000000D03*
X206000000Y-52000000D03*
X208500000Y-52000000D03*
%TD*%
D11*
%TO.C,XT34*%
X181500000Y-95000000D03*
D12*
X184000000Y-95000000D03*
X186500000Y-95000000D03*
X189000000Y-95000000D03*
%TD*%
D11*
%TO.C,XT28*%
X181500000Y-127250000D03*
D12*
X184000000Y-127250000D03*
X186500000Y-127250000D03*
X189000000Y-127250000D03*
%TD*%
D13*
%TO.C,XT8*%
X107500000Y-62750000D03*
D14*
X110000000Y-62750000D03*
%TD*%
D11*
%TO.C,XT12*%
X125833333Y-127250000D03*
D12*
X128333333Y-127250000D03*
X130833333Y-127250000D03*
%TD*%
D11*
%TO.C,XT33*%
X201000000Y-127250000D03*
D12*
X203500000Y-127250000D03*
X206000000Y-127250000D03*
X208500000Y-127250000D03*
%TD*%
D13*
%TO.C,XT16*%
X107500000Y-52000000D03*
D14*
X110000000Y-52000000D03*
%TD*%
D11*
%TO.C,XT2*%
X125833333Y-116500000D03*
D12*
X128333333Y-116500000D03*
X130833333Y-116500000D03*
%TD*%
D11*
%TO.C,XT4*%
X162500000Y-116500000D03*
D12*
X165000000Y-116500000D03*
X167500000Y-116500000D03*
%TD*%
D11*
%TO.C,XT1*%
X107500000Y-116500000D03*
D12*
X110000000Y-116500000D03*
X112500000Y-116500000D03*
%TD*%
D13*
%TO.C,XT17*%
X91250000Y-51975000D03*
D14*
X93750000Y-51975000D03*
%TD*%
D15*
%TO.C,C22*%
X106500000Y-98382323D03*
D16*
X106500000Y-103382323D03*
%TD*%
D11*
%TO.C,XT3*%
X144166667Y-116500000D03*
D12*
X146666667Y-116500000D03*
X149166667Y-116500000D03*
%TD*%
D11*
%TO.C,XT31*%
X201000000Y-95000000D03*
D12*
X203500000Y-95000000D03*
X206000000Y-95000000D03*
X208500000Y-95000000D03*
%TD*%
D15*
%TO.C,C7*%
X96250000Y-129500000D03*
D16*
X91250000Y-129500000D03*
%TD*%
D11*
%TO.C,XT15*%
X144166667Y-138000000D03*
D12*
X146666667Y-138000000D03*
X149166667Y-138000000D03*
%TD*%
D11*
%TO.C,XT11*%
X107500000Y-127250000D03*
D12*
X110000000Y-127250000D03*
X112500000Y-127250000D03*
%TD*%
D11*
%TO.C,XT21*%
X146250000Y-96475000D03*
D12*
X148750000Y-96475000D03*
X151250000Y-96475000D03*
X153750000Y-96475000D03*
%TD*%
D11*
%TO.C,XT13*%
X144166667Y-127250000D03*
D12*
X146666667Y-127250000D03*
X149166667Y-127250000D03*
%TD*%
D13*
%TO.C,XT5*%
X107500000Y-73500000D03*
D14*
X110000000Y-73500000D03*
%TD*%
D13*
%TO.C,XT6*%
X91250000Y-73475000D03*
D14*
X93750000Y-73475000D03*
%TD*%
D11*
%TO.C,XT9*%
X107500000Y-138000000D03*
D12*
X110000000Y-138000000D03*
X112500000Y-138000000D03*
%TD*%
D11*
%TO.C,XT32*%
X201000000Y-84250000D03*
D12*
X203500000Y-84250000D03*
X206000000Y-84250000D03*
X208500000Y-84250000D03*
%TD*%
D13*
%TO.C,XT7*%
X91250000Y-62725000D03*
D14*
X93750000Y-62725000D03*
%TD*%
D11*
%TO.C,XT30*%
X201000000Y-105750000D03*
D12*
X203500000Y-105750000D03*
X206000000Y-105750000D03*
X208500000Y-105750000D03*
%TD*%
D11*
%TO.C,XT35*%
X181500000Y-105750000D03*
D12*
X184000000Y-105750000D03*
X186500000Y-105750000D03*
X189000000Y-105750000D03*
%TD*%
D13*
%TO.C,XT19*%
X91250000Y-100750000D03*
D14*
X93750000Y-100750000D03*
%TD*%
D13*
%TO.C,XT24*%
X91250000Y-85000000D03*
D14*
X93750000Y-85000000D03*
%TD*%
D11*
%TO.C,XT10*%
X162500000Y-138000000D03*
D12*
X165000000Y-138000000D03*
X167500000Y-138000000D03*
%TD*%
D11*
%TO.C,XT29*%
X201000000Y-116500000D03*
D12*
X203500000Y-116500000D03*
X206000000Y-116500000D03*
X208500000Y-116500000D03*
%TD*%
D11*
%TO.C,XT36*%
X181500000Y-116500000D03*
D12*
X184000000Y-116500000D03*
X186500000Y-116500000D03*
X189000000Y-116500000D03*
%TD*%
D11*
%TO.C,XT37*%
X181500000Y-84250000D03*
D12*
X184000000Y-84250000D03*
X186500000Y-84250000D03*
X189000000Y-84250000D03*
%TD*%
D13*
%TO.C,XT20*%
X91250000Y-116500000D03*
D14*
X93750000Y-116500000D03*
%TD*%
D17*
%TO.C,R50*%
X186000000Y-91500000D03*
X184000000Y-91500000D03*
%TD*%
D18*
%TO.C,R2*%
X128333333Y-119250000D03*
X128333333Y-121250000D03*
%TD*%
D19*
%TO.C,U2*%
X135825000Y-89325000D03*
X135825000Y-88825000D03*
X135825000Y-88325000D03*
X135825000Y-87825000D03*
X135825000Y-87325000D03*
X135825000Y-86825000D03*
X135825000Y-86325000D03*
X135825000Y-85825000D03*
X135825000Y-85325000D03*
X135825000Y-84825000D03*
X135825000Y-84325000D03*
X135825000Y-83825000D03*
X135825000Y-83325000D03*
X135825000Y-82825000D03*
X135825000Y-82325000D03*
X135825000Y-81825000D03*
D20*
X137750000Y-79900000D03*
X138250000Y-79900000D03*
X138750000Y-79900000D03*
X139250000Y-79900000D03*
X139750000Y-79900000D03*
X140250000Y-79900000D03*
X140750000Y-79900000D03*
X141250000Y-79900000D03*
X141750000Y-79900000D03*
X142250000Y-79900000D03*
X142750000Y-79900000D03*
X143250000Y-79900000D03*
X143750000Y-79900000D03*
X144250000Y-79900000D03*
X144750000Y-79900000D03*
X145250000Y-79900000D03*
D19*
X147175000Y-81825000D03*
X147175000Y-82325000D03*
X147175000Y-82825000D03*
X147175000Y-83325000D03*
X147175000Y-83825000D03*
X147175000Y-84325000D03*
X147175000Y-84825000D03*
X147175000Y-85325000D03*
X147175000Y-85825000D03*
X147175000Y-86325000D03*
X147175000Y-86825000D03*
X147175000Y-87325000D03*
X147175000Y-87825000D03*
X147175000Y-88325000D03*
X147175000Y-88825000D03*
X147175000Y-89325000D03*
D20*
X145250000Y-91250000D03*
X144750000Y-91250000D03*
X144250000Y-91250000D03*
X143750000Y-91250000D03*
X143250000Y-91250000D03*
X142750000Y-91250000D03*
X142250000Y-91250000D03*
X141750000Y-91250000D03*
X141250000Y-91250000D03*
X140750000Y-91250000D03*
X140250000Y-91250000D03*
X139750000Y-91250000D03*
X139250000Y-91250000D03*
X138750000Y-91250000D03*
X138250000Y-91250000D03*
X137750000Y-91250000D03*
%TD*%
D17*
%TO.C,R44*%
X124500000Y-56250000D03*
X122500000Y-56250000D03*
%TD*%
D21*
%TO.C,Y1*%
X126800000Y-85750000D03*
X126800000Y-83550000D03*
X128500000Y-83550000D03*
X128500000Y-85750000D03*
%TD*%
D22*
%TO.C,R3*%
X146666667Y-121000000D03*
X146666667Y-119000000D03*
%TD*%
D23*
%TO.C,C24*%
X138562500Y-108750000D03*
X135437500Y-108750000D03*
%TD*%
D24*
%TO.C,C4*%
X158000000Y-93375000D03*
X158000000Y-90250000D03*
%TD*%
D25*
%TO.C,C9*%
X107500000Y-109550000D03*
X107500000Y-111450000D03*
%TD*%
D22*
%TO.C,R43*%
X134250000Y-61500000D03*
X134250000Y-59500000D03*
%TD*%
D26*
%TO.C,R30*%
X97250000Y-65000000D03*
X99250000Y-65000000D03*
%TD*%
D27*
%TO.C,D11*%
X166000000Y-72750000D03*
X166000000Y-71480000D03*
X166000000Y-70210000D03*
X166000000Y-68940000D03*
X166000000Y-67670000D03*
X166000000Y-66400000D03*
X166000000Y-65130000D03*
X166000000Y-63860000D03*
X172500000Y-63860000D03*
X172500000Y-65130000D03*
X172500000Y-66400000D03*
X172500000Y-67670000D03*
X172500000Y-68940000D03*
X172500000Y-70210000D03*
X172500000Y-71480000D03*
X172500000Y-72750000D03*
%TD*%
D18*
%TO.C,R53*%
X162000000Y-95000000D03*
X162000000Y-97000000D03*
%TD*%
D28*
%TO.C,C15*%
X141700000Y-134500000D03*
X139800000Y-134500000D03*
%TD*%
D26*
%TO.C,R25*%
X157750000Y-130750000D03*
X159750000Y-130750000D03*
%TD*%
D29*
%TO.C,D10*%
X166775000Y-94905000D03*
X166775000Y-93635000D03*
X166775000Y-92365000D03*
X166775000Y-91095000D03*
X171725000Y-91095000D03*
X171725000Y-92365000D03*
X171725000Y-93635000D03*
X171725000Y-94905000D03*
%TD*%
D26*
%TO.C,R26*%
X102000000Y-76500000D03*
X104000000Y-76500000D03*
%TD*%
D30*
%TO.C,C2*%
X115875000Y-91750000D03*
X119000000Y-91750000D03*
%TD*%
D28*
%TO.C,C35*%
X128700000Y-80250000D03*
X126800000Y-80250000D03*
%TD*%
D18*
%TO.C,R39*%
X142000000Y-73500000D03*
X142000000Y-75500000D03*
%TD*%
D23*
%TO.C,C26*%
X203812500Y-89500000D03*
X200687500Y-89500000D03*
%TD*%
D26*
%TO.C,R24*%
X139750000Y-131000000D03*
X141750000Y-131000000D03*
%TD*%
D17*
%TO.C,R42*%
X154500000Y-55750000D03*
X152500000Y-55750000D03*
%TD*%
%TO.C,R28*%
X121250000Y-138000000D03*
X119250000Y-138000000D03*
%TD*%
%TO.C,R11*%
X107500000Y-134500000D03*
X105500000Y-134500000D03*
%TD*%
D31*
%TO.C,R6*%
X139000000Y-73562500D03*
X139000000Y-71737500D03*
%TD*%
D17*
%TO.C,R22*%
X114500000Y-124500000D03*
X112500000Y-124500000D03*
%TD*%
D32*
%TO.C,C13*%
X112550000Y-121750000D03*
X114450000Y-121750000D03*
%TD*%
D33*
%TO.C,C12*%
X152250000Y-139950000D03*
X152250000Y-138050000D03*
%TD*%
D18*
%TO.C,R21*%
X155500000Y-138000000D03*
X155500000Y-140000000D03*
%TD*%
D33*
%TO.C,C14*%
X131500000Y-134950000D03*
X131500000Y-133050000D03*
%TD*%
D26*
%TO.C,R38*%
X148500000Y-73500000D03*
X150500000Y-73500000D03*
%TD*%
D24*
%TO.C,C6*%
X160750000Y-67062500D03*
X160750000Y-63937500D03*
%TD*%
D33*
%TO.C,C5*%
X155500000Y-118200000D03*
X155500000Y-116300000D03*
%TD*%
D18*
%TO.C,R23*%
X128333333Y-133000000D03*
X128333333Y-135000000D03*
%TD*%
D34*
%TO.C,D6*%
X150445000Y-108750000D03*
X149175000Y-108750000D03*
X147905000Y-108750000D03*
X146635000Y-108750000D03*
X145365000Y-108750000D03*
X144095000Y-108750000D03*
X142825000Y-108750000D03*
X141555000Y-108750000D03*
X141555000Y-102250000D03*
X142825000Y-102250000D03*
X144095000Y-102250000D03*
X145365000Y-102250000D03*
X146635000Y-102250000D03*
X147905000Y-102250000D03*
X149175000Y-102250000D03*
X150445000Y-102250000D03*
%TD*%
D35*
%TO.C,VT1*%
X101450000Y-72637500D03*
X99550000Y-72637500D03*
X100500000Y-70362500D03*
%TD*%
D26*
%TO.C,R46*%
X91500000Y-80500000D03*
X93500000Y-80500000D03*
%TD*%
D22*
%TO.C,R1*%
X110000000Y-121250000D03*
X110000000Y-119250000D03*
%TD*%
D33*
%TO.C,C11*%
X100000000Y-140200000D03*
X100000000Y-138300000D03*
%TD*%
D28*
%TO.C,C3*%
X144200000Y-120250000D03*
X142300000Y-120250000D03*
%TD*%
D26*
%TO.C,R18*%
X108000000Y-58500000D03*
X110000000Y-58500000D03*
%TD*%
D28*
%TO.C,C16*%
X159700000Y-134250000D03*
X157800000Y-134250000D03*
%TD*%
D26*
%TO.C,R19*%
X97250000Y-76500000D03*
X99250000Y-76500000D03*
%TD*%
D35*
%TO.C,VT3*%
X101450000Y-61250000D03*
X99550000Y-61250000D03*
X100500000Y-58975000D03*
%TD*%
D33*
%TO.C,C29*%
X122250000Y-60150000D03*
X122250000Y-58250000D03*
%TD*%
D36*
%TO.C,C1*%
X118825000Y-86750000D03*
X115750000Y-86750000D03*
%TD*%
D26*
%TO.C,R31*%
X102000000Y-65000000D03*
X104000000Y-65000000D03*
%TD*%
%TO.C,R32*%
X102000000Y-55000000D03*
X104000000Y-55000000D03*
%TD*%
%TO.C,R16*%
X157750000Y-127250000D03*
X159750000Y-127250000D03*
%TD*%
D18*
%TO.C,R20*%
X103500000Y-138250000D03*
X103500000Y-140250000D03*
%TD*%
D26*
%TO.C,R13*%
X112500000Y-130000000D03*
X114500000Y-130000000D03*
%TD*%
D22*
%TO.C,R40*%
X154250000Y-75500000D03*
X154250000Y-73500000D03*
%TD*%
D23*
%TO.C,C17*%
X128312500Y-76500000D03*
X125187500Y-76500000D03*
%TD*%
D28*
%TO.C,C34*%
X152250000Y-91500000D03*
X150350000Y-91500000D03*
%TD*%
D37*
%TO.C,C18*%
X118250000Y-60437500D03*
X118250000Y-63562500D03*
%TD*%
D38*
%TO.C,U3*%
X124000000Y-50800000D03*
X124000000Y-51750000D03*
X124000000Y-52700000D03*
X121725000Y-52700000D03*
X121725000Y-51750000D03*
X121725000Y-50800000D03*
%TD*%
D26*
%TO.C,R48*%
X124750000Y-59750000D03*
X126750000Y-59750000D03*
%TD*%
D33*
%TO.C,C32*%
X124250000Y-85700000D03*
X124250000Y-83800000D03*
%TD*%
D26*
%TO.C,R14*%
X126333333Y-130750000D03*
X128333333Y-130750000D03*
%TD*%
D39*
%TO.C,L1*%
X118250000Y-53062500D03*
X118250000Y-50937500D03*
%TD*%
D40*
%TO.C,Y2*%
X129250000Y-92350000D03*
X123750000Y-92350000D03*
X123750000Y-89150000D03*
X129250000Y-89150000D03*
%TD*%
D32*
%TO.C,C31*%
X136800000Y-77000000D03*
X138700000Y-77000000D03*
%TD*%
D28*
%TO.C,C36*%
X135200000Y-56250000D03*
X133300000Y-56250000D03*
%TD*%
D26*
%TO.C,R29*%
X97250000Y-55000000D03*
X99250000Y-55000000D03*
%TD*%
D32*
%TO.C,C38*%
X126800000Y-95000000D03*
X128700000Y-95000000D03*
%TD*%
D17*
%TO.C,R49*%
X141750000Y-66500000D03*
X139750000Y-66500000D03*
%TD*%
%TO.C,R51*%
X186000000Y-98500000D03*
X184000000Y-98500000D03*
%TD*%
D41*
%TO.C,D9*%
X127050000Y-51050000D03*
X128950000Y-51050000D03*
X128000000Y-53325000D03*
%TD*%
D18*
%TO.C,R10*%
X158750000Y-116250000D03*
X158750000Y-118250000D03*
%TD*%
D26*
%TO.C,R47*%
X126750000Y-56250000D03*
X128750000Y-56250000D03*
%TD*%
%TO.C,R8*%
X142250000Y-124000000D03*
X144250000Y-124000000D03*
%TD*%
%TO.C,R9*%
X137750000Y-138000000D03*
X139750000Y-138000000D03*
%TD*%
D22*
%TO.C,R36*%
X146000000Y-69500000D03*
X146000000Y-67500000D03*
%TD*%
D33*
%TO.C,C33*%
X135500000Y-93950000D03*
X135500000Y-92050000D03*
%TD*%
D22*
%TO.C,R4*%
X165000000Y-121000000D03*
X165000000Y-119000000D03*
%TD*%
D25*
%TO.C,C37*%
X132500000Y-92050000D03*
X132500000Y-93950000D03*
%TD*%
D26*
%TO.C,R33*%
X123750000Y-123750000D03*
X125750000Y-123750000D03*
%TD*%
D42*
%TO.C,R7*%
X141750000Y-59587500D03*
X141750000Y-61412500D03*
%TD*%
D17*
%TO.C,R12*%
X159750000Y-138000000D03*
X157750000Y-138000000D03*
%TD*%
D31*
%TO.C,R5*%
X134500000Y-73562500D03*
X134500000Y-71737500D03*
%TD*%
D26*
%TO.C,R41*%
X132250000Y-64500000D03*
X134250000Y-64500000D03*
%TD*%
D25*
%TO.C,C30*%
X148250000Y-78050000D03*
X148250000Y-79950000D03*
%TD*%
D22*
%TO.C,R27*%
X103750000Y-111450000D03*
X103750000Y-109450000D03*
%TD*%
D28*
%TO.C,C28*%
X152250000Y-89250000D03*
X150350000Y-89250000D03*
%TD*%
D17*
%TO.C,R35*%
X152300000Y-93750000D03*
X150300000Y-93750000D03*
%TD*%
D26*
%TO.C,R17*%
X93750000Y-58500000D03*
X95750000Y-58500000D03*
%TD*%
D25*
%TO.C,C27*%
X144750000Y-75800000D03*
X144750000Y-77700000D03*
%TD*%
D23*
%TO.C,C25*%
X203812500Y-132750000D03*
X200687500Y-132750000D03*
%TD*%
D18*
%TO.C,R37*%
X148000000Y-91250000D03*
X148000000Y-93250000D03*
%TD*%
D43*
%TO.C,U1*%
X112850000Y-100300000D03*
X112850000Y-98000000D03*
D44*
X119150000Y-98000000D03*
D43*
X112850000Y-95700000D03*
%TD*%
D18*
%TO.C,R34*%
X162000000Y-84750000D03*
X162000000Y-86750000D03*
%TD*%
D22*
%TO.C,R52*%
X162000000Y-91750000D03*
X162000000Y-89750000D03*
%TD*%
D24*
%TO.C,C20*%
X101250000Y-102562500D03*
X101250000Y-99437500D03*
%TD*%
D35*
%TO.C,VT4*%
X131700000Y-61500000D03*
X129800000Y-61500000D03*
X130750000Y-59225000D03*
%TD*%
D30*
%TO.C,C23*%
X164687500Y-124250000D03*
X167812500Y-124250000D03*
%TD*%
D45*
%TO.C,D7*%
X157695000Y-69400000D03*
X156425000Y-69400000D03*
X155155000Y-69400000D03*
X153885000Y-69400000D03*
X152615000Y-69400000D03*
X151345000Y-69400000D03*
X150075000Y-69400000D03*
X148805000Y-69400000D03*
X148805000Y-60100000D03*
X150075000Y-60100000D03*
X151345000Y-60100000D03*
X152615000Y-60100000D03*
X153885000Y-60100000D03*
X155155000Y-60100000D03*
X156425000Y-60100000D03*
X157695000Y-60100000D03*
%TD*%
D37*
%TO.C,C8*%
X155500000Y-104937500D03*
X155500000Y-108062500D03*
%TD*%
D35*
%TO.C,VT2*%
X101450000Y-52025000D03*
X99550000Y-52025000D03*
X100500000Y-49750000D03*
%TD*%
D46*
%TO.C,D8*%
X111325000Y-81595000D03*
X111325000Y-82865000D03*
X111325000Y-84135000D03*
X111325000Y-85405000D03*
X100675000Y-85405000D03*
X100675000Y-84135000D03*
X100675000Y-82865000D03*
X100675000Y-81595000D03*
%TD*%
D17*
%TO.C,R15*%
X141750000Y-127250000D03*
X139750000Y-127250000D03*
%TD*%
D47*
%TO.C,D4*%
X128250000Y-64880000D03*
X128250000Y-66150000D03*
X128250000Y-67420000D03*
X128250000Y-68690000D03*
X128250000Y-69960000D03*
X128250000Y-71230000D03*
X128250000Y-72500000D03*
X128250000Y-73770000D03*
X121750000Y-73770000D03*
X121750000Y-72500000D03*
X121750000Y-71230000D03*
X121750000Y-69960000D03*
X121750000Y-68690000D03*
X121750000Y-67420000D03*
X121750000Y-66150000D03*
X121750000Y-64880000D03*
%TD*%
D34*
%TO.C,D5*%
X132770000Y-108750000D03*
X131500000Y-108750000D03*
X130230000Y-108750000D03*
X128960000Y-108750000D03*
X127690000Y-108750000D03*
X126420000Y-108750000D03*
X125150000Y-108750000D03*
X123880000Y-108750000D03*
X123880000Y-102250000D03*
X125150000Y-102250000D03*
X126420000Y-102250000D03*
X127690000Y-102250000D03*
X128960000Y-102250000D03*
X130230000Y-102250000D03*
X131500000Y-102250000D03*
X132770000Y-102250000D03*
%TD*%
D42*
%TO.C,R45*%
X121250000Y-83737500D03*
X121250000Y-85562500D03*
%TD*%
D30*
%TO.C,C21*%
X185937500Y-58250000D03*
X189062500Y-58250000D03*
%TD*%
D37*
%TO.C,C10*%
X171750000Y-138437500D03*
X171750000Y-141562500D03*
%TD*%
D28*
%TO.C,C19*%
X125700000Y-120250000D03*
X123800000Y-120250000D03*
%TD*%
D48*
X221600000Y-50000000D02*
G75*
G02*
X218400000Y-50000000I-1600000J0D01*
G01*
X218400000Y-50000000D02*
G75*
G02*
X221600000Y-50000000I1600000J0D01*
G01*
X81600000Y-50000000D02*
G75*
G02*
X78400000Y-50000000I-1600000J0D01*
G01*
X78400000Y-50000000D02*
G75*
G02*
X81600000Y-50000000I1600000J0D01*
G01*
X221600000Y-140000000D02*
G75*
G02*
X218400000Y-140000000I-1600000J0D01*
G01*
X218400000Y-140000000D02*
G75*
G02*
X221600000Y-140000000I1600000J0D01*
G01*
X81600000Y-140000000D02*
G75*
G02*
X78400000Y-140000000I-1600000J0D01*
G01*
X78400000Y-140000000D02*
G75*
G02*
X81600000Y-140000000I1600000J0D01*
G01*
X75000000Y-45000000D02*
X225000000Y-45000000D01*
X225000000Y-145000000D01*
X75000000Y-145000000D01*
X75000000Y-45000000D01*
D49*
%TO.C,BT1*%
X114050000Y-89250000D02*
G75*
G02*
X112750000Y-89250000I-650000J0D01*
G01*
X112750000Y-89250000D02*
G75*
G02*
X114050000Y-89250000I650000J0D01*
G01*
X121550000Y-89250000D02*
G75*
G02*
X120250000Y-89250000I-650000J0D01*
G01*
X120250000Y-89250000D02*
G75*
G02*
X121550000Y-89250000I650000J0D01*
G01*
%TD*%
M02*
